<svg width="252" height="252" viewBox="0 0 252 252" fill="none" xmlns="http://www.w3.org/2000/svg">
<g clip-path="url(#clip0_9_7272)">
<path fill-rule="evenodd" clip-rule="evenodd" d="M175.4 4.09995L55.7 63.9999C42.5 70.4999 37.4 86.8999 44.4 100.5C51.3 114.1 67.6 119.7 80.8 113.2L79.5 113.8C81.8 112.7 84.5 113.7 85.7 115.9C86.8 118.3 86 121 83.8 122.1L33 147.6C19.8 154.2 14.7 170.6 21.7 184.1C28.6 197.7 44.9 203.3 58.1 196.7L68.8 191.3C71.1 190.2 73.8 191.2 75 193.4C76.1 195.8 76 198.1 73.2 199.5C61.4 205.5 56 222 62.9 235.5C69.8 249.1 86.1 254.7 99.3 248.1L219 188.1C232.2 181.5 237.3 165.1 230.3 151.5C223.4 137.9 207.1 132.3 193.9 138.9L182.2 144.8C179.9 145.9 177.2 144.9 176 142.7C174.9 140.3 175.7 137.6 177.9 136.5L177.5 136.6C190.7 130 195.8 113.6 188.8 99.9999C181.9 86.3999 165.6 80.7999 152.4 87.3999L152.1 87.4999C149.8 88.5999 147.1 87.5999 145.9 85.3999C144.8 82.9999 145.6 80.2999 147.8 79.1999L200.2 52.9999C213.4 46.3999 218.5 29.9999 211.5 16.3999C204.8 3.19995 188.6 -2.60005 175.4 4.09995Z" fill="#F5F2F0"/>
<path d="M175.6 223.6C172.3 223.6 169.6 221 169.6 217.6C169.6 217.5 169.5 217.3 169.3 217.3C169.2 217.3 169 217.4 169 217.6C169 220.9 166.4 223.6 163 223.6C162.9 223.6 162.7 223.7 162.7 223.9C162.7 224 162.8 224.2 163 224.2C166.3 224.2 169 226.8 169 230.2C169 230.3 169.1 230.5 169.3 230.5C169.4 230.5 169.6 230.4 169.6 230.2C169.6 226.9 172.2 224.2 175.6 224.2C175.7 224.2 175.9 224.1 175.9 223.9C175.9 223.8 175.7 223.6 175.6 223.6Z" fill="#F2A85A"/>
<path d="M155.1 213.6C153.4 213.6 151.8 212.1 151.8 210.3C151.8 210.2 151.8 210.2 151.7 210.2C151.6 210.2 151.6 210.2 151.6 210.3C151.6 212 150.1 213.6 148.3 213.6C148.2 213.6 148.2 213.6 148.2 213.7C148.2 213.8 148.2 213.8 148.3 213.8C150 213.8 151.6 215.3 151.6 217.1C151.6 217.2 151.6 217.2 151.7 217.2C151.8 217.2 151.8 217.2 151.8 217.1C151.8 215.4 153.3 213.8 155.1 213.8C155.2 213.9 155.2 213.9 155.1 213.6C155.2 213.7 155.2 213.6 155.1 213.6Z" fill="#F2A85A"/>
<path d="M56.5999 40.3C53.2999 40.3 50.5999 37.7 50.5999 34.3C50.5999 34.2 50.4999 34 50.2999 34C50.1999 34.1 50 34.1 50 34.3C50 37.6 47.4 40.3 44 40.3C43.9 40.3 43.7 40.4 43.7 40.6C43.7 40.7 43.8 40.9 44 40.9C47.3 40.9 50 43.5 50 46.9C50 47 50.0999 47.2 50.2999 47.2C50.3999 47.2 50.5999 47.1 50.5999 46.9C50.5999 43.6 53.1999 40.9 56.5999 40.9C56.6999 40.9 56.9 40.8 56.9 40.6C56.9 40.4 56.6999 40.3 56.5999 40.3Z" fill="#F2A85A"/>
<path d="M63 169.3C69.6 173.7 76.4 177.8 83.2 182L85.6 183.4C93.9 187.6 106.2 191.3 115.5 190.8C117.3 190.7 119.1 190.6 120.9 190.4C123.8 190 126.6 189.4 129.5 188.6C137.6 186.5 144.8 182.7 151.5 177.9C157.1 173.8 162.8 169.7 168.5 165.7C172.9 162.6 177.3 159.4 181.8 156.5C187.2 153 198 145.8 203.3 142.2C208.4 138.7 218.4 132.8 223.6 129.5C225.3 128.4 227.1 127.3 228.9 126.4C230.7 125.5 232.4 124.4 234 123.3C235.6 122.2 236.8 120.4 237.2 118.3C237.5 116.6 237.2 115.1 236.5 113.5C235 110.1 229.4 107.2 226.5 105.2L221.4 102.2C217 99.7 212.5 97.4 207.9 95.3C203.6 93.4 199 91.2 194.6 89.7C192.1 88.8 187.4 87.3 184.9 86.4C144.3 72 101.3 81.1 63.2 99C53.8 103.4 26.1 118.3 26.1 118.3C23.2 120.4 20.1 123 18.3 126.1C17.1 128.1 17 130.7 18.7 132.8C20.9 135.4 23.1 137.9 25.4 140.3C29.8 144.9 34.5 149.3 39.4 153.4C44.9 157.9 63 169.3 63 169.3Z" fill="#FAFAFA"/>
<path d="M232.2 124.4C230.9 123.5 228.8 122.1 227.3 121.3C225.6 120.5 219.9 118.1 219.2 118.6L205.7 125.5C205.1 125.9 213.4 131.9 216.2 134.5C206.1 140.8 194.4 148.2 188.7 152C185.5 154.1 180.5 157.5 175 161.3C170.6 159.6 161.8 154.4 160.4 154.6C155.6 155.3 142.2 164 140.2 167C137.1 171.6 144.3 176.9 147.7 180.3C146.8 180.9 146.2 181.3 146.2 181.3C137.5 186.9 127.4 190.5 116.5 190.9C104.2 191.8 90.8 187.4 80.7 180.6L39.4 153.5C43.1 157.2 47.2 160.5 51.4 163.7C58.5 169.3 65.8 174.5 73.5 179.4C79.2 183 84.9 186.7 90.8 189.8C93 191 95 192.3 97.3 193.2C102.1 195 106.9 196.3 112 196.5C116.8 196.7 121.6 196.5 126.3 195.5C130.9 194.5 135.3 193.1 139.5 191.1C143.7 189.1 147.5 186.6 151.3 184C159.1 178.6 167 173.2 175 167.9C180.3 164.4 185.5 160.7 190.9 157.2C193.7 155.4 196.4 153.4 199.2 151.4C207.2 145.9 215.5 140.8 223.3 135C225 133.7 228.5 131.2 230 129.7L232.6 125.5L232.2 124.4Z" fill="#F6E4D9"/>
<path d="M79.6 135.9C83.1 136 86.4 135.1 89.7 134.5L92.3 134.2C98.2 153.4 125.8 154.3 142.5 152.7C155.7 151.6 170.7 144.6 178.4 134.2L173.1 130.2C170.4 127.2 174.4 124.7 173.1 121.4C171.2 115.4 154.6 116.5 161.2 107.9L160.9 107.3C158.6 106.5 156.2 106.1 153.8 105.7C151.3 105.3 148.9 105.2 146.4 105C144.3 104.8 142.2 104.7 140.2 104.9C139.2 105 137.4 105.5 136.4 105.6C135.2 105.6 132.7 105.3 132 104.2C131.6 103.6 131.9 102.7 132 102C132.5 99.0001 131.9 97.0001 129.6 95.6001C126 94.0001 121.2 95.8001 117.4 94.2001C107.7 90.2001 98.7 96.8001 89.2 95.2001L87.4 94.9001C83 96.2001 78.9 97.8001 75.1 99.6001C68.2 102.9 52.5 109 59 118.9C63.1 123.7 69.1 123.3 74.5 124.3C74.5 124.3 73.4 126.7 72.9 127.4C72.1 128.6 71.1 129.6 71 131.2C70.9 132.4 71.3 133.4 72.2 134.2L73 134.9C75.2 135.7 77.3 135.8 79.6 135.9Z" fill="#F6E4D9"/>
<path d="M86 98.8C96.7 95.1 127 93.3 128.7 109.1L139 113.6C144.9 113.9 151.1 113.3 156.6 115.6C200.1 133.8 119.6 162 106.7 136.5C105.7 134.4 102.8 132.8 100.4 132.9C99.5 132.9 98.2 134.3 97 134.7C94.4 135.6 94.1 134.6 92.1 134.4C89 134.1 87.1 135.2 85.8 135.3C80.2 135.5 77.5 136.7 73.8 135.1C68.6 132.9 74.2 124.1 74.7 124.3C80.2 126.2 84.2 122.1 84 121.9C83.6 119.3 80.9 119.4 78.7 119.2C70 118.8 62.7 110 73.5 104.1L86 98.8Z" fill="#FAFAFA"/>
<path d="M60.1 100.3C60.7 100.7 61.7001 102.5 61 103.4C60.4 104.1 59.8 104.5 58.8 105C55.2 106.7 50.1 109 46.3 110.6C44.2 111.5 39.1 113.3 37.5 111.9L36.8 110.9L60.1 100.3Z" fill="#F6E4D9"/>
<path d="M116 81.9C115.9 83 115.8 84.5 114.4 84.8C114.4 84.8 105 87.4 101.7 87.4C101 87.4 99.4 86.7 99 85.5L116 81.9Z" fill="#F6E4D9"/>
<path d="M94.4 133.8C95 125.5 87.6 125.8 82 128C78.7 129.3 78.3 131.9 79.2 135.4L92 134L93.7 134.6L94.4 133.8Z" fill="#AFA5A3"/>
<path d="M194.8 101.8C192.3 101.1 189 100.5 187.1 102.1C186.5 102.6 186.4 103.3 186.8 103.9C189 106.9 200.3 106.3 196.7 102.9C196.2 102.4 195.5 102 194.8 101.8Z" fill="#FE745D"/>
<path d="M85.6 183.4C93.9 187.6 106.2 191.3 115.5 190.8C117.3 190.7 119.1 190.6 120.9 190.4C123.8 190 126.6 189.4 129.5 188.6C137.6 186.5 144.8 182.7 151.5 177.9C157.1 173.8 162.8 169.7 168.5 165.7C172.9 162.6 177.3 159.4 181.8 156.5C187.2 153 198 145.8 203.3 142.2C208.4 138.7 218.4 132.8 223.6 129.5C225.3 128.4 227.1 127.3 228.9 126.4C230.7 125.5 232.4 124.4 234 123.3C235.6 122.2 236.8 120.4 237.2 118.3C237.5 116.6 237.2 115.1 236.5 113.5C235 110.1 229.4 107.2 226.5 105.2" stroke="#230802" stroke-width="1.4" stroke-miterlimit="10" stroke-linecap="round" stroke-linejoin="round"/>
<path d="M223.3 135.1C215.5 140.9 207.2 145.9 199.2 151.5C196.4 153.4 193.7 155.5 190.9 157.3C185.5 160.8 180.3 164.4 175 168C167 173.3 159.2 178.7 151.3 184.1C147.5 186.7 143.7 189.2 139.5 191.2C135.3 193.2 130.9 194.6 126.3 195.6C121.6 196.6 116.8 196.9 112 196.6C106.9 196.3 102.1 195.1 97.3 193.3C95 192.4 92.9 191.1 90.8 189.9C84.8 186.7 79.2 183.1 73.5 179.5C65.9 174.7 58.5 169.4 51.4 163.8C47.3 160.6 43.1 157.3 39.4 153.6C34.9 149 29.8 145.1 25.4 140.5C23.1 138.1 20.9 135.6 18.7 133C17 131 17.1 128.4 18.3 126.3C20.1 123.2 23.2 120.6 26.1 118.5" stroke="#230802" stroke-width="1.4" stroke-miterlimit="10" stroke-linecap="round" stroke-linejoin="round"/>
<path d="M39.1 153C46 158.4 55.7 164.5 63 169.3C69.6 173.7 76.4 177.8 83.2 182C83.9 182.4 84.6 182.8 85.3 183.2" stroke="#230802" stroke-width="1.4" stroke-miterlimit="10" stroke-linecap="round" stroke-linejoin="round"/>
<path d="M88 98.1001C114.8 103.1 139.9 119.9 164.6 131.7C165.1 131.9 165.4 132.3 165.6 132.8L166.2 134.1" stroke="#230802" stroke-width="1.4" stroke-miterlimit="10" stroke-linecap="round" stroke-linejoin="round"/>
<path d="M169.1 165C167.6 163.8 163.5 161.3 161.6 160.9C160.4 160.6 159.3 161.2 158.3 161.6C155.7 162.7 153.4 164.4 151.2 166.1C149.2 167.6 147.2 169.1 145.2 170.5C144.3 171.1 143.5 171.9 143 172.8L149.6 178.4" stroke="#230802" stroke-width="1.4" stroke-miterlimit="10" stroke-linecap="round" stroke-linejoin="round"/>
<path d="M215.2 134.3C215.3 133.4 214.3 132.9 214.1 132.7C213 131.9 210.8 130.4 209.7 129.7C208.9 129.2 207.5 128.1 206.8 127.5C205.4 126.3 205.8 124.7 207.4 123.9C210.3 122.4 213.3 121 216.3 119.6C218.1 118.7 219.9 118.6 221.7 119.1C224.6 119.9 228.1 121.5 230.7 123C230.7 123 232.2 123.6 231.9 124.7" stroke="#230802" stroke-width="1.4" stroke-miterlimit="10" stroke-linecap="round" stroke-linejoin="round"/>
<path d="M186.5 109.7C191 106.9 196.3 109.1 201.2 107.3C208.3 104.3 200.4 99.8 196.3 99.2C191.9 98.4 182.4 96.9 180.3 102.1C180.4 104.2 179.4 105.2 177.5 105.8" stroke="#230802" stroke-width="1.4" stroke-miterlimit="10" stroke-linecap="round" stroke-linejoin="round"/>
<path d="M185.3 86.5C182.3 87.3 178.4 88.4 175.5 89.3C174.6 89.6 173.6 89.7 172.8 90.3" stroke="#230802" stroke-width="1.4" stroke-miterlimit="10" stroke-linecap="round" stroke-linejoin="round"/>
<path d="M154.2 141.3C154.1 141.1 153.9 140.5 153.7 140.1C153.5 139.8 153.3 139.5 152.9 139.3C148.7 137.4 140.4 133.2 136.4 131.1C129.4 127.4 122.5 123.4 115.4 119.7C111.2 117.5 106.7 115.6 102.4 113.6C95.3 110.2 87.9 107.6 80.6 104.6C79.2 104 78 103.6 76.7 102.5" stroke="#230802" stroke-width="1.4" stroke-miterlimit="10" stroke-linecap="round" stroke-linejoin="round"/>
<path d="M139.4 105.3C139.4 105.4 139.5 105.4 139.5 105.5C139.4 107.9 138.335 109.483 139 111.9C139.177 112.543 139.2 113.1 139.6 113.5" stroke="#230802" stroke-width="1.4" stroke-miterlimit="10" stroke-linecap="round" stroke-linejoin="round"/>
<path d="M227.3 126.9C226 125.8 222.3 124.2 220.7 123.9C219.5 123.7 218.4 124.2 217.4 124.8C215 126 212.7 127.2 210.3 128.5C209.9 128.7 209.5 128.9 209 128.4C210.1 127.1 209.1 126.1 208.5 124.9C208.3 124.6 208.1 124.2 207.9 123.9" stroke="#230802" stroke-width="1.4" stroke-miterlimit="10" stroke-linecap="round" stroke-linejoin="round"/>
<path d="M147.7 180.4C147.8 179.5 147.3 179 146.9 178.7C145.3 177.2 142.5 175 141 173.5C139.3 171.8 138.6 169.9 139.6 167.9C140.1 166.9 140.8 166 141.7 165.4C144.7 163.3 147.6 161.1 150.6 159.1C153.1 157.4 155.6 155.1 158.9 154.9C159.8 154.8 161.6 154.9 162.5 155.1C166.1 155.7 169.5 158.4 172.6 160.1C172.6 160.1 173.7 160.8 173.8 161.8" stroke="#230802" stroke-width="1.4" stroke-miterlimit="10" stroke-linecap="round" stroke-linejoin="round"/>
<path d="M161.2 107.8C154.5 116.4 171.2 115.4 173.1 121.3C174.4 124.6 170.4 127.1 173.1 130.1C179.2 135.7 187.2 138.4 194.9 144.3C194.9 144.3 196.3 145.1 196.3 146.8" stroke="#230802" stroke-width="1.4" stroke-miterlimit="10" stroke-linecap="round" stroke-linejoin="round"/>
<path d="M60.1 100.3C60.7 100.7 61.7 102.5 61 103.4C60.4 104.1 59.8 104.5 58.8 105C55.2 106.7 50.1 109 46.3 110.6C41.4 112.7 36.8 111.3 36.8 111.3C36.8 111.3 56.5 101.8 63 98.8C101.2 81.2 144.3 72 184.8 86.4C187.3 87.3 192 88.8 194.5 89.7C198.9 91.3 203.5 93.4 207.8 95.3" stroke="#230802" stroke-width="1.4" stroke-miterlimit="10" stroke-linecap="round" stroke-linejoin="round"/>
<path d="M142.1 165.5C142.5 166.1 142.8 166.6 143.2 167.2C143.6 167.7 144.8 169.7 144.9 170.7" stroke="#230802" stroke-width="1.4" stroke-miterlimit="10" stroke-linecap="round" stroke-linejoin="round"/>
<path d="M116.3 82.6001C116.2 83.7001 115.8 84.5001 114.4 84.8001C114.4 84.8001 105 87.4001 101.7 87.4001C101 87.4001 99.7 87.4001 99.3 86.2001" stroke="#230802" stroke-width="1.4" stroke-miterlimit="10" stroke-linecap="round" stroke-linejoin="round"/>
<path d="M131.7 103C131 104.7 131.7 108.3 129 109" stroke="#230802" stroke-width="1.4" stroke-miterlimit="10" stroke-linecap="round" stroke-linejoin="round"/>
<path d="M166.7 91.8001C166.4 91.5001 165.7 91.4001 165.8 90.9001C165.9 90.5001 166.4 90.3001 166.9 90.1001C168.8 89.5001 170.7 89.7001 172.6 90.1001C173.1 90.2001 173.4 90.6001 173.6 91.0001C173.4 91.6001 172.9 91.7001 172.5 91.9001C171 92.4001 169.4 92.4001 168 92.1001C167 91.8001 166.1 92.1001 165.3 92.4001C155.1 95.9001 141.5 98.2001 133.8 105" stroke="#230802" stroke-width="1.4" stroke-miterlimit="10" stroke-linecap="round" stroke-linejoin="round"/>
<path d="M165.4 156.2C164.8 157.2 163.1 159 162.9 161.1" stroke="#230802" stroke-width="1.4" stroke-miterlimit="10" stroke-linecap="round" stroke-linejoin="round"/>
<path d="M154.5 156.5C155.2 157.5 157.2 159.9 157.4 161.9" stroke="#230802" stroke-width="1.4" stroke-miterlimit="10" stroke-linecap="round" stroke-linejoin="round"/>
<path d="M79.2 135.4C78.3 131.9 78.7 129.3 82 128C87.5 125.8 95.5 123.9 94.2 134.8" stroke="#230802" stroke-width="1.4" stroke-miterlimit="10" stroke-linecap="round" stroke-linejoin="round"/>
<path d="M93.6 130C91.5 133.7 82 134.7 79 131.5" stroke="#230802" stroke-width="1.4" stroke-miterlimit="10" stroke-linecap="round" stroke-linejoin="round"/>
<path d="M216.7 119.7C217.4 121.2 218.4 122.5 218.4 124.3" stroke="#230802" stroke-width="1.4" stroke-miterlimit="10" stroke-linecap="round" stroke-linejoin="round"/>
<path d="M57.9 101.2L59.3 104.8" stroke="#230802" stroke-width="1.4" stroke-miterlimit="10" stroke-linecap="round" stroke-linejoin="round"/>
<path d="M225.1 120.7C224.7 121.5 223.4 123.1 223.4 124.7" stroke="#230802" stroke-width="1.4" stroke-miterlimit="10" stroke-linecap="round" stroke-linejoin="round"/>
<path d="M68.8 107.8C67.9 110.3 64.6 121 64.8 122.5" stroke="#230802" stroke-width="1.4" stroke-miterlimit="10" stroke-linecap="round" stroke-linejoin="round"/>
<path d="M73.5001 103.9C62.4001 109.2 70.0001 118.6 78.7001 119C80.9001 119.2 83.6001 119.1 84.0001 121.7C84.2001 122.1 84.7001 122.4 85.0001 122.5C90.3001 123.6 103.2 120 100.8 129.6C99.0001 135.5 104.6 132.1 106.8 136.4C119.7 161.9 200.2 133.7 156.7 115.5C151.1 113.2 144.9 113.8 139.1 113.5L128.8 109.3C127 93.6 96.5001 94.8 86.0001 98.8C82.8001 100 76.6001 102.5 73.5001 103.9Z" stroke="#230802" stroke-width="1.4" stroke-miterlimit="10" stroke-linecap="round" stroke-linejoin="round"/>
<path d="M113.5 82.5C113.9 82.9 114.3 84.1 114.7 84.6" stroke="#230802" stroke-width="1.4" stroke-miterlimit="10" stroke-linecap="round" stroke-linejoin="round"/>
<path d="M84 121.8C81.7 126 76.3 125.3 74.7 124.2" stroke="#230802" stroke-width="1.4" stroke-miterlimit="10" stroke-linecap="round" stroke-linejoin="round"/>
<path d="M194.8 101.8C192.3 101.1 189 100.5 187.1 102.1C186.5 102.6 186.4 103.3 186.8 103.9C189 106.9 200.3 106.3 196.7 102.9C196.2 102.4 195.5 102 194.8 101.8Z" stroke="#230802" stroke-width="1.4" stroke-miterlimit="10" stroke-linecap="round" stroke-linejoin="round"/>
<path d="M197.2 101C197 100.5 196.5 100.5 196.1 100.3C194 99.6001 189.5 99.1001 187.3 99.6001C186.5 99.8001 185.7 100.1 184.9 100.4C183.4 101.1 182.8 102.7 184.6 104C185.7 104.8 186.9 105.3 188.1 105.7C191.1 106.6 194.2 106.7 197.3 106.2C198.3 106 199.3 105.6 200.1 104.9C200.5 104.5 200.8 103.9 200.6 103.5C200.1 102.2 199 101.5 197.8 101C197 100.7 196.4 101.5 195.8 102" stroke="#230802" stroke-width="1.4" stroke-miterlimit="10" stroke-linecap="round" stroke-linejoin="round"/>
<path d="M84 128C85.4 127.8 86.7 128.4 87.4 128.8C88.3 129.3 89.1 130 89.7 130.7" stroke="#230802" stroke-width="1.4" stroke-miterlimit="10" stroke-linecap="round" stroke-linejoin="round"/>
<path d="M83.7 131.1C84.1 130.7 84.1 130.7 84.6 130.3C86.1 129 88.2 127.8 90 127.7" stroke="#230802" stroke-width="1.4" stroke-miterlimit="10" stroke-linecap="round" stroke-linejoin="round"/>
<path d="M169.4 126.7L172.4 140.3" stroke="#230802" stroke-width="1.4" stroke-miterlimit="10" stroke-linecap="round" stroke-linejoin="round"/>
<path d="M215.1 40.8L202 77.3001" stroke="#005943" stroke-width="1.4" stroke-miterlimit="10" stroke-linecap="round"/>
<path d="M209.3 74C209.1 73.6 208.7 73.5 208.4 73.6C208.4 73.6 208.4 73.6 208.3 73.7L202.2 76.9L199.5 70.6C199.5 70.6 199.5 70.6 199.5 70.5C199.3 70.1 198.9 70 198.6 70.1C198.2 70.3 198.1 70.7 198.2 71L201.2 78C201.4 78.4 201.9 78.6 202.3 78.4L209 74.9C209.3 74.7 209.5 74.3 209.3 74Z" fill="#005943"/>
<path d="M100.4 131.5C99.1 135.8 93.6 134.9 92.1 134.3" stroke="#230802" stroke-width="1.4" stroke-miterlimit="10" stroke-linecap="round" stroke-linejoin="round"/>
<path d="M129.5 95.5001C125.9 93.9001 121.1 95.7001 117.3 94.1001C107.6 90.1001 98.6 96.7001 89.1 95.1001L80.2 92.4001" stroke="#230802" stroke-width="1.4" stroke-miterlimit="10" stroke-linecap="round" stroke-linejoin="round"/>
<path d="M41.1 153.8C42.4 153 43.6 152.1 44.9 151.4C54.2 145.7 63.6 140 73 134.8C75.1 135.8 77.3 135.9 79.6 136C83.1 136.1 86.3 135.1 89.7 134.6C90.1 134.5 90.9 134.4 91.5 134.4C92 134.3 92.4 134.6 92.5 135.1C98.9 153.6 126 154.4 142.5 152.8C155 151.7 169.3 145.6 177.1 135.9C177.3 135.6 177.8 135 178 134.7C180.3 131.6 181.4 128.1 181.1 124.7C180.3 116.5 170.2 109.3 157.5 106.9C154.7 106.4 149.1 105.5 146.3 105.2C144.2 105 142.1 104.9 140.1 105.1C139.1 105.2 137.3 105.7 136.3 105.8C135.1 105.8 132.6 105.5 131.9 104.4C131.5 103.8 131.8 102.9 131.9 102.2C132 101.7 132.1 101 132 100.5C131.6 91.5 112.8 88.9 92.7 93.6C91.4 93.9 88.8 94.5 87.5 94.9C82.7 96.2 79.1 98.1 75 99.7C70.2 101.5 52.7 109.2 59.2 119.1C62.7 123.2 67 123.6 71.9 124.1C71.9 124.1 74.1 124.1 74.6 124.5C74.8 124.6 74.2 125.2 74.2 125.2C73.6 126.3 72.9 127.4 72.1 128.4C71.4 129.3 70.9 130.4 70.9 131.7C70.9 132.7 71.4 133.7 72.2 134.4C72.4 134.6 72.6 134.8 72.8 135" stroke="#230802" stroke-width="1.4" stroke-miterlimit="10" stroke-linecap="round" stroke-linejoin="round"/>
</g>
<defs>
<clipPath id="clip0_9_7272">
<rect width="252" height="252" fill="white"/>
</clipPath>
</defs>
</svg>
