<svg width="252" height="252" viewBox="0 0 252 252" fill="none" xmlns="http://www.w3.org/2000/svg">
<path fill-rule="evenodd" clip-rule="evenodd" d="M178.7 136C190.9 128.7 195.6 113.2 188.8 100C181.9 86.4 165.6 80.8 152.4 87.4L152.1 87.5C149.8 88.6 147.1 87.6 145.9 85.4C144.8 83 145.6 80.3 147.8 79.2L200.2 53C213.4 46.4 218.5 30 211.5 16.4C204.8 3.20001 188.6 -2.59999 175.4 4.00001L55.6998 64C42.4998 70.5 37.3998 86.9 44.3998 100.5C51.2998 114.1 67.5998 119.7 80.7998 113.2L79.4998 113.8C81.7998 112.7 84.4998 113.7 85.6998 115.9C86.7998 118.3 85.9998 121 83.7998 122.1L32.9998 147.6C19.7998 154.2 14.6998 170.6 21.6998 184.1C28.5998 197.7 44.8998 203.3 58.0998 196.7L68.7998 191.3C71.0998 190.2 73.7998 191.2 74.9998 193.4C76.0998 195.8 75.9998 198.1 73.1998 199.5C61.3998 205.5 55.9998 222 62.8998 235.5C69.7998 249.1 86.0998 254.7 99.2998 248.1L219 188.1C232.2 181.5 237.3 165.1 230.3 151.5C223.4 137.9 207.1 132.3 193.9 138.9L182.2 144.8C179.9 145.9 177.2 144.9 176 142.7C174.9 140.3 175.8 137.6 177.9 136.4C178.1 136.4 178.5 136.1 178.7 136Z" fill="#F0EBE6"/>
<path d="M225.4 222.5C222.1 222.5 219.4 219.9 219.4 216.5C219.4 216.4 219.3 216.2 219.1 216.2C219 216.2 218.8 216.3 218.8 216.5C218.8 219.8 216.2 222.5 212.8 222.5C212.7 222.5 212.5 222.6 212.5 222.8C212.5 222.9 212.6 223.1 212.8 223.1C216.1 223.1 218.8 225.7 218.8 229.1C218.8 229.2 218.9 229.4 219.1 229.4C219.2 229.4 219.4 229.3 219.4 229.1C219.4 225.8 222 223.1 225.4 223.1C225.5 223.1 225.7 223 225.7 222.8C225.7 222.7 225.6 222.5 225.4 222.5Z" fill="#F2A85A"/>
<path d="M205 212.5C203.3 212.5 201.7 211 201.7 209.2C201.7 209.1 201.7 209.1 201.6 209.1C201.5 209.1 201.5 209.1 201.5 209.2C201.5 210.9 200 212.5 198.2 212.5C198.1 212.5 198.1 212.5 198.1 212.6C198.1 212.7 198.1 212.7 198.2 212.7C199.9 212.7 201.5 214.2 201.5 216C201.5 216.1 201.5 216.1 201.6 216.1C201.7 216.1 201.7 216.1 201.7 216C201.7 214.3 203.2 212.7 205 212.7C205.1 212.8 205.1 212.8 205 212.5C205.1 212.7 205.1 212.5 205 212.5Z" fill="#F2A85A"/>
<path d="M39.5997 107.5C36.2997 107.5 33.5997 104.9 33.5997 101.5C33.5997 101.4 33.4997 101.2 33.2997 101.2C33.1997 101.3 32.9997 101.3 32.9997 101.5C32.9997 104.8 30.3997 107.5 26.9997 107.5C26.8997 107.5 26.6997 107.6 26.6997 107.8C26.6997 108 26.7997 108.1 26.9997 108.1C30.2997 108.1 32.9997 110.7 32.9997 114.1C32.9997 114.2 33.0997 114.4 33.2997 114.4C33.3997 114.4 33.5997 114.3 33.5997 114.1C33.5997 110.8 36.1997 108.1 39.5997 108.1C39.6997 108.1 39.8997 108 39.8997 107.8C39.8997 107.6 39.6997 107.5 39.5997 107.5Z" fill="#F2A85A"/>
<path d="M87.3998 99.8C60.7998 121.6 49.7998 131.6 46.4998 139.5C43.1998 147.4 45.9998 152.3 49.0998 157.2C52.2998 162.1 55.7998 166.5 59.3998 169C62.6998 171.3 102.4 194.4 108.9 198C115.4 201.6 130.8 216.3 153.3 198C175.8 179.7 216.7 139.8 220.4 135.4C224.1 131 226.8 127.9 227.8 119.1C228.2 116 229.2 113.1 229.3 110.4C229.4 105.6 227.8 101.9 226.3 99.3C223.8 95.1 212.8 88 212.8 88L209.4 90.6C209.4 90.6 208.8 90.3 203.7 88.1C203.2 87.9 200 90.8 199.5 90.6C197.3 89.7 191.3 87.5 188.8 86.4C187.9 86 186.7 80.7 185.8 80.4C177.3 76.8 172.1 74.5 167.1 72.6C152.8 66.9 135.5 69.4 122.7 76.5C121.6 77.1 120.1 80.2 119 80.8C116.7 82.1 108.1 87.3 105.9 88.7C103.3 90.3 105.3 87 102.8 88.6C95.9998 93.1 91.9998 96.1 87.3998 99.8Z" fill="#F6E4D9"/>
<path d="M104.1 189C104.1 189 62.8998 164.9 55.3998 160.4C51.1998 157.8 46.8998 155.3 45.2998 149L46.4998 139.7C49.7998 131.8 60.6998 121.8 87.3998 100C91.8998 96.3 97.2998 92.4 104.1 88.1C104.5 87.8 106 89 106 89L119.1 81.1C119.4 80.5 120.2 78.1 120.2 78.1C133.1 70.9 152.9 67.2 167.2 72.9C172 74.8 177.7 77.2 185.9 80.7C188 81.6 187.8 85.7 189.1 86.4C190.1 86.9 199.5 90.9 199.5 90.9L203.7 88.4C208.7 90.6 209.4 90.9 209.4 90.9L212.8 88.3C212.8 88.3 223.8 95.3 226.3 99.6C227.9 102.3 229.4 105.9 229.3 110.7L229.2 112.2C225.7 120.9 206.3 137.8 197.2 146.4C188.1 155 157.9 183.1 146.3 190.8C131 201 114.3 195.8 104.9 188.8" fill="#FAFAFA"/>
<path d="M89.1996 160.2C89.9996 157.1 92.2996 147.7 92.2996 147.7C82.6996 144.7 75.7996 138.7 73.9996 130.8C70.5996 115.9 86.5996 99.5 109.6 94.3C132.6 89.1 154.1 96.9 157.5 111.9C160.9 126.8 144.5 143.3 121.4 148.5C121.4 148.5 119 158.1 117.9 161.1C111.6 178.4 85.3996 175.9 89.1996 160.2Z" fill="#F0EBE6"/>
<path d="M92.9998 158.8C93.6998 156.1 95.6998 147.9 95.6998 147.9C87.3998 145.2 81.2998 140.1 79.6998 133.1C76.6998 120 90.6998 105.8 110.8 101.2C131 96.5999 149.7 103.5 152.7 116.6C155.7 129.7 141.3 144 121.1 148.6C121.1 148.6 119 157 118 159.7C112.6 174.6 89.6998 172.5 92.9998 158.8Z" fill="#FAFAFA"/>
<path d="M96.8999 156.5C96.2999 153.2 99.2999 149.7 103.9 148.7C108.5 147.7 112.8 149.5 113.5 152.9C113.6 153.7 113.9 155.2 114 155.9C114.7 159.3 111.5 162.9 106.8 163.9C102.1 164.9 98.0999 163 97.3999 159.6C97.1999 158.8 96.9999 157.2 96.8999 156.5Z" fill="#AFA5A3"/>
<path d="M58.6997 162.3C58.6997 162.3 61.9997 158.7 63.7997 157.2C65.5997 155.7 67.5997 153.6 70.2997 155.2C72.9997 156.8 77.9997 159.6 77.9997 159.6L78.8997 159.2C76.4997 161.9 72.4997 165.7 71.8997 166.8C71.1997 168.1 71.5997 169.5 71.5997 169.5L58.6997 162.3Z" fill="#AFA5A3"/>
<path d="M110.9 90.5C114.3 90.7 117.1 89.5 119.3 88.1L121.9 86.5C123.5 85.5 122.8 83.6 121.7 82.7C120.9 82.1 120.6 81.8 119.2 81L105.6 89.2C105.4 89.1 107.5 90.3 110.9 90.5Z" fill="#AFA5A3"/>
<path d="M183.4 88.5C183.4 88.5 184.6 87.6 185.7 86.9C186.7 86.2 187.5 85.4 189 86.2C190.5 87 198.4 90.9 198.4 90.9C198.4 90.9 191.9 91.7 189.8 91.3C188.1 91 183.4 88.5 183.4 88.5Z" fill="#AFA5A3"/>
<path d="M170.8 99.4C173.561 99.4 175.8 98.1912 175.8 96.7C175.8 95.2088 173.561 94 170.8 94C168.038 94 165.8 95.2088 165.8 96.7C165.8 98.1912 168.038 99.4 170.8 99.4Z" fill="#F2A85A"/>
<path d="M111.5 199.6C108.6 195.9 106 193 105.2 190.8C104.4 188.5 103.7 184.9 104.3 183.5C104.9 182.1 132.2 152.5 154.7 133.5C177.2 114.5 198 97.5001 209.5 90.7001" stroke="#230802" stroke-width="1.4" stroke-miterlimit="10" stroke-linecap="round" stroke-linejoin="round"/>
<path d="M104.2 184.1C113.6 191.1 130.3 196.3 145.6 186.1C157.2 178.4 187.4 150.2 196.5 141.7C205.6 133.1 232.9 111.2 227.9 102.6" stroke="#230802" stroke-width="1.4" stroke-miterlimit="10" stroke-linecap="round" stroke-linejoin="round"/>
<path d="M104.1 189C104.1 189 62.8998 164.9 55.3998 160.4C51.1998 157.8 46.8998 155.3 45.2998 149" stroke="#230802" stroke-width="1.4" stroke-miterlimit="10" stroke-linecap="round" stroke-linejoin="round"/>
<path d="M96.8999 156.5C96.2999 153.2 99.2999 149.7 103.9 148.7C108.5 147.7 112.8 149.5 113.5 152.9C113.6 153.7 113.9 155.2 114 155.9C114.7 159.3 111.5 162.9 106.8 163.9C102.1 164.9 98.0999 163 97.3999 159.6C97.1999 158.8 96.9999 157.2 96.8999 156.5Z" stroke="#230802" stroke-width="1.4" stroke-miterlimit="10" stroke-linecap="round" stroke-linejoin="round"/>
<path d="M101.6 152.1C104.6 152.4 104.9 152.2 107.7 153.7" stroke="#230802" stroke-width="1.4" stroke-miterlimit="10" stroke-linecap="round" stroke-linejoin="round"/>
<path d="M102.5 154.7L107 151" stroke="#230802" stroke-width="1.4" stroke-miterlimit="10" stroke-linecap="round" stroke-linejoin="round"/>
<path d="M152.4 93.3001L159.9 96.8001C160.5 97.1001 161 97.7001 161.2 98.3001C162.2 101.2 166.5 103.3 171.6 103C177.2 102.7 181.7 99.6001 181.5 96.2001C181.3 92.7001 176.6 90.2001 170.9 90.5001C170.6 90.5001 170.1 90.6001 169.7 90.7001C169 90.8001 168.4 90.7001 167.8 90.5001L160.9 87.7001" stroke="#230802" stroke-width="1.4" stroke-miterlimit="10" stroke-linecap="round" stroke-linejoin="round"/>
<path d="M170.8 99.4C173.561 99.4 175.8 98.1912 175.8 96.7C175.8 95.2088 173.561 94 170.8 94C168.038 94 165.8 95.2088 165.8 96.7C165.8 98.1912 168.038 99.4 170.8 99.4Z" stroke="#230802" stroke-width="1.4" stroke-miterlimit="10" stroke-linecap="round" stroke-linejoin="round"/>
<path d="M55.6997 160C55.8997 156.9 58.0997 155.1 58.0997 155.1C58.0997 155.1 62.3997 151.5 63.6997 150.4C64.9997 149.3 68.2997 148.2 70.4997 149.3C72.6997 150.4 76.3997 152.4 77.5997 152.9C78.7997 153.4 81.3997 156.5 78.9997 159.2C76.5997 161.9 72.5997 165.7 71.9997 166.8C71.2997 168.1 71.6997 169.5 71.6997 169.5" stroke="#230802" stroke-width="1.4" stroke-miterlimit="10" stroke-linecap="round" stroke-linejoin="round"/>
<path d="M154.7 69.7C143.6 68.7 132.1 71.4 122.8 76.6C122.2 77 121.5 77.3 120.8 77.7L126.1 80.4C128 81.4 127.2 82.9 125.1 84.4C123 85.9 121.4 86.8 119.3 88.2C117.1 89.6 114.3 90.8 110.9 90.6C107.5 90.4 104.4 88.7 104.4 88.7L103.6 88.3C101.8 89.5 100.5 90.3 98.7998 91.5C94.2998 94.8 85.3998 101.6 81.0998 105.1C58.6998 123 49.4998 132.4 46.4998 139.7C43.1998 147.6 45.9998 152.5 49.0998 157.4C52.2998 162.3 55.7998 166.7 59.3998 169.2C62.6998 171.5 102.4 194.6 108.9 198.2C115.4 201.8 130.8 216.5 153.3 198.2C171 183.8 200 156.1 213.4 142.8" stroke="#230802" stroke-width="1.4" stroke-miterlimit="10" stroke-linecap="round" stroke-linejoin="round"/>
<path d="M104.9 188.6C114.3 195.6 131 200.8 146.3 190.6C157.9 182.9 188.1 154.7 197.2 146.2C206.3 137.6 227.3 119.7 229.2 112C229.3 111.6 229.3 110.9 229.3 110.5C229.5 105.7 227.8 102 226.3 99.4C223.8 95.2 212.8 88.1 212.8 88.1L209.4 90.7C209.4 90.7 207.6 89.9 203.7 88.2L199.5 90.7C197.6 89.9 189 86.9 188.3 85.5C187.8 84.6 187.1 81 185.9 80.5C184.4 79.9 183 79.2 181.5 78.6" stroke="#230802" stroke-width="1.4" stroke-miterlimit="10" stroke-linecap="round" stroke-linejoin="round"/>
<path d="M185.2 80.2001C185.2 80.2001 182 82.8001 181 83.6001C180 84.4001 179.1 86.1001 180.6 87.0001C182.1 87.9001 188.7 90.9001 190.6 91.5001C192.5 92.1001 195.8 92.4001 197.8 91.5001C199.8 90.6001 203.7 88.1001 203.7 88.1001" stroke="#230802" stroke-width="1.4" stroke-miterlimit="10" stroke-linecap="round" stroke-linejoin="round"/>
<path d="M96.8999 156C97.3999 159.6 102.9 159.7 105.4 158.7" stroke="#230802" stroke-width="1.4" stroke-miterlimit="10" stroke-linecap="round" stroke-linejoin="round"/>
<path d="M152.8 116.5C149.8 103.4 131.1 96.6 110.9 101.1C110.1 101.3 109.4 101.5 108.6 101.7C108.4 101.8 108.2 101.8 107.9 101.9C107.3 102.1 106.8 102.2 106.2 102.4C106 102.5 105.8 102.5 105.6 102.6C104.9 102.8 104.2 103.1 103.5 103.3C103.4 103.3 103.3 103.4 103.2 103.4C102.6 103.6 102 103.9 101.4 104.1C101.3 104.1 101.2 104.2 101.1 104.2C93.6997 107.3 87.6997 111.9 83.8997 116.9C83.8997 116.9 83.8997 117 83.7997 117C83.3997 117.5 82.9997 118.1 82.6997 118.7C82.5997 118.8 82.5997 118.9 82.4997 119C82.0997 119.6 81.7997 120.1 81.4997 120.7C81.4997 120.7 81.4997 120.8 81.3997 120.8C81.0997 121.4 80.8997 121.9 80.5997 122.5C80.5997 122.6 80.4997 122.7 80.4997 122.8C80.2997 123.4 80.0997 124 79.8997 124.6C79.8997 124.7 79.7997 124.8 79.7997 125C79.5997 125.6 79.4997 126.2 79.3997 126.8V126.9C79.2997 127.5 79.2997 128.1 79.1997 128.7C79.1997 128.8 79.1997 128.9 79.1997 129C79.1997 129.6 79.1997 130.2 79.2997 130.8C79.2997 130.9 79.2997 131 79.2997 131.2C79.3997 131.8 79.4997 132.4 79.5997 133C81.1997 139.9 87.1997 145.1 95.5997 147.8C95.5997 147.8 93.5997 156 92.8997 158.7C89.5997 172.4 112.4 174.6 118 159.5C119 156.8 121.1 148.4 121.1 148.4C141.4 143.9 155.7 129.5 152.8 116.5Z" stroke="#230802" stroke-width="1.4" stroke-miterlimit="10" stroke-linecap="round" stroke-linejoin="round"/>
<path d="M157.5 111.9C154.1 97 132.7 89.1 109.6 94.3C108.8 94.5 108 94.7 107.3 94.9C107.1 95 106.8 95 106.6 95.1C106.1 95.2 105.6 95.4 105.1 95.5C104.8 95.6 104.5 95.7 104.2 95.8C103.7 95.9 103.3 96.1 102.8 96.3C102.5 96.4 102.2 96.5 101.9 96.6C101.4 96.8 101 96.9 100.5 97.1C100.3 97.2 100.1 97.2 99.9996 97.3C92.8996 100.1 86.7996 104.1 82.2996 108.6C82.1996 108.7 82.1996 108.7 82.0996 108.8C81.8996 109 81.6996 109.2 81.4996 109.4C81.2996 109.6 81.0996 109.8 80.8996 110C80.6996 110.2 80.4996 110.4 80.2996 110.7C80.0996 110.9 79.8996 111.1 79.7996 111.3C79.5996 111.5 79.3996 111.8 79.2996 112C79.0996 112.2 78.9996 112.4 78.7996 112.6C78.5996 112.8 78.4996 113.1 78.2996 113.3C78.0996 113.5 77.9996 113.7 77.8996 113.9C77.6996 114.1 77.5996 114.4 77.4996 114.6C77.3996 114.8 77.1996 115 77.0996 115.3C76.9996 115.5 76.7996 115.8 76.6996 116C76.5996 116.2 76.4996 116.4 76.2996 116.7C76.1996 116.9 76.0996 117.2 75.8996 117.4C75.7996 117.6 75.6996 117.8 75.5996 118.1C75.4996 118.3 75.3996 118.6 75.2996 118.8C75.1996 119 75.0996 119.2 74.9996 119.5C74.8996 119.7 74.7996 120 74.6996 120.3C74.5996 120.5 74.4996 120.7 74.4996 121C74.3996 121.3 74.3996 121.5 74.2996 121.8C74.1996 122 74.1996 122.2 74.0996 122.5C73.9996 122.8 73.9996 123 73.8996 123.3C73.8996 123.5 73.7996 123.7 73.7996 123.9C73.7996 124.2 73.6996 124.4 73.6996 124.7C73.6996 124.9 73.5996 125.1 73.5996 125.3C73.5996 125.6 73.5996 125.8 73.5996 126.1C73.5996 126.3 73.5996 126.5 73.5996 126.7C73.5996 127 73.5996 127.3 73.5996 127.5C73.5996 127.7 73.5996 127.9 73.5996 128.1C73.5996 128.4 73.6996 128.7 73.6996 129.1C73.6996 129.3 73.6996 129.4 73.6996 129.6C73.7996 130.1 73.8996 130.5 73.9996 131C75.7996 138.9 82.6996 144.9 92.2996 147.9C92.2996 147.9 89.9996 157.2 89.1996 160.4C85.3996 176.1 111.6 178.6 117.9 161.3C119 158.2 121.4 148.7 121.4 148.7C144.5 143.2 160.9 126.8 157.5 111.9Z" stroke="#230802" stroke-width="1.4" stroke-miterlimit="10" stroke-linecap="round" stroke-linejoin="round"/>
<path d="M170.8 39.9V83.2" stroke="#005943" stroke-width="1.4" stroke-miterlimit="10" stroke-linecap="round"/>
<path d="M164.1 73.7C164.4 73.5 164.9 73.6 165.1 73.9L170.9 82.9L176.7 73.9C176.9 73.6 177.3 73.5 177.7 73.7C178 73.9 178.1 74.3 177.9 74.7L171.6 84.7C171.5 84.9 171.2 85 171 85C170.8 85 170.5 84.9 170.4 84.7L164.1 74.7C164 74.6 164 74.5 164 74.3C163.8 74 163.9 73.8 164.1 73.7Z" fill="#005943"/>
</svg>
