<?xml version="1.0" standalone="no"?>
<svg version="1.0" xmlns="http://www.w3.org/2000/svg"
 width="960.000000pt" height="960.000000pt" viewBox="0 0 960.000000 960.000000"
 preserveAspectRatio="xMidYMid meet">

<g transform="translate(0.000000,960.000000) scale(0.100000,-0.100000)"
fill="#000000" stroke="#000000" stroke-width="50">
<path d="M8220 8320 c-10 -14 -26 -20 -50 -20 -24 0 -40 -6 -50 -19 -7 -11
-31 -23 -52 -26 -23 -4 -38 -12 -38 -21 0 -8 -19 -34 -42 -58 -24 -24 -50 -53
-58 -65 -8 -11 -21 -21 -28 -21 -8 0 -27 -13 -42 -30 -15 -16 -33 -30 -40 -30
-7 0 -25 -13 -40 -30 -15 -16 -35 -30 -44 -30 -9 0 -16 -4 -16 -10 0 -5 -9
-10 -19 -10 -11 0 -26 -7 -35 -15 -8 -8 -19 -15 -25 -15 -6 0 -11 -4 -11 -10
0 -5 -9 -10 -20 -10 -11 0 -20 5 -20 10 0 6 -22 10 -50 10 -27 0 -50 4 -50 9
0 5 -27 12 -60 16 -33 4 -60 11 -60 16 0 5 -11 9 -25 9 -14 0 -25 5 -25 10 0
6 -13 10 -30 10 -16 0 -30 5 -30 10 0 6 -22 10 -50 10 -27 0 -50 5 -50 10 0 6
-18 10 -40 10 -22 0 -40 5 -40 10 0 6 -73 10 -200 10 -127 0 -200 -4 -200 -10
0 -5 -13 -10 -30 -10 -16 0 -30 -4 -30 -10 0 -5 -18 -10 -40 -10 -22 0 -40 -4
-40 -10 0 -5 -9 -10 -20 -10 -11 0 -20 -4 -20 -10 0 -5 -11 -10 -25 -10 -14 0
-25 -4 -25 -10 0 -5 -13 -10 -29 -10 -16 0 -36 -7 -45 -15 -8 -8 -26 -15 -40
-15 -14 0 -26 -4 -26 -10 0 -5 -8 -10 -18 -10 -10 0 -24 -9 -32 -20 -8 -11
-22 -20 -32 -20 -10 0 -18 -4 -18 -10 0 -5 -9 -10 -20 -10 -11 0 -20 -4 -20
-10 0 -5 -6 -10 -13 -10 -7 0 -19 -9 -27 -20 -8 -11 -21 -20 -30 -20 -9 0 -22
-9 -30 -20 -8 -12 -26 -20 -42 -20 -15 0 -28 -4 -28 -10 0 -5 -8 -10 -18 -10
-10 0 -24 -9 -32 -20 -8 -11 -22 -20 -32 -20 -10 0 -18 -4 -18 -10 0 -5 -11
-12 -25 -16 -14 -3 -25 -10 -25 -15 0 -5 -8 -9 -18 -9 -10 0 -24 -9 -32 -20
-8 -11 -21 -20 -30 -20 -9 0 -22 -9 -30 -20 -8 -11 -21 -20 -30 -20 -9 0 -22
-9 -30 -20 -8 -11 -21 -20 -30 -20 -9 0 -22 -9 -30 -20 -8 -11 -21 -20 -30
-20 -9 0 -22 -9 -30 -20 -8 -11 -20 -20 -27 -20 -7 0 -13 -4 -13 -10 0 -5 -8
-10 -18 -10 -10 0 -24 -9 -32 -20 -8 -11 -22 -20 -32 -20 -10 0 -18 -4 -18
-10 0 -5 -9 -10 -19 -10 -11 0 -26 -7 -35 -15 -8 -8 -21 -15 -28 -15 -8 0 -20
-9 -28 -20 -8 -11 -22 -20 -32 -20 -10 0 -18 -4 -18 -10 0 -5 -6 -10 -13 -10
-7 0 -19 -9 -27 -20 -8 -11 -21 -20 -30 -20 -9 0 -22 -9 -30 -20 -8 -11 -21
-20 -30 -20 -9 0 -22 -9 -30 -20 -8 -11 -21 -20 -30 -20 -9 0 -22 -9 -30 -20
-8 -11 -21 -20 -29 -20 -7 0 -21 -8 -30 -19 -9 -10 -26 -21 -38 -25 -13 -4
-23 -12 -23 -17 0 -5 -7 -9 -16 -9 -9 0 -29 -13 -44 -30 -15 -16 -35 -30 -44
-30 -9 0 -16 -4 -16 -10 0 -5 -7 -10 -16 -10 -9 0 -29 -13 -44 -30 -15 -16
-34 -30 -40 -30 -14 0 -50 -38 -50 -52 0 -4 -9 -8 -20 -8 -11 0 -20 -4 -20
-10 0 -5 -7 -10 -16 -10 -9 0 -29 -13 -44 -30 -15 -16 -35 -30 -44 -30 -8 0
-26 -11 -40 -25 -14 -14 -32 -25 -41 -25 -8 0 -15 -4 -15 -10 0 -5 -7 -10 -16
-10 -17 0 -54 -36 -54 -52 0 -4 -7 -8 -16 -8 -9 0 -29 -13 -44 -30 -15 -16
-33 -30 -40 -30 -7 0 -25 -13 -40 -30 -15 -16 -33 -30 -39 -30 -7 0 -23 -11
-37 -25 -14 -14 -34 -25 -44 -25 -11 0 -20 -4 -20 -8 0 -14 -36 -52 -49 -52
-7 0 -30 -18 -51 -40 -21 -22 -44 -40 -50 -40 -7 0 -25 -13 -40 -30 -15 -16
-33 -30 -40 -30 -7 0 -25 -13 -40 -30 -15 -16 -31 -30 -34 -30 -4 0 -18 -10
-31 -22 -42 -39 -54 -48 -67 -48 -8 0 -20 -9 -28 -20 -8 -11 -20 -20 -28 -20
-7 0 -35 -22 -62 -50 -27 -27 -56 -50 -64 -50 -9 0 -16 -4 -16 -8 0 -14 -36
-52 -49 -52 -6 0 -27 -16 -47 -35 -19 -19 -42 -35 -50 -35 -9 0 -33 -18 -54
-40 -21 -22 -44 -40 -50 -40 -7 0 -25 -13 -40 -30 -15 -16 -31 -30 -35 -30 -3
0 -33 -27 -65 -60 -32 -33 -64 -60 -70 -60 -6 0 -22 -10 -35 -22 -42 -40 -54
-48 -70 -48 -8 0 -15 -9 -15 -20 0 -11 -5 -20 -11 -20 -6 0 -24 -13 -39 -30
-15 -16 -33 -30 -40 -30 -6 0 -33 -22 -60 -50 -27 -27 -54 -50 -60 -50 -6 0
-26 -15 -45 -32 -44 -43 -63 -58 -70 -58 -3 0 -37 -31 -75 -70 -38 -38 -74
-70 -80 -70 -6 0 -42 -31 -80 -70 -38 -38 -74 -70 -79 -70 -6 0 -40 -29 -76
-65 -35 -36 -69 -65 -75 -65 -16 0 -60 -47 -60 -65 0 -8 -7 -15 -16 -15 -9 0
-29 -15 -45 -32 -16 -18 -33 -37 -38 -42 -42 -41 -62 -56 -71 -56 -11 0 -182
-170 -230 -229 -14 -17 -32 -31 -41 -31 -22 0 -59 -34 -59 -54 0 -9 -7 -16
-15 -16 -9 0 -52 -37 -95 -82 -119 -123 -135 -140 -179 -178 -22 -19 -40 -43
-41 -52 0 -11 -8 -18 -20 -18 -13 0 -20 -7 -20 -18 0 -10 -9 -24 -20 -32 -11
-8 -20 -22 -20 -32 0 -10 -4 -18 -10 -18 -5 0 -10 -9 -10 -20 0 -11 -4 -20
-10 -20 -5 0 -10 -9 -10 -20 0 -11 -4 -20 -10 -20 -5 0 -10 -11 -10 -25 0 -14
5 -25 10 -25 6 0 10 -9 10 -20 0 -11 5 -20 10 -20 6 0 10 -13 10 -29 0 -16 6
-32 13 -34 9 -4 8 -8 -3 -17 -11 -9 -12 -13 -2 -17 6 -2 12 -13 12 -24 0 -10
5 -19 10 -19 6 0 10 -9 10 -20 0 -11 5 -20 10 -20 6 0 10 -16 10 -35 0 -19 5
-35 10 -35 6 0 10 -9 10 -20 0 -11 5 -20 10 -20 6 0 10 -9 10 -19 0 -11 6 -22
13 -24 9 -4 8 -8 -3 -17 -11 -9 -12 -13 -2 -17 6 -2 12 -12 12 -22 0 -9 9 -23
20 -31 12 -8 20 -26 20 -42 0 -15 5 -28 10 -28 6 0 10 -9 10 -20 0 -11 5 -20
10 -20 6 0 10 -11 10 -25 0 -14 5 -25 10 -25 6 0 10 -9 10 -20 0 -11 4 -20 9
-20 5 0 12 -27 16 -60 4 -33 11 -60 16 -60 5 0 9 -9 9 -20 0 -11 5 -20 10 -20
6 0 10 -16 10 -35 0 -19 5 -35 10 -35 6 0 10 -9 10 -20 0 -11 5 -20 10 -20 6
0 10 -13 10 -30 0 -16 5 -30 10 -30 6 0 10 -13 10 -30 0 -16 5 -30 10 -30 6 0
10 -13 10 -30 0 -16 5 -30 10 -30 6 0 10 -13 10 -30 0 -16 5 -30 10 -30 6 0
10 -7 10 -15 0 -8 5 -15 10 -15 6 0 10 -13 10 -30 0 -16 5 -30 10 -30 6 0 10
-13 10 -30 0 -16 5 -30 10 -30 6 0 10 -9 10 -20 0 -11 5 -20 10 -20 6 0 10
-25 10 -55 0 -30 5 -55 10 -55 6 0 10 -13 10 -30 0 -16 5 -30 10 -30 6 0 10
-9 10 -19 0 -11 6 -22 13 -24 9 -4 8 -8 -3 -16 -11 -8 -12 -13 -3 -19 6 -4 14
-24 18 -45 4 -20 11 -37 16 -37 5 0 9 -13 9 -30 0 -16 5 -30 10 -30 6 0 10 -7
10 -15 0 -8 5 -15 10 -15 6 0 10 -8 10 -18 0 -10 9 -24 20 -32 11 -8 20 -20
20 -28 0 -17 45 -62 62 -62 8 0 20 -9 28 -20 8 -11 21 -20 28 -20 8 0 27 -13
42 -30 15 -16 33 -30 39 -30 6 0 11 -4 11 -10 0 -5 9 -10 20 -10 11 0 20 -7
20 -15 0 -8 8 -15 18 -15 10 0 24 -9 32 -20 8 -11 21 -20 28 -20 7 0 31 -18
52 -40 21 -22 46 -40 54 -40 9 0 16 -4 16 -10 0 -5 9 -10 20 -10 11 0 20 -4
20 -9 0 -16 58 -71 74 -71 9 0 16 -4 16 -10 0 -5 7 -10 16 -10 9 0 28 -13 43
-29 16 -17 43 -32 64 -36 20 -4 37 -11 37 -16 0 -5 11 -9 25 -9 14 0 25 -4 25
-10 0 -6 37 -10 90 -10 53 0 90 4 90 10 0 6 23 10 50 10 28 0 50 4 50 10 0 5
16 12 35 16 19 3 35 10 35 15 0 5 8 9 18 9 10 0 24 9 32 20 8 11 20 20 28 20
7 0 40 27 72 60 32 33 66 60 74 60 9 0 16 5 16 10 0 6 5 10 10 10 10 0 33 21
185 168 35 34 71 62 80 62 8 0 15 9 15 20 0 11 5 20 10 20 6 0 39 28 75 63
116 111 134 127 150 127 8 0 15 9 15 20 0 13 7 20 18 20 10 0 24 10 32 21 30
43 170 179 184 179 15 0 99 81 176 169 19 22 41 40 48 41 7 0 33 19 57 43 126
119 155 148 155 157 0 6 7 10 15 10 8 0 58 42 109 93 115 112 121 117 141 117
8 0 15 9 15 20 0 11 5 20 10 20 6 0 42 32 80 70 38 39 74 70 80 70 9 0 50 36
121 106 11 11 41 43 68 72 28 28 55 52 60 52 6 0 49 37 96 83 98 96 111 107
125 107 5 0 10 7 10 15 0 17 104 125 120 125 6 0 53 43 105 95 52 52 102 95
110 95 8 0 15 9 15 20 0 13 7 20 20 20 13 0 20 7 20 20 0 11 7 20 15 20 9 0
51 36 95 80 44 44 84 80 90 80 5 0 10 7 10 15 0 8 9 15 20 15 13 0 20 7 20 20
0 11 7 20 15 20 9 0 60 45 115 100 55 55 104 100 110 100 5 0 10 7 10 15 0 8
7 15 15 15 9 0 56 41 105 90 49 50 96 90 105 90 8 0 15 7 15 16 0 15 23 44 35
44 6 0 39 30 140 128 36 34 71 62 80 62 8 0 15 9 15 20 0 13 7 20 20 20 13 0
20 7 20 20 0 11 5 20 10 20 10 0 31 18 155 138 30 28 61 52 70 52 8 0 15 9 15
20 0 12 7 20 18 20 9 0 28 14 42 31 53 64 131 139 146 139 14 0 107 91 214
209 25 28 51 50 58 50 7 1 19 7 26 14 8 6 23 19 35 27 11 8 21 22 21 32 0 10
7 18 16 18 15 0 94 76 124 119 8 11 22 21 32 21 11 0 18 7 18 20 0 13 7 20 20
20 13 0 20 7 20 20 0 13 7 20 20 20 11 0 20 5 20 11 0 6 14 24 30 39 17 15 30
35 30 44 0 9 5 16 10 16 6 0 10 9 10 20 0 11 5 20 10 20 6 0 10 9 10 20 0 11
5 20 10 20 6 0 10 38 10 95 0 57 -4 95 -10 95 -6 0 -10 37 -10 90 0 53 -4 90
-10 90 -6 0 -10 28 -10 65 0 37 -4 65 -10 65 -6 0 -10 37 -10 90 0 53 -4 90
-10 90 -5 0 -10 20 -10 45 0 25 -4 45 -10 45 -6 0 -10 47 -10 120 0 73 -4 120
-10 120 -5 0 -10 11 -10 25 0 14 5 25 10 25 6 0 10 13 10 28 0 16 8 34 20 42
11 8 20 20 20 28 0 18 46 62 64 62 8 0 17 8 21 18 3 9 24 33 46 52 22 19 69
63 104 98 36 34 70 62 77 62 7 1 29 19 48 41 81 92 142 149 160 149 13 0 20 7
20 20 0 11 7 20 15 20 18 0 85 64 85 81 0 6 10 20 22 31 21 18 22 27 23 155 0
100 -3 137 -13 141 -6 2 -12 12 -12 23 0 10 -4 19 -10 19 -5 0 -10 9 -10 20 0
11 -4 20 -10 20 -5 0 -10 7 -10 16 0 17 -36 54 -52 54 -4 0 -8 9 -8 20 0 13
-7 20 -20 20 -11 0 -20 5 -20 10 0 6 -18 10 -40 10 -22 0 -40 5 -40 10 0 19
-65 11 -80 -10z m146 -104 c8 -8 14 -21 14 -28 0 -8 9 -20 20 -28 12 -8 20
-26 20 -42 0 -15 5 -28 10 -28 6 0 10 -18 10 -40 0 -22 5 -40 10 -40 6 0 10
-25 10 -55 0 -30 -4 -55 -10 -55 -5 0 -10 -13 -10 -30 0 -16 -4 -30 -10 -30
-5 0 -10 -7 -10 -15 0 -17 -124 -145 -140 -145 -5 0 -62 -52 -125 -115 -63
-63 -120 -115 -126 -115 -6 0 -28 -19 -50 -42 -21 -24 -43 -46 -47 -50 -157
-153 -192 -190 -192 -203 0 -8 -4 -15 -10 -15 -5 0 -10 -9 -10 -20 0 -11 -4
-20 -10 -20 -5 0 -10 -16 -10 -35 0 -19 5 -35 10 -35 6 0 10 -47 10 -120 0
-73 4 -120 10 -120 6 0 10 -20 10 -45 0 -25 5 -45 10 -45 6 0 10 -37 10 -90 0
-53 4 -90 10 -90 6 0 10 -28 10 -65 0 -37 4 -65 10 -65 6 0 10 -37 10 -90 0
-53 4 -90 10 -90 6 0 10 -38 10 -95 0 -57 -4 -95 -10 -95 -5 0 -10 -9 -10 -20
0 -11 -4 -20 -10 -20 -5 0 -10 -7 -10 -16 0 -18 -23 -44 -40 -44 -6 0 -36 -25
-65 -55 -30 -30 -59 -55 -65 -55 -6 0 -60 -49 -120 -110 -60 -60 -116 -110
-124 -110 -8 0 -18 -9 -21 -20 -3 -11 -10 -20 -16 -20 -5 0 -42 -34 -84 -75
-41 -41 -80 -75 -85 -75 -6 0 -33 -24 -61 -52 -96 -103 -134 -138 -149 -138
-6 0 -55 -45 -110 -100 -55 -55 -102 -100 -105 -100 -6 0 -42 -33 -150 -137
-41 -40 -81 -73 -88 -73 -7 0 -19 -10 -27 -22 -14 -20 -87 -94 -144 -145 -14
-13 -30 -23 -36 -23 -11 0 -121 -110 -170 -169 -14 -17 -31 -31 -38 -31 -13 0
-34 -18 -147 -127 -36 -35 -67 -63 -70 -63 -3 0 -30 -25 -60 -55 -37 -37 -55
-63 -55 -80 0 -19 -7 -26 -27 -31 -15 -4 -44 -25 -65 -46 -20 -21 -42 -38 -50
-38 -7 0 -24 -14 -38 -31 -51 -61 -99 -109 -109 -109 -15 0 -179 -155 -231
-219 -14 -17 -31 -31 -38 -31 -7 0 -42 -28 -77 -62 -143 -139 -175 -168 -180
-168 -3 0 -52 -46 -110 -102 -122 -120 -152 -148 -160 -148 -3 0 -59 -54 -125
-120 -66 -66 -126 -120 -134 -120 -9 0 -26 -11 -38 -25 -79 -87 -199 -205
-208 -205 -6 0 -62 -52 -125 -115 -63 -63 -119 -115 -125 -115 -6 0 -58 -47
-115 -105 -58 -58 -110 -105 -115 -105 -13 0 -230 -217 -230 -230 0 -6 -9 -10
-20 -10 -12 0 -62 -42 -125 -105 -58 -58 -111 -105 -118 -105 -7 0 -19 -10
-27 -21 -8 -12 -25 -31 -38 -43 -12 -12 -47 -45 -77 -73 -30 -29 -59 -53 -65
-53 -6 0 -33 -22 -60 -50 -27 -27 -53 -50 -59 -50 -6 0 -11 -4 -11 -10 0 -5
-9 -10 -20 -10 -11 0 -20 -4 -20 -10 0 -5 -18 -10 -40 -10 -22 0 -40 -4 -40
-10 0 -6 -38 -10 -95 -10 -57 0 -95 4 -95 10 0 6 -13 10 -28 10 -16 0 -34 8
-42 20 -8 11 -22 20 -32 20 -10 0 -18 5 -18 10 0 6 -8 10 -18 10 -10 0 -24 9
-32 20 -8 11 -21 20 -28 20 -7 0 -31 18 -52 40 -21 22 -43 40 -49 40 -6 0 -11
5 -11 10 0 6 -7 10 -15 10 -9 0 -27 11 -41 25 -14 14 -32 25 -40 25 -9 0 -33
18 -54 40 -21 22 -45 40 -52 40 -7 0 -20 9 -28 20 -8 11 -22 20 -32 20 -10 0
-18 5 -18 10 0 6 -5 10 -11 10 -6 0 -28 18 -49 40 -21 22 -46 40 -54 40 -9 0
-16 8 -16 20 0 11 -4 20 -10 20 -5 0 -10 7 -10 15 0 8 -4 15 -10 15 -5 0 -10
14 -10 30 0 17 -4 30 -10 30 -5 0 -10 9 -10 20 0 11 -4 20 -10 20 -5 0 -10 14
-10 30 0 17 -4 30 -10 30 -5 0 -10 14 -10 30 0 17 -4 30 -10 30 -5 0 -10 14
-10 30 0 17 -4 30 -10 30 -5 0 -10 11 -10 25 0 14 5 25 10 25 6 0 10 -4 10
-10 0 -5 12 -13 27 -16 16 -4 35 -15 44 -26 9 -10 23 -18 30 -18 8 0 21 -9 29
-20 8 -11 21 -20 30 -20 9 0 22 -9 30 -20 8 -11 22 -20 32 -20 9 0 20 -9 23
-20 3 -11 13 -20 22 -20 8 0 28 -14 43 -30 15 -17 34 -30 42 -30 7 0 20 -9 28
-20 8 -11 21 -20 29 -20 7 0 21 -8 30 -18 9 -11 28 -22 44 -26 15 -3 27 -11
27 -16 0 -6 9 -10 19 -10 11 0 22 -6 25 -12 3 -7 3 12 0 42 -4 30 -10 57 -15
58 -5 2 -9 17 -9 33 0 16 -4 29 -10 29 -5 0 -10 18 -10 40 0 22 -4 40 -10 40
-5 0 -10 14 -10 30 0 17 -4 30 -10 30 -5 0 -10 11 -10 25 0 14 -4 25 -10 25
-5 0 -10 14 -10 30 0 17 -4 30 -10 30 -5 0 -10 14 -10 30 0 17 -4 30 -10 30
-5 0 -10 14 -10 30 0 17 -4 30 -10 30 -5 0 -10 14 -10 30 0 17 -4 30 -10 30
-5 0 -10 11 -10 25 0 14 -4 25 -10 25 -5 0 -10 14 -10 30 0 17 -4 30 -10 30
-5 0 -10 14 -10 30 0 17 -4 30 -10 30 -5 0 -10 14 -10 30 0 17 -4 30 -10 30
-5 0 -10 14 -10 30 0 17 -4 30 -10 30 -5 0 -10 13 -10 30 0 23 -5 31 -25 36
-14 3 -25 10 -25 15 0 5 -9 9 -20 9 -11 0 -20 5 -20 10 0 6 -8 10 -18 10 -10
0 -24 9 -32 20 -8 11 -21 20 -30 20 -9 0 -22 9 -30 20 -8 11 -21 20 -30 20 -9
0 -22 9 -30 20 -8 11 -22 20 -32 20 -10 0 -18 5 -18 10 0 6 -6 10 -13 10 -7 0
-19 9 -27 20 -8 11 -21 20 -30 20 -9 0 -22 9 -30 20 -8 11 -22 20 -32 20 -10
0 -18 5 -18 10 0 6 -9 10 -19 10 -11 0 -26 7 -35 15 -8 8 -21 15 -28 15 -8 0
-20 9 -28 20 -8 11 -23 20 -32 20 -13 0 -20 10 -25 30 -3 17 -9 30 -14 30 -5
0 -9 9 -9 20 0 11 -4 20 -10 20 -5 0 -10 14 -10 30 0 17 -4 30 -10 30 -5 0
-10 14 -10 30 0 17 -4 30 -10 30 -5 0 -10 7 -10 15 0 8 -4 15 -10 15 -5 0 -10
14 -10 30 0 17 -4 30 -10 30 -5 0 -10 14 -10 30 0 17 -4 30 -10 30 -5 0 -10 9
-10 20 0 13 7 20 20 20 11 0 20 -4 20 -10 0 -5 9 -10 20 -10 11 0 20 -4 20
-10 0 -5 9 -10 20 -10 11 0 20 -4 20 -10 0 -5 7 -10 15 -10 8 0 15 -4 15 -10
0 -5 8 -10 18 -10 10 0 24 -9 32 -20 8 -11 22 -20 32 -20 10 0 18 -4 18 -10 0
-5 9 -10 20 -10 11 0 20 -4 20 -10 0 -5 12 -13 28 -16 15 -4 34 -15 43 -26 9
-10 22 -18 29 -18 6 0 25 -14 40 -30 15 -17 31 -30 35 -30 4 0 20 -14 35 -30
15 -17 34 -30 42 -30 7 0 20 -9 28 -20 8 -11 21 -20 30 -20 9 0 22 -9 30 -20
8 -12 26 -20 42 -20 15 0 28 -4 28 -10 0 -5 9 -10 20 -10 11 0 20 -4 20 -10 0
-17 159 -13 176 5 13 13 11 19 -20 50 -32 32 -41 35 -91 35 -30 0 -55 5 -55
10 0 6 -11 10 -25 10 -14 0 -25 5 -25 10 0 6 -9 10 -20 10 -11 0 -20 5 -20 10
0 6 -9 10 -20 10 -11 0 -20 5 -20 10 0 6 -7 10 -16 10 -9 0 -29 13 -44 30 -15
16 -33 30 -39 30 -7 0 -23 11 -37 25 -14 14 -30 25 -35 25 -6 0 -24 14 -39 30
-15 17 -35 30 -44 30 -9 0 -16 5 -16 10 0 6 -8 10 -18 10 -10 0 -24 9 -32 20
-8 11 -21 20 -30 20 -9 0 -22 9 -30 20 -8 11 -22 20 -32 20 -10 0 -18 5 -18
10 0 6 -9 10 -20 10 -11 0 -20 5 -20 10 0 6 -7 10 -15 10 -8 0 -15 5 -15 10 0
6 -9 10 -20 10 -11 0 -20 5 -20 10 0 6 -9 10 -20 10 -11 0 -20 5 -20 10 0 6
-7 10 -16 10 -8 0 -22 6 -30 14 -16 17 -19 56 -4 56 6 0 10 9 10 20 0 11 5 20
10 20 6 0 10 9 10 20 0 11 5 20 10 20 6 0 10 7 10 16 0 8 22 36 48 62 27 26
52 60 56 75 4 18 13 27 26 27 17 0 71 52 298 282 35 36 63 58 72 58 6 0 55 45
110 100 55 55 102 100 105 100 6 0 36 27 130 118 30 28 59 52 65 52 12 0 95
82 120 119 8 11 20 21 28 21 13 0 30 13 117 98 30 28 60 52 66 52 11 0 52 41
79 79 8 12 20 21 27 21 8 0 38 25 68 55 31 30 62 55 71 55 8 0 37 23 64 50 27
28 52 50 55 50 3 0 28 23 55 50 27 28 54 50 60 50 6 0 31 20 56 45 24 25 52
45 60 45 17 0 74 55 74 71 0 5 7 9 16 9 8 0 37 23 64 50 27 28 54 50 60 50 7
0 25 14 40 30 15 17 33 30 39 30 7 0 27 16 47 35 19 19 39 35 45 35 6 0 28 18
49 40 21 22 44 40 50 40 7 0 25 14 40 30 15 17 33 30 40 30 6 0 29 18 50 40
21 22 41 40 45 40 4 0 20 14 35 30 15 17 35 30 44 30 8 0 26 11 40 25 14 14
30 25 37 25 6 0 24 14 39 30 15 17 33 30 40 30 6 0 29 18 50 40 21 22 42 40
47 40 5 0 15 9 23 20 8 11 21 20 28 20 8 0 27 14 42 30 15 17 33 30 39 30 11
0 22 7 56 38 7 6 19 12 25 12 7 0 25 14 40 30 15 17 31 30 35 30 4 0 20 14 35
30 15 17 34 30 42 30 7 0 20 9 28 20 8 11 21 20 28 20 8 0 27 14 42 30 15 17
34 30 42 30 7 0 20 9 28 20 8 11 23 20 33 20 9 0 20 7 23 15 4 8 13 15 21 15
8 0 28 14 43 30 15 17 34 30 42 30 7 0 20 9 28 20 8 11 21 20 30 20 9 0 22 9
30 20 8 11 21 20 28 20 8 0 27 14 42 30 15 17 36 30 45 30 9 0 30 14 45 30 15
17 35 30 44 30 9 0 16 4 16 10 0 5 12 13 28 16 15 4 39 20 54 36 14 15 33 28
42 28 9 0 16 5 16 10 0 6 9 10 19 10 11 0 23 9 26 20 3 11 14 20 23 20 10 0
24 9 32 20 8 11 22 20 32 20 10 0 18 5 18 10 0 6 8 10 18 10 10 0 24 9 32 20
8 11 22 20 32 20 10 0 18 5 18 10 0 6 7 10 16 10 9 0 24 8 33 19 9 10 26 21
39 25 12 4 22 12 22 17 0 5 9 9 20 9 11 0 20 5 20 10 0 6 7 10 16 10 9 0 29
14 44 30 15 17 34 30 42 30 7 0 20 9 28 20 8 11 21 20 30 20 9 0 22 9 30 20 8
11 22 20 32 20 10 0 18 5 18 10 0 6 6 10 13 10 7 0 19 9 27 20 8 11 21 20 30
20 9 0 22 9 30 20 8 11 22 20 32 20 10 0 18 5 18 10 0 6 13 10 29 10 16 0 36
7 45 15 8 8 21 15 28 15 8 0 20 9 28 20 8 11 20 20 27 20 7 0 13 5 13 10 0 6
9 10 20 10 11 0 20 5 20 10 0 6 8 10 18 10 10 0 24 9 32 20 8 11 22 20 32 20
10 0 18 5 18 10 0 6 9 10 20 10 11 0 20 5 20 10 0 6 9 10 20 10 11 0 20 5 20
10 0 6 13 10 29 10 21 0 32 6 36 20 5 16 15 20 46 20 21 0 39 5 39 10 0 6 9
10 19 10 11 0 22 6 24 13 4 9 8 8 16 -3 8 -11 13 -12 19 -3 4 7 39 15 77 19
39 4 73 12 78 18 5 8 9 8 15 0 4 -7 71 -13 187 -16 122 -3 180 -9 183 -17 2
-6 25 -11 53 -11 27 0 49 -4 49 -10 0 -5 14 -10 30 -10 17 0 30 -4 30 -10 0
-5 11 -10 25 -10 14 0 25 -4 25 -10 0 -5 9 -10 20 -10 11 0 20 -4 20 -10 0 -5
14 -10 30 -10 17 0 30 -4 30 -10 0 -5 17 -10 38 -10 26 0 42 -6 52 -20 15 -21
50 -28 50 -10 0 6 9 10 20 10 11 0 20 5 20 10 0 6 6 10 13 10 7 0 19 9 27 20
8 11 21 20 30 20 9 0 22 9 30 20 8 11 20 20 28 20 7 0 24 11 38 25 14 14 33
25 42 25 10 0 24 9 32 20 8 11 22 20 32 20 10 0 18 4 18 8 0 16 37 52 54 52 9
0 16 5 16 10 0 6 8 10 18 10 10 0 24 9 32 20 8 11 21 20 28 20 8 0 27 14 42
30 15 17 34 30 42 30 7 0 24 14 38 30 22 26 31 29 83 30 38 0 64 -5 73 -14z
m-6796 -5266 c15 -16 35 -30 44 -30 9 0 16 -4 16 -10 0 -5 11 -10 25 -10 14 0
25 -4 25 -10 0 -5 9 -10 20 -10 11 0 20 -4 20 -10 0 -5 9 -10 20 -10 10 0 30
-11 44 -25 14 -14 35 -25 46 -25 24 0 70 -42 70 -65 0 -8 5 -15 10 -15 6 0 10
-27 10 -60 0 -33 4 -60 10 -60 14 0 12 -37 -2 -43 -10 -4 -9 -8 2 -16 8 -5 15
-27 17 -48 1 -21 7 -39 13 -41 5 -2 10 -26 10 -53 0 -27 5 -49 10 -49 6 0 10
-4 10 -10 0 -5 -11 -10 -25 -10 -14 0 -25 5 -25 10 0 6 -21 10 -46 10 -32 0
-43 3 -38 12 4 6 3 8 -4 4 -6 -3 -17 1 -25 9 -9 8 -21 15 -27 15 -7 0 -25 14
-40 30 -15 17 -35 30 -44 30 -9 0 -16 5 -16 10 0 6 -9 10 -19 10 -11 0 -23 9
-26 20 -3 11 -13 20 -21 20 -25 0 -44 26 -44 59 0 17 -4 31 -10 31 -6 0 -10
30 -10 70 0 40 -4 70 -10 70 -5 0 -10 9 -10 20 0 11 -4 20 -10 20 -5 0 -10 13
-10 29 0 17 -4 33 -10 36 -14 9 -12 93 3 110 16 19 15 19 47 -15z m170 -560
c0 -5 8 -10 18 -10 10 0 24 -9 32 -20 8 -11 21 -20 30 -20 9 0 22 -9 30 -20 8
-11 21 -20 29 -20 7 0 21 -8 30 -19 9 -10 26 -21 39 -25 12 -4 22 -12 22 -17
0 -5 7 -9 16 -9 9 0 29 -13 44 -30 15 -16 35 -30 44 -30 9 0 16 -8 16 -19 0
-11 6 -21 13 -24 7 -2 8 -8 3 -13 -5 -5 -11 -4 -13 4 -3 6 -12 12 -22 12 -9 0
-23 9 -31 20 -8 11 -21 20 -30 20 -9 0 -22 9 -30 20 -8 11 -18 20 -23 20 -4 0
-19 11 -33 25 -14 14 -33 25 -42 25 -10 0 -24 9 -32 20 -8 11 -21 20 -30 20
-9 0 -22 9 -30 20 -8 11 -20 20 -28 20 -12 0 -62 43 -62 55 0 3 9 5 20 5 11 0
20 -4 20 -10z"/>
<path d="M7654 7655 c-3 -25 -10 -45 -15 -45 -5 0 -9 -7 -9 -16 0 -8 -6 -22
-14 -30 -8 -8 -22 -14 -30 -14 -9 0 -16 -4 -16 -10 0 -5 -8 -10 -18 -10 -10 0
-24 -9 -32 -20 -8 -11 -21 -20 -30 -20 -9 0 -22 -9 -30 -20 -8 -11 -22 -20
-32 -20 -10 0 -18 -4 -18 -10 0 -5 -8 -10 -18 -10 -10 0 -24 -9 -32 -20 -8
-11 -19 -20 -24 -20 -5 0 -16 -8 -25 -18 -9 -11 -28 -22 -43 -26 -16 -3 -28
-11 -28 -16 0 -6 -9 -10 -20 -10 -11 0 -20 -4 -20 -10 0 -5 -8 -10 -18 -10
-10 0 -24 -9 -32 -20 -8 -11 -21 -20 -30 -20 -9 0 -22 -9 -30 -20 -8 -11 -19
-20 -25 -20 -6 0 -17 -9 -25 -20 -8 -11 -21 -20 -30 -20 -9 0 -22 -9 -30 -20
-8 -11 -21 -20 -30 -20 -9 0 -22 -9 -30 -20 -8 -11 -21 -20 -30 -20 -9 0 -22
-9 -30 -20 -8 -11 -22 -20 -32 -20 -9 0 -28 -11 -42 -25 -14 -14 -29 -25 -33
-25 -5 0 -15 -9 -23 -20 -8 -11 -21 -20 -28 -20 -8 0 -27 -13 -42 -30 -15 -16
-34 -30 -42 -30 -7 0 -20 -9 -28 -20 -8 -11 -21 -20 -28 -20 -8 0 -27 -13 -42
-30 -15 -16 -35 -30 -44 -30 -9 0 -16 -4 -16 -8 0 -16 -37 -52 -53 -52 -9 0
-27 -11 -41 -25 -14 -14 -31 -25 -38 -25 -8 0 -20 -9 -28 -20 -8 -11 -21 -20
-28 -20 -7 0 -31 -18 -52 -40 -21 -22 -46 -40 -54 -40 -9 0 -16 -4 -16 -8 0
-14 -36 -52 -50 -52 -6 0 -25 -13 -40 -30 -15 -16 -35 -30 -44 -30 -8 0 -31
-16 -50 -35 -20 -19 -40 -35 -47 -35 -6 0 -24 -13 -39 -30 -15 -16 -31 -30
-35 -30 -4 0 -24 -18 -45 -40 -21 -22 -44 -40 -50 -40 -6 0 -29 -18 -50 -40
-21 -22 -44 -40 -50 -40 -6 0 -18 -6 -25 -12 -35 -32 -45 -38 -60 -38 -8 0
-15 -4 -15 -9 0 -14 -77 -91 -90 -91 -6 0 -29 -18 -50 -40 -21 -22 -43 -40
-49 -40 -7 0 -32 -20 -57 -45 -24 -25 -49 -45 -55 -45 -6 0 -32 -22 -59 -50
-27 -27 -54 -50 -60 -50 -6 0 -33 -22 -60 -50 -27 -27 -54 -50 -60 -50 -12 0
-53 -41 -80 -79 -8 -12 -22 -21 -32 -21 -10 0 -42 -25 -73 -55 -30 -30 -59
-55 -65 -55 -14 0 -110 -97 -110 -111 0 -5 -7 -9 -15 -9 -9 0 -31 -15 -50 -32
-19 -18 -51 -48 -70 -65 -19 -18 -39 -33 -45 -33 -12 0 -115 -102 -140 -139
-8 -11 -20 -21 -27 -21 -8 0 -34 -19 -58 -42 -98 -94 -115 -108 -127 -108 -7
0 -24 -14 -38 -31 -57 -69 -180 -189 -194 -189 -15 0 -77 -60 -196 -189 -30
-33 -61 -60 -68 -60 -13 -1 -48 -31 -125 -109 -23 -23 -89 -89 -147 -147 -123
-123 -165 -166 -307 -308 -321 -321 -393 -392 -445 -444 -29 -29 -69 -70 -88
-92 -19 -22 -41 -40 -48 -41 -8 0 -27 -13 -42 -30 -15 -16 -35 -30 -44 -30 -9
0 -16 -4 -16 -10 0 -5 -9 -10 -20 -10 -11 0 -20 -4 -20 -10 0 -5 -9 -10 -19
-10 -11 0 -21 -4 -23 -10 -1 -5 -31 -13 -65 -16 -35 -4 -63 -11 -63 -15 0 -13
-178 -11 -182 2 -2 5 -22 13 -46 16 -23 3 -42 10 -42 14 0 5 -18 9 -40 9 -22
0 -40 5 -40 10 0 6 -13 10 -30 10 -16 0 -30 5 -30 10 0 6 -8 10 -18 10 -10 0
-24 9 -32 20 -8 11 -20 20 -27 20 -7 0 -13 5 -13 10 0 6 -7 10 -16 10 -9 0
-29 14 -44 30 -15 17 -35 30 -44 30 -9 0 -16 5 -16 10 0 6 -8 10 -18 10 -10 0
-24 9 -32 20 -8 11 -22 20 -32 20 -10 0 -18 5 -18 10 0 6 -8 10 -18 10 -10 0
-24 9 -32 20 -8 10 -28 22 -44 26 -17 4 -34 11 -38 17 -4 6 -11 8 -15 3 -4 -5
-2 -11 5 -13 15 -6 51 -41 72 -72 8 -11 21 -21 28 -21 8 0 27 -13 42 -30 15
-16 34 -30 42 -30 7 0 20 -9 28 -20 8 -11 22 -20 32 -20 10 0 18 -4 18 -10 0
-5 9 -10 20 -10 11 0 20 -4 20 -10 0 -5 7 -10 16 -10 17 0 31 -13 57 -52 13
-22 27 -29 67 -34 28 -4 50 -10 50 -15 0 -5 18 -9 40 -9 22 0 40 -4 40 -10 0
-5 14 -10 30 -10 17 0 30 -4 30 -10 0 -5 6 -10 13 -10 7 0 19 -9 27 -20 11
-15 26 -20 61 -20 28 0 50 -5 53 -12 5 -10 7 -10 12 0 4 8 29 12 75 12 39 0
69 4 69 10 0 6 11 10 25 10 14 0 25 5 25 10 0 6 9 10 20 10 11 0 20 5 20 10 0
6 8 10 18 10 10 0 24 9 32 20 8 11 22 20 32 20 9 0 33 16 52 35 20 19 41 35
48 35 8 0 20 10 28 22 16 23 190 197 269 268 27 25 50 53 50 63 1 9 8 17 16
17 8 0 15 8 16 18 0 9 32 46 70 82 38 36 97 93 132 127 34 35 91 94 127 132
36 38 71 70 78 70 14 1 38 22 115 99 28 28 93 94 144 145 107 108 118 117 135
117 7 0 24 14 38 31 57 70 241 249 254 249 9 0 29 15 46 33 17 17 52 56 79 85
28 28 55 52 61 52 5 0 39 28 75 63 86 82 113 107 120 107 3 0 37 32 75 70 38
39 74 70 80 70 6 0 40 29 75 65 36 36 70 65 76 65 5 0 37 27 69 60 32 33 64
60 70 60 6 0 33 23 60 50 27 28 55 50 64 50 8 0 17 8 20 18 3 10 16 24 27 32
12 8 32 25 45 38 13 12 28 22 34 22 6 0 33 23 60 50 27 28 54 50 60 50 14 0
90 77 90 91 0 5 7 9 15 9 9 0 31 16 51 35 19 19 42 35 50 35 8 0 37 23 64 50
27 28 54 50 61 50 13 0 49 38 49 52 0 4 7 8 16 8 8 0 37 23 64 50 27 28 54 50
60 50 11 0 25 10 65 48 13 12 29 22 36 22 6 0 24 14 39 30 15 17 31 30 35 30
4 0 24 18 45 40 21 22 44 40 50 40 7 0 25 14 40 30 15 17 33 30 39 30 7 0 27
16 47 35 19 19 39 35 45 35 6 0 24 14 39 30 15 17 33 30 40 30 7 0 25 14 40
30 15 17 34 30 42 30 7 0 20 9 28 20 8 11 21 20 28 20 8 0 27 14 42 30 15 17
35 30 44 30 9 0 16 4 16 8 0 16 37 52 53 52 9 0 27 11 41 25 14 14 31 25 38
25 8 0 20 9 28 20 8 11 21 20 28 20 8 0 27 14 42 30 15 17 35 30 43 30 9 0 19
9 22 20 3 11 13 20 22 20 8 0 28 14 43 30 15 17 34 30 42 30 7 0 20 9 28 20 8
11 22 20 32 20 10 0 18 4 18 10 0 5 12 13 28 16 15 4 34 15 43 26 9 10 23 18
32 18 9 0 19 9 22 20 3 11 14 20 23 20 10 0 24 9 32 20 8 11 21 20 30 20 9 0
22 9 30 20 8 11 22 20 32 20 10 0 18 5 18 10 0 6 8 10 18 10 10 0 24 9 32 20
8 11 22 20 32 20 10 0 18 5 18 10 0 6 5 10 11 10 7 0 19 8 28 18 9 11 28 22
44 26 15 3 27 11 27 16 0 6 9 10 20 10 11 0 20 5 20 10 0 6 8 10 18 10 10 0
24 9 32 20 8 11 21 20 30 20 9 0 22 9 30 20 8 11 21 20 30 20 9 0 22 10 30 21
8 12 21 27 28 35 6 7 12 20 12 28 0 9 5 16 10 16 6 0 10 18 10 40 0 22 -4 40
-10 40 -5 0 -10 11 -10 25 0 42 -18 28 -26 -20z"/>
</g>
</svg>
