<svg width="48" height="48" viewBox="0 0 48 48" fill="none" xmlns="http://www.w3.org/2000/svg">
<path d="M40.8085 3.15045L39 6.40071" fill="none" stroke="#000000" stroke-width="2.25" stroke-linecap="round" stroke-linejoin="round"/>
<path d="M34.6502 2.99998L35.2972 5.73728" fill="none" stroke="#000000" stroke-width="2.25" stroke-linecap="round" stroke-linejoin="round"/>
<path d="M43.8392 9.44797L41 9.47561" fill="none" stroke="#000000" stroke-width="2.25" stroke-linecap="round" stroke-linejoin="round"/>
<path d="M7.03473 15.7885C7.46169 12.5237 10.2874 10.1272 13.6344 10.1272H26.875V43.8772H13.6344C10.2874 43.8772 7.46169 41.4807 7.03473 38.2159C6.57023 34.664 6.125 30.3715 6.125 27.0022C6.125 23.6329 6.57023 19.3404 7.03473 15.7885Z" stroke="#000000" fill="none" stroke-width="2.25" stroke-linejoin="round"/>
<path d="M31.125 43.8772V10.1272H32.6629C36.1997 10.1272 39.1363 12.8008 39.3914 16.2935C39.6432 19.7431 39.875 23.794 39.875 27.0022C39.875 30.2104 39.6432 34.2613 39.3914 37.7109C39.1363 41.2036 36.1997 43.8772 32.6629 43.8772H31.125Z" stroke="#000000" fill="none" stroke-width="2.25" stroke-linejoin="round"/>
</svg>
