<svg width="48" height="48" viewBox="0 0 48 48" fill="none" xmlns="http://www.w3.org/2000/svg">
<path d="M41.8244 2.875H6.17497V5.125H41.8244V2.875ZM6.17497 2.875C4.35178 2.875 2.875 4.35314 2.875 6.17555H5.125C5.125 5.595 5.5952 5.125 6.17497 5.125V2.875ZM2.875 6.17555V41.8244H5.125V6.17555H2.875ZM2.875 41.8244C2.875 43.6469 4.35178 45.125 6.17497 45.125V42.875C5.5952 42.875 5.125 42.405 5.125 41.8244H2.875ZM6.17497 45.125H41.8244V42.875H6.17497V45.125ZM41.8244 45.125C43.6473 45.125 45.125 43.6473 45.125 41.8244H42.875C42.875 42.4046 42.4046 42.875 41.8244 42.875V45.125ZM45.125 41.8244V6.17555H42.875V41.8244H45.125ZM45.125 6.17555C45.125 4.35275 43.6473 2.875 41.8244 2.875V5.125C42.4046 5.125 42.875 5.59539 42.875 6.17555H45.125Z" stroke="#ffffff" fill="none" stroke-width="1" />
<path d="M24.8305 13.125V34.8747M17.9153 19.8749H31.339M17.9153 28.1248H31.339M24.8305 38.9997C26.8407 38.9907 29.4113 38.7998 31.465 38.6129C33.4839 38.4292 35 36.7225 35 34.6952V13.2825C35 11.2646 33.497 9.56288 31.4878 9.37628C29.4584 9.18782 26.9048 8.99893 24.8305 9C22.6924 9.00111 19.8152 9.20765 17.5638 9.40368C15.5326 9.58052 14 11.2928 14 13.3317V34.6893C14 36.7191 15.5191 38.4266 17.5409 38.6068C19.7631 38.8048 22.6166 39.0096 24.8305 38.9997Z" stroke="#ffffff" fill="none" stroke-width="2.25" stroke-linecap="round" stroke-linejoin="round"/>
</svg>
