<svg width="2000" height="2000" xmlns="http://www.w3.org/2000/svg">

 <g>
  <title>Layer 1</title>
  <path stroke="#000" stroke-width="40" id="svg_1" d="m1560.09377,976.08897c0,100.15575 -242.68139,181.34804 -542.04405,181.34804m542.04405,-181.34804l0,0c0,100.15575 -242.68139,181.34804 -542.04405,181.34804c-299.36256,0 -542.04387,-81.19213 -542.04387,-181.34804m0,0l0,0c0,-100.15564 242.68131,-181.34799 542.04387,-181.34799c299.36267,0 542.04405,81.19235 542.04405,181.34799l0,725.39245c0,100.15564 -242.68139,181.34771 -542.04405,181.34771c-299.36256,0 -542.04387,-81.19207 -542.04387,-181.34771l0,-725.39245z" opacity="undefined" fill="#fff"/>
  <path stroke="#000" id="svg_2" d="m1484.76655,488.92969c0,65.91132 -207.7567,119.343 -464.03759,119.343m464.03759,-119.343l0,0c0,65.91132 -207.7567,119.343 -464.03759,119.343c-256.2808,0 -464.03744,-53.43158 -464.03744,-119.343m0,0l0,0c0,-65.91125 207.75664,-119.34297 464.03744,-119.34297c256.28089,0 464.03759,53.43172 464.03759,119.34297l0,477.3722c0,65.91125 -207.7567,119.34279 -464.03759,119.34279c-256.2808,0 -464.03744,-53.43154 -464.03744,-119.34279l0,-477.3722z" opacity="undefined" fill-opacity="null" stroke-opacity="null" stroke-dasharray="null" stroke-width="40" fill="#fff"/>
  <rect rx="75" id="svg_9" height="144.01166" width="352.02851" y="1243.2197" x="831.58636" opacity="undefined" fill-opacity="null" stroke-opacity="null" stroke-dasharray="null" stroke-width="10" stroke="#000" fill="#fff"/>
  <path stroke-width="0" stroke="#000" id="svg_10" d="m1034.53315,1272.04396c-4.77207,-1.73748 -10.5197,-0.24563 -12.84567,3.34852c-2.31635,3.59415 -0.31718,7.91436 4.4549,9.65545c14.96979,5.47612 25.30207,16.99547 25.29246,30.34622c-0.04806,18.61735 -20.08788,33.68029 -44.85171,33.7128c-24.76864,-0.03612 -44.80846,-15.09906 -44.85652,-33.7128c-0.00961,-13.35797 10.32748,-24.88816 25.31169,-30.35344c4.78168,-1.74109 6.76644,-6.0613 4.4549,-9.65545c-2.31635,-3.58693 -8.05437,-5.08961 -12.83606,-3.34852c-21.39503,7.78432 -36.14857,24.28492 -36.15818,43.35741c0.00961,26.60035 28.6853,48.15805 64.08417,48.16527c35.39407,-0.00722 64.07456,-21.56492 64.07936,-48.16527c-0.00961,-19.06527 -14.74392,-35.55503 -36.12934,-43.35019zm-27.95002,35.52252c5.30551,0 9.60662,-3.22932 9.60662,-7.22443l0,-33.71641c0,-3.9915 -4.30111,-7.22082 -9.60662,-7.22082c-5.31512,0 -9.61142,3.23293 -9.61142,7.22082l0,33.7128c0,3.99511 4.29631,7.22804 9.61142,7.22804z" opacity="undefined" stroke-opacity="null" stroke-dasharray="null" fill="#000000"/>
  <path transform="rotate(-89.50814056396484 1130.9971923828125,1551.86083984375) " id="svg_11" d="m1156.65096,1679.2219c12.74691,-4.17991 23.20223,-8.07232 3.40115,-8.18624c-17.48717,2.09978 -62.72493,-13.33434 -26.46874,-20.92057c22.68236,-7.91232 74.30238,10.36335 74.57754,-20.8975c-4.10326,-19.59099 -70.68871,-4.29449 -48.78426,-30.56859c24.12372,-8.81273 71.95911,11.9512 80.05158,-15.31887c-7.41829,-26.44157 -53.81759,-9.56667 -77.13906,-16.87422c-22.60833,4.16634 -28.56223,-22.39454 -3.18836,-18.3855c58.65742,-2.82731 117.72398,1.3221 176.17932,-4.44772c9.44251,-4.67284 16.4224,-33.41758 4.50635,-35.35329c-85.1514,-1.57636 -170.45327,-0.12746 -255.46988,-4.82945c-30.54366,-0.28341 -7.20662,-29.42208 15.36341,-22.57896c21.49925,-6.28987 30.01946,-22.78237 45.79849,-39.06742c8.06332,-35.59601 -30.68985,-22.38437 -46.51638,-11.96815c-17.67261,10.35112 -48.07016,31.83714 -64.19579,43.11647c-14.13573,9.13207 -46.7034,19.26555 -66.51464,31.50695c-16.93394,5.37659 -35.46477,2.69983 -52.097,3.6653c0,48.22863 0,96.45657 0,144.68519c47.05537,18.30551 96.57068,34.38508 148.73786,32.54567c30.55921,-0.11117 61.99618,0.9099 91.75839,-6.12307l0.00002,-0.00001zm-193.87029,15.46871c-24.02108,-8.24591 -47.99858,-16.59691 -71.80202,-25.3337c1.13912,-60.2273 2.27822,-120.45527 3.41727,-180.68257c19.00487,-0.64481 47.20495,7.77739 60.75117,-4.62401c36.41972,-10.44333 60.06529,-33.54166 91.99232,-50.87827c22.46806,-15.77314 40.41449,-21.1565 63.62097,-33.11858c17.62635,-7.28247 27.17017,-3.56361 47.0185,-0.38851c8.65675,12.65634 19.40344,19.19776 13.82689,43.30834c-11.6363,5.22947 -26.73709,40.37732 -3.86984,40.65665c63.6626,5.45048 128.35027,-2.21031 191.51208,7.31568c15.7278,19.0235 18.72727,61.76163 -10.05837,73.82541c-27.54728,7.11565 -56.59197,3.58596 -84.89422,4.4416c-0.00172,17.997 3.32866,40.96378 -19.02984,50.00431c-16.50936,19.23777 -17.67034,47.4991 -44.27297,61.57587c-22.37361,20.48256 -54.22302,26.80977 -85.28903,26.13446c-50.94063,0.61698 -104.56024,4.97992 -152.9229,-12.23534l0,-0.00136l-0.00002,0.00003z" opacity="undefined" fill-opacity="null" stroke-opacity="null" stroke-dasharray="null" stroke-width="0" stroke="#000" fill="#000000"/>
  <line stroke-width="60" stroke-linecap="null" stroke-linejoin="null" id="svg_13" y2="111.12801" x2="799.58377" y1="499.15944" x1="800" opacity="undefined" fill-opacity="null" stroke-opacity="null" stroke-dasharray="null" stroke="#000" fill="none"/>
  <line stroke-width="60" stroke-linecap="null" stroke-linejoin="null" id="svg_14" y2="111.12801" x2="1239.61943" y1="499.15944" x1="1240.03567" opacity="undefined" fill-opacity="null" stroke-opacity="null" stroke-dasharray="null" stroke="#000" fill="none"/>
  <line stroke="#ffffff" stroke-width="10" stroke-linecap="null" stroke-linejoin="null" id="svg_21" y2="1019.52569" x2="1463.48325" y1="912.54991" x1="589.07297" opacity="undefined" stroke-dasharray="null" fill="none"/>
  <path stroke="#ffffff" id="svg_22" d="m1443.66017,877.4408c0,23.33275 -190.017,42.24769 -424.41487,42.24769m424.41487,-42.24769l0,0c0,23.33275 -190.017,42.24769 -424.41487,42.24769c-234.39778,0 -424.41472,-18.9149 -424.41472,-42.24769m0,0l0,0c0,-23.33273 190.01695,-42.24768 424.41472,-42.24768c234.39786,0 424.41487,18.91495 424.41487,42.24768l0,168.99083c0,23.33273 -190.017,42.24762 -424.41487,42.24762c-234.39778,0 -424.41472,-18.91489 -424.41472,-42.24762l0,-168.99083z" opacity="undefined" fill-opacity="null" stroke-opacity="null" stroke-dasharray="null" stroke-width="38" fill="#ffffff"/>
 </g>
</svg>