<svg width="252" height="252" viewBox="0 0 252 252" fill="none" xmlns="http://www.w3.org/2000/svg">
<path fill-rule="evenodd" clip-rule="evenodd" d="M175.851 2.78626L55.0651 63.3172C41.7291 69.8747 36.6487 86.3946 43.6342 100.14C50.6197 113.886 67.004 119.561 80.34 113.003L79.0699 113.634C81.356 112.499 84.1502 113.507 85.2933 115.777C86.4364 118.173 85.5473 120.948 83.3882 122.083L32.2033 147.682C18.8673 154.366 13.787 170.886 20.7725 184.505C27.758 198.251 44.1422 203.926 57.4782 197.242L68.2741 191.819C70.5602 190.684 73.3544 191.693 74.4975 193.963C75.6406 196.359 75.5136 198.755 72.7194 200.142C60.7805 206.195 55.3191 222.841 62.3046 236.461C69.2901 250.207 85.6744 255.881 99.0104 249.198L219.796 188.667C233.132 181.983 238.213 165.463 231.227 151.718C224.242 137.972 207.858 132.297 194.522 138.981L182.71 144.908C180.423 146.043 177.629 145.034 176.486 142.764C175.343 140.368 176.232 137.594 178.391 136.459L178.01 136.585C191.346 129.901 196.427 113.381 189.441 99.6358C182.456 85.8902 166.071 80.2154 152.735 86.8991L152.481 87.0252C150.195 88.1601 147.401 87.1513 146.258 84.8814C145.115 82.4854 146.004 79.711 148.163 78.576L200.872 52.2199C214.208 45.5362 219.288 29.0163 212.303 15.2708C205.571 1.90352 189.187 -3.89736 175.851 2.78626Z" fill="#F0EBE6"/>
<path fill-rule="evenodd" clip-rule="evenodd" d="M58.3378 53.676C54.9358 53.676 52.2898 50.904 52.2898 47.628C52.2898 47.502 52.1638 47.376 52.0378 47.376C51.9118 47.376 51.7858 47.502 51.7858 47.628C51.7858 51.03 49.0138 53.676 45.7378 53.676C45.6118 53.676 45.4858 53.802 45.4858 53.928C45.4858 54.054 45.6118 54.18 45.7378 54.18C49.1398 54.18 51.7858 56.952 51.7858 60.228C51.7858 60.354 51.9118 60.48 52.0378 60.48C52.1638 60.48 52.2898 60.354 52.2898 60.228C52.2898 56.826 55.0618 54.18 58.3378 54.18C58.4638 54.18 58.5898 54.054 58.5898 53.928C58.5898 53.802 58.4638 53.676 58.3378 53.676Z" fill="#F2A85A"/>
<path fill-rule="evenodd" clip-rule="evenodd" d="M65.7718 47.124C63.8818 47.124 62.3698 45.612 62.3698 43.722C62.3698 43.596 62.2438 43.5959 62.2438 43.5959C62.1178 43.5959 62.1178 43.722 62.1178 43.722C62.1178 45.612 60.6058 47.124 58.7158 47.124C58.5898 47.124 58.5898 47.2499 58.5898 47.2499C58.5898 47.3759 58.7158 47.3759 58.7158 47.3759C60.6058 47.3759 62.1178 48.8879 62.1178 50.7779C62.1178 50.9039 62.2438 50.904 62.2438 50.904C62.3698 50.904 62.3698 50.7779 62.3698 50.7779C62.3698 48.8879 63.8818 47.3759 65.7718 47.3759C65.8978 47.3759 65.8978 47.2499 65.8978 47.2499C65.8978 47.2499 65.8978 47.124 65.7718 47.124Z" fill="#F2A85A"/>
<path fill-rule="evenodd" clip-rule="evenodd" d="M206.892 68.5439C204.372 68.5439 202.356 66.5279 202.356 64.0079C202.356 63.8819 202.23 63.7559 202.104 63.7559C201.978 63.7559 201.852 63.8819 201.852 64.0079C201.852 66.5279 199.836 68.5439 197.316 68.5439C197.19 68.5439 197.064 68.6699 197.064 68.7959C197.064 68.9219 197.19 69.0479 197.316 69.0479C199.836 69.0479 201.852 71.0639 201.852 73.5839C201.852 73.7099 201.978 73.8359 202.104 73.8359C202.23 73.8359 202.356 73.7099 202.356 73.5839C202.356 71.0639 204.372 69.0479 206.892 69.0479C207.018 69.0479 207.144 68.9219 207.144 68.7959C207.144 68.5439 207.018 68.5439 206.892 68.5439Z" fill="#F2A85A"/>
<path fill-rule="evenodd" clip-rule="evenodd" d="M136.836 204.876C134.19 204.876 132.048 202.734 132.048 200.088C132.048 199.962 131.922 199.836 131.796 199.836C131.67 199.836 131.544 199.962 131.544 200.088C131.544 202.734 129.402 204.876 126.756 204.876C126.63 204.876 126.504 205.002 126.504 205.128C126.504 205.254 126.63 205.38 126.756 205.38C129.402 205.38 131.544 207.522 131.544 210.168C131.544 210.294 131.67 210.42 131.796 210.42C131.922 210.42 132.048 210.294 132.048 210.168C132.048 207.522 134.19 205.38 136.836 205.38C136.962 205.38 137.088 205.254 137.088 205.128C137.088 204.876 136.962 204.876 136.836 204.876Z" fill="#F2A85A"/>
<path fill-rule="evenodd" clip-rule="evenodd" d="M142.002 192.024C140.616 192.024 139.482 190.89 139.482 189.504C139.482 189.504 139.482 189.378 139.356 189.378C139.356 189.378 139.23 189.378 139.23 189.504C139.23 190.89 138.096 192.024 136.71 192.024C136.71 192.024 136.584 192.024 136.584 192.15C136.584 192.276 136.584 192.276 136.71 192.276C138.096 192.276 139.23 193.41 139.23 194.796C139.23 194.796 139.23 194.922 139.356 194.922C139.356 194.922 139.482 194.922 139.482 194.796C139.482 193.41 140.616 192.276 142.002 192.276C142.002 192.276 142.128 192.276 142.002 192.024C142.128 192.15 142.002 192.024 142.002 192.024Z" fill="#F2A85A"/>
<path fill-rule="evenodd" clip-rule="evenodd" d="M77.49 89.5859V181.062C77.49 181.44 77.742 181.818 77.994 182.07L82.782 184.716L163.17 45.2339L158.76 42.7139C158.382 42.4619 158.004 42.4619 157.626 42.7139L77.994 88.5779C77.742 88.8299 77.49 89.2079 77.49 89.5859Z" fill="#F6E4D9"/>
<path d="M77.49 89.5859V181.062C77.49 181.44 77.742 181.818 77.994 182.07L82.782 184.716L163.17 45.2339L158.76 42.7139C158.382 42.4619 158.004 42.4619 157.626 42.7139L77.994 88.5779C77.742 88.8299 77.49 89.2079 77.49 89.5859Z" stroke="#230802" stroke-width="1.4" stroke-linecap="round" stroke-linejoin="round"/>
<path fill-rule="evenodd" clip-rule="evenodd" d="M82.5298 92.3579V183.708C82.5298 184.59 83.4118 185.094 84.1678 184.716L163.422 138.348C163.8 138.096 163.926 137.844 163.926 137.34V46.2419C163.926 45.3599 163.044 44.8559 162.288 45.2339L83.0338 91.4759C82.6558 91.6019 82.5298 91.9799 82.5298 92.3579Z" fill="#9D513B"/>
<path d="M82.5298 92.3579V183.708C82.5298 184.59 83.4118 185.094 84.1678 184.716L163.422 138.348C163.8 138.096 163.926 137.844 163.926 137.34V46.2419C163.926 45.3599 163.044 44.8559 162.288 45.2339L83.0338 91.4759C82.6558 91.6019 82.5298 91.9799 82.5298 92.3579Z" stroke="#230802" stroke-width="1.4" stroke-linecap="round" stroke-linejoin="round"/>
<path fill-rule="evenodd" clip-rule="evenodd" d="M172.116 105.966L143.136 89.082C132.3 82.908 117.054 89.082 109.116 102.942C101.682 115.668 103.068 130.284 111.888 137.34C113.274 138.348 114.408 139.104 116.55 140.364L144.774 156.87L172.116 105.966Z" fill="#F6E4D9"/>
<path fill-rule="evenodd" clip-rule="evenodd" d="M172.116 105.966L143.136 89.0819C132.3 82.9079 117.432 89.2079 109.116 102.942C103.446 112.392 104.706 115.164 104.706 115.164C113.274 120.078 136.71 132.3 145.782 138.474L172.116 105.966Z" fill="white"/>
<path d="M172.116 105.966L143.136 89.082C132.3 82.908 117.054 89.082 109.116 102.942C101.682 115.668 103.068 130.284 111.888 137.34C113.274 138.348 114.408 139.104 116.55 140.364L144.774 156.87L172.116 105.966Z" stroke="#230802" stroke-width="1.4" stroke-linecap="round" stroke-linejoin="round"/>
<path fill-rule="evenodd" clip-rule="evenodd" d="M139.356 120.456C131.292 134.316 133.056 150.318 143.136 156.114C153.216 161.91 167.958 155.358 175.896 141.498C183.96 127.638 182.196 111.636 172.116 105.84C162.036 100.044 147.294 106.596 139.356 120.456Z" fill="#F6E4D9"/>
<path fill-rule="evenodd" clip-rule="evenodd" d="M172.116 105.966C169.218 104.202 165.816 103.572 162.414 103.95C167.706 110.628 167.958 121.716 162.414 131.544C155.988 142.632 144.144 148.05 135.072 144.396C136.206 149.562 138.978 153.846 143.262 156.24C153.342 162.036 168.084 155.484 176.022 141.624C183.834 127.764 182.196 111.762 172.116 105.966Z" fill="#F6E4D9"/>
<path d="M172.116 105.966C169.218 104.202 165.816 103.572 162.414 103.95C167.706 110.628 167.958 121.716 162.414 131.544C155.988 142.632 144.144 148.05 135.072 144.396C136.206 149.562 138.978 153.846 143.262 156.24C153.342 162.036 168.084 155.484 176.022 141.624C183.834 127.764 182.196 111.762 172.116 105.966Z" stroke="#230802" stroke-width="1.4"/>
<path fill-rule="evenodd" clip-rule="evenodd" d="M162.288 131.418C167.958 121.716 167.706 110.502 162.288 103.824C153.972 104.454 144.9 110.628 139.23 120.456C134.568 128.52 133.182 137.214 134.82 144.27C144.018 147.924 155.862 142.506 162.288 131.418Z" fill="#9D513B"/>
<path d="M162.288 131.418C167.958 121.716 167.706 110.502 162.288 103.824C153.972 104.454 144.9 110.628 139.23 120.456C134.568 128.52 133.182 137.214 134.82 144.27C144.018 147.924 155.862 142.506 162.288 131.418Z" stroke="#230802" stroke-width="1.4"/>
<path fill-rule="evenodd" clip-rule="evenodd" d="M155.988 119.7C155.484 119.448 154.98 119.322 154.476 119.196C156.114 120.33 156.366 122.724 155.106 124.74C153.972 126.504 151.956 127.386 150.318 126.756C150.57 127.008 150.696 127.26 151.074 127.386C152.838 128.52 155.232 127.638 156.618 125.37C158.004 123.354 157.752 120.708 155.988 119.7Z" fill="#604B48"/>
<path fill-rule="evenodd" clip-rule="evenodd" d="M156.618 125.496C155.232 127.638 152.712 128.52 151.074 127.512C149.31 126.378 149.058 123.858 150.444 121.716C151.83 119.574 154.35 118.692 155.988 119.7C157.752 120.708 158.004 123.354 156.618 125.496Z" fill="#9D513B"/>
<path fill-rule="evenodd" clip-rule="evenodd" d="M155.232 124.74C156.492 122.724 156.24 120.33 154.602 119.196C153.09 119.196 151.578 120.078 150.57 121.59C149.436 123.354 149.436 125.496 150.444 126.756C152.082 127.386 154.098 126.504 155.232 124.74Z" fill="#230802"/>
<path fill-rule="evenodd" clip-rule="evenodd" d="M119.07 113.4C119.574 112.518 120.456 111.258 121.212 109.998C121.842 108.864 122.85 107.478 123.354 106.722C124.362 105.084 123.606 103.572 122.22 102.69C120.834 101.934 119.196 102.438 118.188 103.824C117.18 105.084 116.55 105.966 115.92 107.1C115.29 108.108 114.282 109.62 114.03 110.628C113.652 112.14 113.778 113.904 115.164 114.66C116.55 115.416 118.314 114.786 119.07 113.4Z" fill="#F6E4D9"/>
<path d="M119.07 113.4C119.574 112.518 120.456 111.258 121.212 109.998C121.842 108.864 122.85 107.478 123.354 106.722C124.362 105.084 123.606 103.572 122.22 102.69C120.834 101.934 119.196 102.438 118.188 103.824C117.18 105.084 116.55 105.966 115.92 107.1C115.29 108.108 114.282 109.62 114.03 110.628C113.652 112.14 113.778 113.904 115.164 114.66C116.55 115.416 118.314 114.786 119.07 113.4Z" stroke="#230802" stroke-width="1.4" stroke-linecap="round" stroke-linejoin="round"/>
<path fill-rule="evenodd" clip-rule="evenodd" d="M173.25 139.86C166.194 152.082 153.594 158.004 145.152 153.09C136.71 148.176 135.576 134.316 142.632 122.094C149.688 109.872 162.288 103.95 170.73 108.864C179.172 113.778 180.306 127.638 173.25 139.86ZM172.494 105.966C162.414 100.17 147.672 106.722 139.734 120.582C131.67 134.442 133.434 150.444 143.514 156.24C153.594 162.036 168.336 155.484 176.274 141.624C184.212 127.764 182.574 111.762 172.494 105.966Z" fill="#F6E4D9"/>
<path d="M173.25 139.86C166.194 152.082 153.594 158.004 145.152 153.09C136.71 148.176 135.576 134.316 142.632 122.094C149.688 109.872 162.288 103.95 170.73 108.864C179.172 113.778 180.306 127.638 173.25 139.86ZM172.494 105.966C162.414 100.17 147.672 106.722 139.734 120.582C131.67 134.442 133.434 150.444 143.514 156.24C153.594 162.036 168.336 155.484 176.274 141.624C184.212 127.764 182.574 111.762 172.494 105.966Z" stroke="#230802" stroke-width="1.4"/>
<path d="M32.76 206.653C32.76 206.653 48.0056 185.99 59.2196 172.004C71.0636 157.262 80.0096 150.584 83.9156 147.938C85.6796 146.804 87.8216 146.048 89.9636 146.174C94.1216 146.426 98.5316 151.844 99.0356 154.868C99.5396 158.27 98.4056 161.672 96.2636 164.318C82.0256 182.084 67.7876 209.93 58.4636 237.398" fill="white"/>
<path d="M75.3477 197.96C69.1737 190.778 41.3276 206.15 50.0216 225.68C51.1556 228.326 53.1716 230.72 55.4396 232.736C56.3216 233.618 58.5896 235.004 58.5896 235.004L75.3477 197.96Z" fill="#FE745D"/>
<path d="M32.8856 206.654C32.8856 206.654 48.1316 185.99 59.3456 172.004C71.1896 157.262 80.1356 150.584 84.0416 147.938C85.8056 146.804 87.9476 146.048 90.0896 146.174C94.2476 146.426 98.6576 151.844 99.1616 154.868C99.6656 158.27 98.5316 161.672 96.3896 164.318C82.1516 182.084 67.9136 209.93 58.5896 237.398" stroke="#230802" stroke-width="1.4" stroke-miterlimit="10" stroke-linecap="round" stroke-linejoin="round"/>
<path d="M98.4055 152.852C98.4055 152.852 95.0035 153.23 91.2235 157.892" stroke="#230802" stroke-width="1.4" stroke-miterlimit="10" stroke-linecap="round" stroke-linejoin="round"/>
<path d="M93.9956 147.812C93.9956 147.812 89.2076 148.694 85.8056 152.474" stroke="#230802" stroke-width="1.4" stroke-miterlimit="10" stroke-linecap="round" stroke-linejoin="round"/>
</svg>
