<svg width="252" height="252" viewBox="0 0 252 252" fill="none" xmlns="http://www.w3.org/2000/svg">
<path d="M183.33 78.6238C183.204 78.3718 183.078 78.2458 182.952 78.2458C182.826 78.1198 182.7 77.8678 182.448 77.7418C182.448 77.7418 182.448 77.7418 182.322 77.6158L181.944 77.2378C181.818 77.1118 181.692 76.9858 181.566 76.9858C181.44 76.8598 181.314 76.7338 181.188 76.7338L181.062 76.6078C179.676 75.4738 178.29 74.7178 177.03 74.4658C178.542 73.3318 181.188 70.686 183.96 68.67C185.346 67.662 189.378 70.0558 192.15 73.7098C194.922 77.3638 195.3 80.7658 194.04 81.8998C191.394 84.0418 188.37 86.1838 186.858 87.3178C186.984 86.0578 186.606 84.4198 185.85 82.7818C185.724 82.6558 185.724 82.5298 185.598 82.2778C185.598 82.1518 185.472 82.0258 185.346 81.7738V81.6478C185.22 81.5218 185.22 81.3958 185.094 81.1438C184.968 81.0178 184.842 80.7658 184.842 80.6398C184.716 80.5138 184.716 80.3878 184.59 80.2618L184.464 80.1358C184.212 79.6318 183.834 79.1278 183.33 78.6238Z" fill="#F6E4D9"/>
<path d="M219.24 48.5102C221.256 49.3922 223.272 50.7781 223.65 52.9201C223.65 53.1721 222.138 55.5661 221.76 56.0701C221.382 53.2981 220.374 50.4 217.854 49.266C218.484 49.14 218.862 48.3842 219.24 48.5102Z" fill="#FE745D"/>
<path d="M214.279 49.7536C215.588 49.0992 216.897 48.9684 217.813 49.361C220.169 50.408 221.347 52.1094 221.74 54.596C221.871 55.643 221.347 56.8209 220.431 57.8679C213.494 65.1969 203.285 74.8573 195.3 81.2701C195.431 79.0453 194.121 75.536 192.027 72.7876C189.932 70.0393 186.815 69.0628 184.59 68.6701C193.098 62.7808 205.247 54.3342 214.279 49.7536Z" fill="#F2A85A"/>
<path fill-rule="evenodd" clip-rule="evenodd" d="M175.851 2.78626L55.0651 63.3172C41.7291 69.8747 36.6487 86.3946 43.6342 100.14C50.6197 113.886 67.004 119.561 80.34 113.003L79.0699 113.634C81.356 112.499 84.1502 113.507 85.2933 115.777C86.4364 118.173 85.5473 120.948 83.3882 122.083L32.2033 147.682C18.8673 154.366 13.787 170.886 20.7725 184.505C27.758 198.251 44.1422 203.926 57.4782 197.242L68.2741 191.819C70.5602 190.684 73.3544 191.693 74.4975 193.963C75.6406 196.359 75.5136 198.755 72.7194 200.142C60.7805 206.195 55.3191 222.841 62.3046 236.461C69.2901 250.207 85.6744 255.881 99.0104 249.198L219.796 188.667C233.132 181.983 238.213 165.463 231.227 151.718C224.242 137.972 207.858 132.297 194.522 138.981L182.71 144.908C180.423 146.043 177.629 145.034 176.486 142.764C175.343 140.368 176.232 137.594 178.391 136.459L178.01 136.585C191.346 129.901 196.427 113.381 189.441 99.6358C182.456 85.8902 166.071 80.2154 152.735 86.8991L152.481 87.0252C150.195 88.1601 147.401 87.1513 146.258 84.8814C145.115 82.4854 146.004 79.711 148.163 78.576L200.872 52.2199C214.208 45.5362 219.288 29.0163 212.303 15.2708C205.571 1.90352 189.187 -3.89736 175.851 2.78626Z" fill="#F0EBE6"/>
<path d="M185.346 89.2082C185.346 89.2082 208.278 71.5682 220.122 58.9682C221.256 57.8342 221.76 56.4482 221.508 55.3142C221.382 54.3062 221.004 53.0462 220.248 51.9122C219.492 50.7782 218.358 50.1482 217.35 49.7702C216.216 49.2662 214.83 49.3922 213.444 50.1482C197.946 58.0862 174.762 75.2222 174.762 75.2222" stroke="#230802" stroke-width="1.4" stroke-miterlimit="10" stroke-linecap="round" stroke-linejoin="round"/>
<path d="M221.256 57.4559C222.264 56.4479 223.524 54.5579 223.398 53.5499C223.272 52.6679 223.02 51.5339 222.264 50.5259C221.508 49.5179 220.5 49.0139 219.744 48.6359C218.736 48.2579 216.594 48.8879 215.334 49.6439" stroke="#230802" stroke-width="1.4" stroke-miterlimit="10" stroke-linejoin="round"/>
<path d="M177.534 85.9319C180.306 89.0819 183.582 90.5939 185.346 89.3339C186.858 88.1999 186.606 85.4279 185.094 82.5299C185.094 82.4039 184.968 82.2779 184.842 82.1519C184.716 82.0259 184.59 81.7739 184.59 81.6479C184.464 81.5219 184.338 81.2699 184.212 81.0179C184.086 80.8919 184.086 80.7659 183.96 80.6399C183.834 80.3879 183.582 80.1359 183.456 79.8839C183.33 79.6319 183.078 79.3799 182.952 79.1279C182.826 79.0019 182.7 78.8759 182.574 78.7499C182.448 78.6239 182.322 78.3719 182.07 78.2459C181.944 78.1199 181.818 77.9939 181.566 77.7419C181.44 77.6159 181.314 77.4899 181.188 77.3639C178.794 75.0959 176.148 74.2139 174.636 75.3479C172.998 76.6079 173.502 80.2619 175.644 83.7899" stroke="#230802" stroke-width="1.4" stroke-miterlimit="10" stroke-linecap="round" stroke-linejoin="round"/>
<path d="M179.928 84.1678C182.07 86.5618 184.338 87.8218 185.472 86.9398C186.354 86.1838 186.102 84.2938 184.968 82.0258C184.842 81.8998 184.716 81.6478 184.716 81.5218C184.59 81.2698 184.464 81.1438 184.338 80.8918C184.212 80.7658 184.212 80.6398 184.086 80.5138C183.96 80.2618 183.708 80.0098 183.582 79.7578C183.456 79.5058 183.204 79.2538 183.078 79.0018C182.952 78.8758 182.826 78.7498 182.7 78.6238C182.574 78.4978 182.448 78.2458 182.196 78.1198C182.07 77.9938 181.944 77.8678 181.692 77.6158C179.802 75.8518 178.038 75.0958 177.03 75.7258C175.896 76.4818 176.526 79.1278 178.164 81.7738" stroke="#230802" stroke-width="1.4" stroke-miterlimit="10" stroke-linecap="round" stroke-linejoin="round"/>
<path d="M183.456 69.0481C185.346 67.7881 189.126 69.6781 191.898 73.3321C194.67 77.1121 195.552 81.1441 193.788 82.5301" stroke="#230802" stroke-width="1.4" stroke-miterlimit="10" stroke-linecap="round" stroke-linejoin="round"/>
<path fill-rule="evenodd" clip-rule="evenodd" d="M161.91 95.8862L170.604 93.8702V93.7442C170.604 92.4842 170.226 91.2242 169.47 90.2162C168.714 89.2082 167.58 88.4522 166.446 88.0742H166.32L161.91 95.8862Z" stroke="#230802" stroke-width="1.4" stroke-miterlimit="10" stroke-linecap="round" stroke-linejoin="round"/>
<path d="M170.604 93.9959L172.242 92.8619C172.242 91.3499 171.99 90.4679 170.982 89.2079C170.1 87.9479 169.218 87.4439 167.832 87.0659L166.194 88.1999" stroke="#230802" stroke-width="1.4" stroke-miterlimit="10" stroke-linecap="round" stroke-linejoin="round"/>
<path d="M170.1 87.948L182.322 78.75" stroke="#230802" stroke-width="1.4" stroke-miterlimit="10" stroke-linecap="round" stroke-linejoin="round"/>
<path d="M184.086 81.0181L171.864 90.2161" stroke="#230802" stroke-width="1.4" stroke-miterlimit="10" stroke-linecap="round" stroke-linejoin="round"/>
<path d="M178.542 86.0578L179.802 85.0498C181.692 87.0658 184.086 88.4518 185.598 87.5698C185.472 88.0738 185.346 88.4518 184.968 88.7038C183.708 89.7118 180.936 88.4518 178.542 86.0578Z" fill="#9D513B"/>
<path d="M185.094 86.4359C184.464 86.9399 182.7 86.0579 180.81 84.1679L184.086 81.6479L184.338 82.152C184.464 82.404 184.59 82.6559 184.716 82.9079C185.472 84.9239 185.472 86.1839 185.094 86.4359Z" fill="#9D513B"/>
<path d="M180.558 77.4901L180.684 77.6161C180.81 77.7421 181.062 77.8681 181.188 78.1201L181.566 78.4981L178.29 81.0181C177.03 78.7501 176.778 76.8601 177.282 76.3561C177.912 75.9781 179.046 76.3561 180.558 77.4901Z" fill="#9D513B"/>
<path d="M175.14 75.7262C175.518 75.4742 175.896 75.3482 176.4 75.4742C175.14 76.7342 175.896 79.3802 177.282 81.7742L176.022 82.7822C174.258 79.7582 173.88 76.7342 175.14 75.7262Z" fill="#9D513B"/>
<path d="M163.17 95.0041L166.572 88.8301C168.462 89.4601 169.848 91.3501 169.974 93.3661L163.17 95.0041Z" fill="white"/>
<path d="M171.486 88.7039C171.36 88.4519 171.108 88.3259 170.982 88.0739L182.448 79.3799C182.826 79.7579 183.078 80.2619 183.33 80.6399L179.424 83.6639L177.156 85.4279L171.99 89.3339C171.864 89.2079 171.738 88.9559 171.486 88.7039Z" fill="white"/>
<path fill-rule="evenodd" clip-rule="evenodd" d="M191.268 90.342C191.016 89.838 190.764 89.334 190.386 88.83C186.48 82.908 180.306 73.206 177.912 69.552C177.66 69.048 177.408 68.544 177.03 68.166C176.652 67.788 176.274 67.41 175.896 67.158C175.644 66.906 175.518 66.78 175.266 66.528L166.32 61.488C162.918 59.094 158.508 59.094 155.106 61.236C143.892 68.544 116.928 85.428 86.9401 109.746C68.2921 124.614 48.6361 142.38 30.7441 162.54C29.6101 163.8 29.3581 165.438 29.9881 166.824C30.1141 167.076 30.2401 167.454 30.4921 167.706C30.8701 168.462 31.2481 169.092 31.7521 169.722C37.5481 179.298 42.0841 185.472 45.6121 189.504C48.8881 193.284 52.7941 196.56 57.0781 199.08L58.8421 200.088C58.9681 200.214 59.2201 200.214 59.3461 200.34C68.2921 204.75 69.6781 204.498 73.7101 201.348C95.3821 185.22 139.482 147.294 191.394 104.076C193.032 102.564 197.064 98.91 191.268 90.342Z" fill="#F6E4D9"/>
<path fill-rule="evenodd" clip-rule="evenodd" d="M44.6039 179.298L52.0379 189.126L44.6039 184.842L39.8159 177.408L44.6039 179.298Z" fill="#9D513B"/>
<path fill-rule="evenodd" clip-rule="evenodd" d="M175.266 66.402L166.32 61.362C162.918 58.968 158.508 58.968 155.106 61.11C136.962 72.954 77.9941 109.62 30.7441 162.54C28.9801 164.556 29.4841 167.706 31.7521 169.092L43.0921 175.644C47.2501 178.038 52.6681 177.282 55.9441 173.754C70.5601 158.13 113.022 115.164 175.14 74.088C177.912 72.324 177.912 68.292 175.266 66.402Z" fill="white"/>
<path fill-rule="evenodd" clip-rule="evenodd" d="M176.148 66.402L167.202 61.362C163.8 58.968 159.39 58.968 155.988 61.11C137.844 72.954 78.75 109.62 31.5 162.54C29.736 164.556 30.24 167.706 32.508 169.092L43.848 175.644C48.006 178.038 53.424 177.282 56.7 173.754C71.316 158.13 113.778 115.164 175.896 74.214C178.668 72.324 178.794 68.292 176.148 66.402Z" fill="white"/>
<path fill-rule="evenodd" clip-rule="evenodd" d="M175.266 66.402L166.32 61.362C162.918 58.968 158.508 58.968 155.106 61.11C136.962 72.954 77.9941 109.62 30.7441 162.54C28.9801 164.556 29.4841 167.706 31.7521 169.092L43.0921 175.644C47.2501 178.038 52.6681 177.282 55.9441 173.754C70.5601 158.13 113.022 115.164 175.14 74.088C177.912 72.324 177.912 68.292 175.266 66.402Z" stroke="#230802" stroke-width="1.4" stroke-miterlimit="10" stroke-linecap="round" stroke-linejoin="round"/>
<path d="M175.896 67.0322C178.542 68.9222 180.306 74.3402 175.896 77.3642C113.904 118.566 71.3161 161.406 56.7001 176.904C53.4241 180.432 48.0061 181.188 43.8481 178.794L38.3041 175.518C34.5241 173.376 31.7521 170.73 29.8621 166.698" stroke="#230802" stroke-width="1.4" stroke-miterlimit="10" stroke-linecap="round" stroke-linejoin="round"/>
<path d="M30.9961 168.84C37.1701 178.92 41.7061 185.346 45.3601 189.504C48.6361 193.284 52.5421 196.56 56.8261 199.08L58.5901 200.088C62.4961 202.356 67.5361 201.978 71.0641 199.206C93.2401 181.44 137.34 144.648 189.756 101.052C191.646 99.414 192.78 97.02 192.528 94.5C192.402 92.862 191.772 90.972 190.26 88.83C185.346 81.522 176.904 68.166 176.904 68.166" stroke="#230802" stroke-width="1.4" stroke-miterlimit="10" stroke-linecap="round" stroke-linejoin="round"/>
<path d="M59.094 200.34C68.04 204.75 69.426 204.498 73.458 201.348C95.13 185.22 139.23 147.294 191.142 104.076C193.032 102.438 197.064 98.9098 191.268 90.3418" stroke="#230802" stroke-width="1.4" stroke-miterlimit="10" stroke-linecap="round" stroke-linejoin="round"/>
<path d="M74.466 196.056L58.842 174.762" stroke="#230802" stroke-width="1.4" stroke-miterlimit="10" stroke-linecap="round" stroke-linejoin="round"/>
<path d="M45.2342 179.55L57.4562 196.686L43.7222 187.488L45.6122 185.22L53.1722 190.638" stroke="#230802" stroke-width="1.4" stroke-miterlimit="10" stroke-linecap="round" stroke-linejoin="round"/>
<path d="M45.6121 185.22C45.6121 185.22 40.9501 179.046 38.9341 176.148" stroke="#230802" stroke-width="1.4" stroke-miterlimit="10" stroke-linecap="round" stroke-linejoin="round"/>
<path d="M113.904 92.6099C113.904 92.6099 108.36 101.682 109.494 118.944" stroke="#230802" stroke-width="1.4" stroke-miterlimit="10" stroke-linecap="round" stroke-linejoin="round"/>
<path d="M169.974 77.49L162.666 72.45C162.162 72.072 161.532 72.072 161.028 72.45L149.814 80.388C149.436 80.64 149.436 81.27 149.814 81.648L156.87 86.562" stroke="#230802" stroke-width="1.4" stroke-miterlimit="10" stroke-linecap="round" stroke-linejoin="round"/>
<path d="M72.4499 156.24L63.3779 151.956C62.8739 151.704 62.2439 151.83 61.7399 152.208L52.7939 161.658C52.4159 162.036 52.5419 162.666 52.9199 162.918L61.7399 167.706" stroke="#230802" stroke-width="1.4" stroke-miterlimit="10" stroke-linecap="round" stroke-linejoin="round"/>
<path d="M149.94 64.5122L155.358 67.7882C155.736 68.0402 155.736 68.6702 155.358 68.9222L144.396 76.2302C143.892 76.4822 143.388 76.6082 142.884 76.2302L136.962 72.8282" stroke="#230802" stroke-width="1.4" stroke-miterlimit="10" stroke-linejoin="round"/>
<path d="M47.376 144.9L53.55 148.05C53.928 148.302 53.928 148.932 53.55 149.184L45.486 157.626C44.982 157.878 44.478 158.004 43.974 157.626L38.052 154.224" stroke="#230802" stroke-width="1.4" stroke-miterlimit="10" stroke-linejoin="round"/>
<path d="M166.32 61.4878C166.32 61.4878 159.138 68.7958 172.494 64.8898" stroke="#230802" stroke-width="1.4" stroke-miterlimit="10" stroke-linecap="round" stroke-linejoin="round"/>
<path d="M164.304 66.0239C164.304 66.0239 148.806 76.6079 122.22 96.0119" stroke="#230802" stroke-width="1.4" stroke-miterlimit="10" stroke-linecap="round" stroke-linejoin="round"/>
<path d="M43.0919 175.644C43.0919 175.644 45.1079 163.548 34.5239 170.352" stroke="#230802" stroke-width="1.4" stroke-miterlimit="10" stroke-linecap="round" stroke-linejoin="round"/>
<path fill-rule="evenodd" clip-rule="evenodd" d="M124.48 105.833C124.48 105.833 118.558 98.1469 111.25 98.0209C111.25 98.0209 109.738 97.1389 98.02 106.841C86.302 116.543 66.52 133.175 66.52 133.175C66.52 133.175 62.992 136.451 65.134 137.459C67.276 138.341 80.5 144 80.5 144L87.814 136.829L124.48 105.833Z" fill="#9FDCB2"/>
<path fill-rule="evenodd" clip-rule="evenodd" d="M113.904 92.6099L130.284 100.044C131.04 100.422 131.166 101.304 130.536 101.808C123.858 107.226 94.4998 130.788 81.3958 143.64C80.8918 144.144 80.0098 144.27 79.3798 144.018L62.4958 136.458C61.7398 136.08 61.6138 135.072 62.1178 134.568C67.1578 129.78 86.9398 111.132 112.014 92.8619C112.518 92.3579 113.274 92.3579 113.904 92.6099Z" stroke="#230802" stroke-width="1.4" stroke-miterlimit="10" stroke-linecap="round" stroke-linejoin="round"/>
<path d="M64 137.081C64.504 135.569 65.26 134.309 66.52 133.301C70.93 129.773 78.616 132.167 83.656 138.593C83.908 138.971 84.286 139.349 84.538 139.727" stroke="#230802" stroke-width="1.4" stroke-miterlimit="10" stroke-linecap="round" stroke-linejoin="round"/>
<path d="M66.3945 133.301L106.463 99.785L106.589 99.659C110.999 96.131 118.685 98.525 123.725 104.951C123.977 105.203 124.229 105.581 124.355 105.833" stroke="#230802" stroke-width="1.4" stroke-miterlimit="10" stroke-linecap="round" stroke-linejoin="round"/>
<path d="M69.6779 139.734C69.6779 139.734 57.5819 150.066 42.3359 168.336" stroke="#230802" stroke-width="1.4" stroke-miterlimit="10" stroke-linecap="round" stroke-linejoin="round"/>
<path d="M126.518 89.0962C128.522 87.8375 129.575 85.9096 128.872 84.7901C128.168 83.6706 125.974 83.7835 123.971 85.0422C121.968 86.3009 120.914 88.2288 121.617 89.3483C122.321 90.4678 124.515 90.3549 126.518 89.0962Z" fill="#FE745D" stroke="#230802" stroke-width="1.4" stroke-miterlimit="10" stroke-linecap="round" stroke-linejoin="round"/>
<path d="M182.728 185.779C180.176 185.779 178.103 183.708 178.103 181.159C178.103 181 177.944 181 177.944 181C177.784 181 177.784 181.159 177.784 181.159C177.784 183.708 175.711 185.779 173.159 185.779C173 185.779 173 185.938 173 185.938C173 186.098 173.159 186.098 173.159 186.098C175.711 186.098 177.784 188.169 177.784 190.717C177.784 190.877 177.944 190.877 177.944 190.877C178.103 190.877 178.103 190.717 178.103 190.717C178.103 188.169 180.176 186.098 182.728 186.098C182.887 186.098 182.887 185.938 182.887 185.938C182.887 185.779 182.728 185.779 182.728 185.779Z" fill="#F2A85A"/>
<path d="M153.774 32.7742C150.161 32.7742 147.226 29.8387 147.226 26.2258C147.226 26 147 26 147 26C146.774 26 146.774 26.2258 146.774 26.2258C146.774 29.8387 143.839 32.7742 140.226 32.7742C140 32.7742 140 33 140 33C140 33.2258 140.226 33.2258 140.226 33.2258C143.839 33.2258 146.774 36.1613 146.774 39.7742C146.774 40 147 40 147 40C147.226 40 147.226 39.7742 147.226 39.7742C147.226 36.1613 150.161 33.2258 153.774 33.2258C154 33.2258 154 33 154 33C154 32.7742 153.774 32.7742 153.774 32.7742Z" fill="#F2A85A"/>
<path d="M137.887 41.3871C136.081 41.3871 134.613 39.9194 134.613 38.1129C134.613 38 134.5 38 134.5 38C134.387 38 134.387 38.1129 134.387 38.1129C134.387 39.9194 132.919 41.3871 131.113 41.3871C131 41.3871 131 41.5 131 41.5C131 41.6129 131.113 41.6129 131.113 41.6129C132.919 41.6129 134.387 43.0806 134.387 44.8871C134.387 45 134.5 45 134.5 45C134.613 45 134.613 44.8871 134.613 44.8871C134.613 43.0806 136.081 41.6129 137.887 41.6129C138 41.6129 138 41.5 138 41.5C138 41.3871 137.887 41.3871 137.887 41.3871Z" fill="#F2A85A"/>
<path d="M207.213 96.6053C207.213 96.6053 185.668 88.9705 170.426 84.2494C154.341 79.285 144.415 78.8217 140.216 78.8183C138.349 78.8617 136.393 79.3723 134.876 80.5333C131.936 82.7924 131.386 88.9864 132.522 91.4675C133.847 94.2273 136.379 96.1703 139.278 97.0533C158.635 103.054 183.019 116.487 203.59 132.091" fill="white"/>
<path d="M171.476 111.431C172.447 103.056 200.645 100.506 203.973 119.242C204.456 121.758 204.163 124.529 203.496 127.146C203.285 128.237 202.304 130.389 202.304 130.389L171.476 111.431Z" fill="#FE745D"/>
<path d="M207.121 96.6682C207.121 96.6682 185.575 89.0335 170.333 84.3124C154.249 79.348 144.322 78.8847 140.123 78.8813C138.257 78.9247 136.3 79.4353 134.784 80.5963C131.843 82.8554 131.293 89.0494 132.429 91.5305C133.754 94.2903 136.287 96.2333 139.185 97.1163C158.543 103.117 182.926 116.55 203.498 132.154" stroke="#230802" stroke-width="1.4" stroke-miterlimit="10" stroke-linecap="round" stroke-linejoin="round"/>
<path d="M131.982 89.667C131.982 89.667 134.679 88.2494 139.791 89.8021" stroke="#230802" stroke-width="1.4" stroke-miterlimit="10" stroke-linecap="round" stroke-linejoin="round"/>
<path d="M132.72 83.752C132.72 83.752 136.691 82.0149 141.084 83.1057" stroke="#230802" stroke-width="1.4" stroke-miterlimit="10" stroke-linecap="round" stroke-linejoin="round"/>
</svg>
