<?xml version="1.0" standalone="no"?>
<!DOCTYPE svg PUBLIC "-//W3C//DTD SVG 20010904//EN"
 "http://www.w3.org/TR/2001/REC-SVG-20010904/DTD/svg10.dtd">
<svg version="1.0" xmlns="http://www.w3.org/2000/svg"
 width="960.000000pt" height="960.000000pt" viewBox="0 0 960.000000 960.000000"
 preserveAspectRatio="xMidYMid meet">

<g transform="translate(0.000000,960.000000) scale(0.100000,-0.100000)"
fill="#000000" stroke="none">
<path d="M8180 8300 c0 -5 -22 -12 -50 -16 -27 -4 -50 -10 -50 -15 0 -5 -9 -9
-20 -9 -11 0 -20 -4 -20 -10 0 -5 -5 -10 -11 -10 -14 0 -39 -25 -39 -39 0 -15
-127 -141 -141 -141 -7 0 -22 -11 -35 -25 -13 -14 -28 -25 -35 -25 -6 0 -24
-13 -39 -30 -15 -16 -35 -30 -44 -30 -9 0 -16 -4 -16 -10 0 -5 -8 -10 -18 -10
-10 0 -24 -9 -32 -20 -11 -15 -26 -20 -57 -20 -24 0 -43 5 -43 10 0 6 -22 10
-50 10 -27 0 -50 5 -50 10 0 6 -9 10 -20 10 -11 0 -20 5 -20 10 0 6 -9 10 -20
10 -11 0 -20 5 -20 10 0 6 -16 10 -35 10 -19 0 -35 5 -35 10 0 6 -13 10 -30
10 -16 0 -30 5 -30 10 0 6 -22 10 -49 10 -29 0 -51 5 -53 12 -6 17 -490 18
-495 1 -3 -7 -20 -13 -39 -13 -19 0 -34 -4 -34 -10 0 -5 -9 -10 -20 -10 -11 0
-20 -4 -20 -10 0 -5 -18 -10 -40 -10 -22 0 -40 -4 -40 -10 0 -5 -9 -10 -20
-10 -11 0 -20 -4 -20 -10 0 -5 -7 -10 -15 -10 -8 0 -15 -4 -15 -10 0 -5 -9
-10 -20 -10 -11 0 -20 -4 -20 -10 0 -5 -9 -10 -20 -10 -11 0 -20 -4 -20 -10 0
-5 -8 -10 -18 -10 -10 0 -24 -9 -32 -20 -8 -12 -26 -20 -42 -20 -15 0 -28 -4
-28 -10 0 -5 -9 -10 -20 -10 -11 0 -23 -7 -26 -15 -4 -8 -14 -15 -23 -15 -9 0
-23 -9 -31 -20 -8 -11 -26 -20 -40 -20 -14 0 -32 -9 -40 -20 -8 -11 -22 -20
-32 -20 -10 0 -18 -4 -18 -10 0 -5 -9 -10 -19 -10 -11 0 -23 -9 -26 -20 -3
-11 -14 -20 -23 -20 -10 0 -24 -9 -32 -20 -8 -11 -21 -20 -29 -20 -7 0 -21 -8
-30 -19 -9 -10 -32 -22 -51 -26 -19 -4 -46 -20 -61 -36 -15 -16 -31 -29 -36
-29 -5 0 -15 -9 -23 -20 -8 -11 -21 -20 -30 -20 -9 0 -22 -9 -30 -20 -8 -11
-22 -20 -32 -20 -10 0 -18 -4 -18 -10 0 -5 -9 -10 -20 -10 -11 0 -20 -4 -20
-10 0 -5 -9 -10 -19 -10 -11 0 -23 -9 -26 -20 -3 -11 -15 -20 -25 -20 -10 0
-25 -7 -34 -15 -8 -8 -22 -15 -30 -15 -9 0 -16 -4 -16 -10 0 -5 -8 -10 -18
-10 -10 0 -24 -9 -32 -20 -8 -11 -21 -20 -30 -20 -9 0 -22 -9 -30 -20 -8 -11
-19 -20 -25 -20 -6 0 -17 -9 -25 -20 -8 -11 -21 -20 -30 -20 -9 0 -22 -9 -30
-20 -8 -11 -21 -20 -30 -20 -9 0 -22 -9 -30 -19 -7 -11 -31 -23 -52 -26 -21
-4 -38 -10 -38 -14 0 -14 -37 -51 -51 -51 -8 0 -21 -9 -29 -20 -8 -11 -21 -20
-30 -20 -9 0 -22 -9 -30 -20 -8 -11 -21 -20 -28 -20 -8 0 -27 -13 -42 -30 -15
-16 -33 -30 -39 -30 -6 0 -11 -4 -11 -10 0 -5 -12 -13 -27 -16 -16 -4 -35 -15
-44 -26 -9 -10 -22 -18 -29 -18 -6 0 -25 -13 -40 -30 -15 -16 -34 -30 -42 -30
-7 0 -20 -9 -28 -20 -8 -11 -18 -20 -23 -20 -5 0 -22 -13 -37 -30 -15 -16 -34
-30 -42 -30 -7 0 -20 -9 -28 -20 -8 -11 -22 -20 -32 -20 -9 0 -33 -16 -52 -35
-20 -19 -39 -35 -43 -35 -5 0 -15 -9 -23 -20 -8 -11 -21 -20 -28 -20 -8 0 -27
-13 -42 -30 -15 -16 -33 -30 -40 -30 -7 0 -25 -13 -40 -30 -15 -16 -34 -30
-42 -30 -7 0 -27 -16 -43 -35 -17 -19 -36 -35 -43 -35 -8 0 -27 -13 -42 -30
-15 -16 -33 -30 -40 -30 -7 0 -25 -13 -40 -30 -15 -16 -35 -30 -44 -30 -9 0
-16 -4 -16 -10 0 -15 -50 -60 -66 -60 -9 0 -29 -13 -44 -30 -15 -16 -33 -30
-40 -30 -6 0 -29 -18 -50 -40 -21 -22 -41 -40 -45 -40 -4 0 -20 -13 -35 -30
-15 -16 -33 -30 -39 -30 -12 0 -25 -9 -66 -47 -13 -13 -29 -23 -36 -23 -13 0
-69 -58 -69 -71 0 -5 -7 -9 -16 -9 -8 0 -33 -18 -54 -40 -21 -22 -43 -40 -50
-40 -6 0 -21 -10 -34 -22 -13 -13 -33 -30 -45 -38 -11 -8 -24 -22 -27 -32 -3
-10 -12 -18 -20 -18 -9 0 -37 -22 -64 -50 -27 -27 -54 -50 -60 -50 -6 0 -26
-16 -46 -35 -19 -19 -39 -35 -45 -35 -6 0 -32 -22 -59 -50 -27 -27 -54 -50
-60 -50 -6 0 -38 -27 -70 -60 -32 -33 -62 -60 -65 -60 -8 0 -27 -16 -80 -67
-25 -24 -49 -43 -55 -43 -12 0 -94 -82 -120 -119 -8 -11 -22 -21 -32 -21 -10
0 -47 -29 -83 -65 -35 -36 -71 -65 -79 -65 -7 0 -16 -13 -19 -30 -4 -18 -13
-30 -22 -30 -15 0 -33 -15 -140 -117 -30 -29 -61 -53 -69 -53 -8 0 -17 -8 -21
-17 -3 -10 -28 -38 -56 -63 -69 -62 -169 -162 -199 -199 -14 -17 -31 -31 -38
-31 -13 0 -46 -29 -135 -117 -104 -105 -137 -143 -137 -158 0 -8 -4 -15 -9
-15 -16 0 -71 -58 -71 -74 0 -9 -4 -16 -10 -16 -5 0 -10 -9 -10 -20 0 -11 -4
-20 -10 -20 -5 0 -10 -9 -10 -20 0 -11 -4 -20 -10 -20 -5 0 -10 -20 -10 -45 0
-25 5 -45 10 -45 6 0 10 -9 10 -19 0 -11 6 -22 13 -24 9 -4 8 -8 -3 -17 -11
-9 -12 -13 -2 -17 6 -2 12 -18 12 -34 0 -16 5 -29 10 -29 6 0 10 -13 10 -30 0
-16 5 -30 10 -30 6 0 10 -11 10 -25 0 -14 5 -25 10 -25 6 0 10 -9 10 -20 0
-11 5 -20 10 -20 6 0 10 -13 10 -30 0 -16 5 -30 10 -30 6 0 10 -13 10 -30 0
-16 5 -30 10 -30 6 0 10 -7 10 -16 0 -16 36 -54 51 -54 4 0 10 -27 14 -60 4
-33 11 -60 16 -60 5 0 9 -13 9 -30 0 -16 5 -30 10 -30 6 0 10 -9 10 -20 0 -11
5 -20 10 -20 6 0 10 -11 10 -25 0 -14 5 -25 10 -25 6 0 10 -13 10 -30 0 -16 5
-30 10 -30 6 0 10 -13 10 -30 0 -16 5 -30 10 -30 6 0 10 -13 10 -30 0 -16 5
-30 10 -30 6 0 10 -7 10 -15 0 -8 5 -15 10 -15 6 0 10 -13 10 -30 0 -16 5 -30
10 -30 6 0 10 -13 10 -30 0 -16 5 -30 10 -30 6 0 10 -13 10 -30 0 -16 5 -30
10 -30 6 0 10 -11 10 -25 0 -14 4 -25 9 -25 5 0 11 -23 15 -50 4 -28 11 -50
16 -50 6 0 10 -7 10 -15 0 -18 64 -85 81 -85 6 0 19 -8 28 -18 9 -11 28 -22
44 -26 15 -3 27 -11 27 -16 0 -6 5 -10 11 -10 6 0 24 -13 39 -30 15 -16 34
-30 42 -30 7 0 20 -9 28 -20 8 -11 21 -20 30 -20 9 0 22 -9 30 -20 8 -11 21
-20 30 -20 9 0 22 -9 30 -20 8 -11 20 -20 27 -20 7 0 13 -4 13 -10 0 -5 12
-13 28 -16 15 -4 39 -20 54 -36 14 -15 32 -28 40 -28 7 0 20 -9 28 -20 8 -11
22 -20 31 -20 10 0 20 -6 22 -12 4 -10 8 -9 17 2 12 17 4 113 -11 118 -5 2 -9
17 -9 33 0 16 -4 29 -10 29 -5 0 -10 14 -10 30 0 17 -4 30 -10 30 -5 0 -10 14
-10 30 0 17 -4 30 -10 30 -5 0 -10 11 -10 25 0 14 -4 25 -10 25 -5 0 -10 14
-10 30 0 17 -4 30 -10 30 -5 0 -10 14 -10 30 0 17 -4 30 -10 30 -5 0 -10 14
-10 30 0 17 -4 30 -10 30 -5 0 -10 14 -10 30 0 17 -4 30 -10 30 -5 0 -10 11
-10 25 0 14 -4 25 -10 25 -5 0 -10 14 -10 30 0 17 -4 30 -9 30 -5 0 -12 27
-16 60 -4 33 -11 60 -16 60 -5 0 -9 16 -9 35 0 19 -4 35 -10 35 -5 0 -10 7
-10 16 0 20 -24 44 -44 44 -9 0 -16 5 -16 10 0 6 -8 10 -18 10 -10 0 -24 9
-32 20 -8 11 -21 20 -30 20 -9 0 -22 9 -30 20 -8 11 -18 20 -23 20 -5 0 -15 7
-23 15 -9 8 -24 15 -35 15 -10 0 -19 5 -19 10 0 6 -8 10 -18 10 -10 0 -24 9
-32 20 -8 11 -21 20 -30 20 -9 0 -22 9 -30 20 -8 11 -22 20 -32 20 -9 0 -20 9
-23 20 -3 11 -15 20 -26 20 -10 0 -19 5 -19 10 0 6 -7 10 -16 10 -9 0 -28 13
-43 29 -15 16 -42 32 -61 36 -19 4 -47 21 -63 38 l-28 30 7 -29 c8 -32 20 -44
47 -44 9 0 17 -4 17 -10 0 -5 9 -10 20 -10 16 0 20 -7 20 -30 0 -16 5 -30 10
-30 6 0 10 -9 10 -20 0 -11 5 -20 10 -20 6 0 10 -13 10 -30 0 -16 5 -30 10
-30 6 0 10 -11 10 -25 0 -14 5 -25 10 -25 6 0 10 -13 10 -30 0 -16 5 -30 10
-30 6 0 10 -13 10 -30 0 -16 5 -30 10 -30 6 0 10 -18 10 -40 0 -22 4 -40 9
-40 5 0 13 -25 16 -55 4 -30 11 -55 16 -55 5 0 9 -13 9 -30 0 -16 5 -30 10
-30 6 0 10 -13 10 -30 0 -16 5 -30 10 -30 6 0 10 -11 10 -25 0 -14 5 -25 10
-25 6 0 10 -7 10 -16 0 -15 23 -44 34 -44 15 0 4 37 -14 50 -11 8 -20 25 -20
37 0 13 -4 23 -10 23 -5 0 -10 14 -10 30 0 17 -4 30 -10 30 -5 0 -10 14 -10
30 0 17 -4 30 -10 30 -5 0 -10 13 -10 29 0 16 -4 31 -10 33 -5 1 -13 31 -16
65 -4 35 -11 63 -15 63 -5 0 -9 14 -9 30 0 17 -4 30 -10 30 -5 0 -10 14 -10
30 0 17 -4 30 -10 30 -5 0 -10 11 -10 25 0 14 -4 25 -10 25 -5 0 -10 14 -10
30 0 17 -4 30 -10 30 -5 0 -10 9 -10 20 0 13 7 20 20 20 11 0 20 -4 20 -10 0
-5 8 -10 18 -10 10 0 24 -9 32 -20 8 -11 20 -20 27 -20 7 0 13 -4 13 -10 0 -5
7 -10 15 -10 19 0 70 -49 61 -58 -4 -3 -11 0 -17 8 -8 13 -10 13 -18 0 -8 -12
-13 -11 -29 8 -25 28 -62 30 -62 2 0 -11 4 -20 9 -20 5 0 13 -25 16 -55 4 -30
11 -55 16 -55 5 0 9 -22 9 -50 0 -27 5 -50 10 -50 6 0 10 -11 10 -25 0 -14 5
-25 10 -25 6 0 10 -13 10 -30 0 -16 5 -30 10 -30 6 0 10 -13 10 -30 0 -16 5
-30 10 -30 6 0 10 -9 10 -20 0 -11 5 -20 10 -20 6 0 10 -13 10 -30 0 -16 5
-30 10 -30 6 0 10 -18 10 -41 0 -41 17 -69 42 -69 8 0 20 -9 28 -20 8 -11 19
-20 25 -20 6 0 17 -9 25 -20 8 -11 21 -20 30 -20 9 0 22 -9 30 -20 8 -11 22
-20 32 -20 10 0 18 -4 18 -10 0 -5 12 -13 28 -16 15 -4 34 -15 43 -26 9 -10
20 -18 25 -18 5 0 16 -9 24 -20 8 -11 21 -20 30 -20 9 0 22 -9 30 -20 8 -11
22 -20 31 -20 10 0 19 -6 22 -12 2 -7 8 -10 12 -6 9 8 -60 78 -77 78 -8 0 -20
9 -28 20 -8 11 -20 20 -27 20 -7 0 -13 4 -13 10 0 5 -12 13 -27 16 -16 4 -35
15 -44 26 -9 10 -23 18 -30 18 -8 0 -21 9 -29 20 -8 11 -21 20 -30 20 -9 0
-22 9 -30 20 -8 11 -22 20 -32 20 -9 0 -20 9 -23 20 -3 11 -13 20 -21 20 -25
0 -44 26 -44 59 0 17 -4 31 -10 31 -5 0 -10 18 -10 40 0 22 -4 40 -10 40 -5 0
-10 9 -10 20 0 11 -4 20 -10 20 -5 0 -10 9 -10 20 0 11 -4 20 -10 20 -5 0 -10
14 -10 30 0 17 -4 30 -10 30 -5 0 -10 11 -10 25 0 14 -4 25 -10 25 -5 0 -10
23 -10 50 0 28 -4 50 -10 50 -5 0 -10 13 -10 29 0 16 -4 31 -8 33 -5 1 -12 18
-15 36 -6 29 -5 31 8 20 44 -40 47 -41 55 -27 5 8 28 13 59 13 39 0 54 -5 69
-22 11 -12 23 -22 28 -22 5 0 16 -9 24 -20 8 -11 21 -20 30 -20 9 0 22 -9 30
-20 8 -11 22 -20 32 -20 14 0 18 -8 18 -36 0 -19 6 -42 14 -50 20 -19 26 -18
26 6 0 11 -4 20 -10 20 -5 0 -10 9 -10 20 0 26 6 25 35 -5 16 -15 25 -36 25
-55 0 -16 5 -30 10 -30 6 0 10 -13 10 -30 0 -16 4 -30 9 -30 5 0 12 -27 16
-60 4 -33 11 -60 16 -60 5 0 9 -11 9 -25 0 -14 5 -25 10 -25 6 0 10 -13 10
-30 0 -16 5 -30 10 -30 6 0 10 -13 10 -30 0 -16 5 -30 10 -30 6 0 10 -13 10
-30 0 -16 5 -30 10 -30 6 0 10 -13 10 -30 0 -16 5 -30 10 -30 6 0 10 -11 10
-25 0 -14 5 -25 10 -25 6 0 10 -13 10 -30 0 -16 5 -30 10 -30 6 0 10 -13 10
-30 0 -16 5 -30 10 -30 6 0 10 -13 10 -30 0 -16 5 -30 10 -30 6 0 10 -11 10
-25 0 -14 5 -25 10 -25 6 0 10 -13 10 -30 0 -37 -5 -37 -40 0 -15 16 -33 30
-39 30 -7 0 -23 11 -37 25 -14 14 -33 25 -42 25 -10 0 -24 9 -32 20 -8 11 -19
20 -25 20 -6 0 -17 9 -25 20 -8 11 -21 20 -30 20 -9 0 -22 9 -30 20 -8 11 -21
20 -30 20 -9 0 -22 9 -30 20 -8 11 -21 20 -28 20 -8 0 -26 13 -41 29 -14 15
-36 31 -49 35 -12 4 -22 12 -22 17 0 5 -8 9 -18 9 -10 0 -24 9 -32 20 -8 11
-20 20 -27 20 -19 0 -103 86 -103 105 0 8 -4 15 -9 15 -5 0 -12 25 -16 55 -3
30 -11 55 -16 55 -5 0 -9 14 -9 30 0 17 -4 30 -10 30 -5 0 -10 14 -10 30 0 17
-4 30 -10 30 -5 0 -10 14 -10 30 0 17 -4 30 -10 30 -5 0 -10 7 -10 15 0 8 -4
15 -10 15 -5 0 -10 14 -10 30 0 17 -4 30 -10 30 -5 0 -10 14 -10 30 0 17 -4
30 -10 30 -5 0 -10 14 -10 30 0 17 -4 30 -10 30 -5 0 -10 11 -10 25 0 14 -4
25 -10 25 -5 0 -10 9 -10 20 0 11 -4 20 -10 20 -5 0 -10 14 -10 30 0 17 -4 30
-10 30 -5 0 -10 14 -10 30 0 17 -4 30 -9 30 -4 0 -11 18 -14 40 -3 28 -15 49
-36 69 -24 22 -31 38 -31 65 0 20 -4 36 -10 36 -5 0 -10 9 -10 20 0 11 -4 20
-10 20 -5 0 -10 14 -10 30 0 17 -4 30 -10 30 -5 0 -10 11 -10 25 0 14 -4 25
-10 25 -5 0 -10 9 -10 20 0 11 -4 20 -10 20 -5 0 -10 13 -10 29 0 16 -6 31
-12 33 -9 3 -7 10 6 24 14 13 21 15 24 6 2 -6 12 -12 23 -12 10 0 19 -4 19
-10 0 -5 9 -10 20 -10 11 0 20 -4 20 -10 0 -5 9 -10 20 -10 11 0 20 -4 20 -10
0 -5 7 -10 15 -10 8 0 15 -4 15 -10 0 -5 9 -10 20 -10 11 0 20 -4 20 -10 0 -5
8 -10 18 -10 10 0 24 -9 32 -20 8 -11 22 -20 32 -20 10 0 18 -4 18 -10 0 -5 9
-10 19 -10 11 0 26 -7 35 -15 8 -8 21 -15 30 -15 8 0 18 -9 21 -20 3 -11 13
-20 22 -20 8 0 28 -13 43 -30 15 -16 33 -30 40 -30 7 0 25 -13 40 -30 15 -16
34 -30 42 -30 7 0 20 -9 28 -20 8 -11 18 -20 23 -20 5 0 15 -7 23 -15 9 -8 24
-15 35 -15 10 0 19 -4 19 -10 0 -5 14 -10 30 -10 17 0 30 -4 30 -10 0 -6 48
-10 125 -10 77 0 125 4 125 10 0 6 -48 10 -125 10 -69 0 -125 4 -125 9 0 5
-17 12 -38 16 -21 3 -45 15 -52 26 -8 10 -22 19 -32 19 -9 0 -20 9 -23 20 -3
11 -13 20 -22 20 -8 0 -28 13 -43 30 -15 16 -33 30 -40 30 -7 0 -25 13 -40 30
-15 17 -34 30 -40 30 -7 0 -20 8 -29 19 -9 10 -26 21 -38 25 -13 4 -23 12 -23
17 0 5 -9 9 -20 9 -11 0 -20 5 -20 10 0 6 -8 10 -18 10 -10 0 -24 9 -32 20 -8
11 -22 20 -32 20 -10 0 -18 5 -18 10 0 6 -9 10 -20 10 -11 0 -20 5 -20 10 0 6
-7 10 -15 10 -8 0 -15 5 -15 10 0 6 -13 10 -28 10 -16 0 -34 8 -42 20 -8 11
-22 20 -32 20 -10 0 -18 5 -18 10 0 6 -12 10 -26 10 -36 0 -54 22 -54 67 0 27
6 43 20 53 11 8 20 22 20 32 0 10 5 18 10 18 6 0 10 7 10 16 0 8 18 33 40 54
22 21 40 41 40 45 0 7 42 52 137 148 99 99 120 117 135 117 8 0 20 10 28 22
13 19 116 123 212 214 18 17 40 41 48 53 8 11 20 21 27 21 8 0 42 28 78 63 86
83 113 107 120 107 12 0 35 29 35 44 0 9 7 16 15 16 9 0 47 32 85 70 38 39 74
70 81 70 6 0 40 29 74 65 35 36 68 65 74 65 6 0 36 25 66 55 31 30 60 55 66
55 5 0 37 27 69 60 32 33 64 60 70 60 12 0 74 61 100 99 8 11 22 21 32 21 9 0
28 11 42 25 14 14 30 25 36 25 6 0 33 23 60 50 27 28 51 50 55 50 3 0 25 19
50 43 59 57 72 67 85 67 7 0 29 18 50 40 21 22 41 40 45 40 4 0 24 18 45 40
21 22 43 40 50 40 6 0 26 16 46 35 19 19 42 35 50 35 9 0 29 14 44 30 15 17
31 30 35 30 4 0 24 18 45 40 21 22 44 40 50 40 7 0 25 14 40 30 15 17 34 30
40 30 7 0 27 16 46 35 18 19 38 35 44 35 7 0 25 14 40 30 15 17 33 30 40 30 7
0 25 14 40 30 15 17 34 30 42 30 7 0 20 9 28 21 30 43 48 59 63 59 9 0 27 11
41 25 14 14 30 25 37 25 6 0 24 14 39 30 15 17 35 30 43 30 9 0 19 9 22 20 3
11 13 20 21 20 9 0 32 17 52 38 21 21 50 42 65 46 15 3 27 11 27 16 0 6 7 10
16 10 9 0 29 14 44 30 15 17 32 30 37 30 5 0 15 9 23 20 8 11 21 20 28 20 8 0
27 14 42 30 15 17 34 30 42 30 7 0 20 9 28 20 8 11 22 20 31 20 9 0 19 7 23
15 3 8 13 15 22 15 9 0 29 14 44 30 15 17 34 30 42 30 7 0 20 9 28 20 8 11 21
20 30 20 9 0 22 9 30 20 8 11 22 20 32 20 10 0 18 4 18 8 0 16 37 52 54 52 9
0 16 5 16 10 0 6 9 10 19 10 11 0 26 7 35 15 8 8 21 15 28 15 8 0 20 9 28 20
8 11 22 20 32 20 9 0 20 9 23 20 3 11 14 20 23 20 10 0 24 9 32 20 8 11 21 20
30 20 9 0 22 9 30 20 8 11 21 20 30 20 9 0 22 9 30 20 8 11 22 20 32 20 10 0
18 4 18 9 0 5 11 12 25 15 14 4 25 11 25 16 0 6 9 10 20 10 11 0 20 5 20 10 0
6 8 10 18 10 10 0 24 9 32 20 8 11 22 20 32 20 10 0 18 5 18 10 0 6 8 10 18
10 10 0 24 9 32 20 8 11 18 20 23 20 5 0 22 14 37 30 15 17 35 30 44 30 9 0
16 4 16 10 0 5 12 13 28 16 15 4 34 15 43 26 9 10 24 18 33 18 9 0 16 5 16 10
0 6 6 10 13 10 7 0 19 9 27 20 8 11 22 20 32 20 10 0 18 5 18 10 0 6 8 10 18
10 10 0 24 9 32 20 8 11 26 20 40 20 14 0 32 9 40 20 8 11 18 20 23 20 4 0 19
11 33 25 15 15 36 25 54 25 17 0 30 5 30 10 0 6 8 10 18 10 10 0 24 9 32 20 8
11 22 20 32 20 10 0 18 5 18 10 0 6 10 10 23 10 12 0 29 9 37 20 8 12 26 20
42 20 15 0 28 5 28 10 0 6 14 10 30 10 17 0 30 5 30 10 0 6 14 10 30 10 17 0
30 5 30 10 0 6 11 10 25 10 14 0 25 5 25 10 0 6 18 10 40 10 22 0 40 5 40 10
0 6 52 10 135 10 83 0 135 -4 135 -10 0 -6 32 -10 75 -10 43 0 75 -4 75 -10 0
-5 23 -10 50 -10 28 0 50 -4 50 -10 0 -5 14 -10 30 -10 17 0 30 -4 30 -10 0
-5 11 -10 25 -10 14 0 25 -4 25 -10 0 -5 14 -10 30 -10 17 0 30 -4 30 -10 0
-5 9 -10 20 -10 11 0 20 -4 20 -10 0 -5 23 -10 50 -10 28 0 50 -4 50 -10 0 -5
24 -10 53 -10 41 0 56 4 67 20 8 11 22 20 32 20 10 0 18 5 18 10 0 6 7 10 16
10 9 0 29 14 44 30 15 17 31 30 34 30 4 0 18 11 32 25 14 14 32 25 40 25 17 0
144 124 144 141 0 14 25 39 39 39 6 0 11 5 11 10 0 6 9 10 20 10 11 0 20 5 20
10 0 6 9 10 19 10 11 0 22 6 24 13 4 9 8 9 15 -2 9 -12 13 -11 28 4 15 15 29
17 86 11 65 -6 71 -9 113 -51 25 -24 45 -51 45 -60 0 -8 5 -15 10 -15 6 0 10
-8 10 -18 0 -10 9 -24 20 -32 12 -8 20 -26 20 -42 0 -15 5 -28 10 -28 6 0 10
-42 10 -105 0 -63 -4 -105 -10 -105 -5 0 -10 -5 -10 -10 0 -6 -46 -57 -102
-115 -57 -57 -113 -116 -126 -130 -12 -14 -29 -25 -38 -25 -8 0 -55 -42 -104
-92 -158 -163 -216 -218 -230 -218 -22 0 -79 -69 -85 -104 -4 -20 -11 -36 -16
-36 -5 0 -9 -34 -9 -75 0 -41 4 -75 8 -75 5 0 12 -69 15 -152 4 -90 11 -154
17 -156 6 -2 10 -42 10 -98 0 -56 4 -94 10 -94 6 0 10 -20 10 -45 0 -25 5 -45
10 -45 6 0 10 -65 10 -175 0 -110 -4 -175 -10 -175 -5 0 -10 -13 -10 -28 0
-16 -8 -34 -20 -42 -11 -8 -20 -20 -20 -27 0 -19 -266 -283 -285 -283 -8 0
-15 -7 -15 -15 0 -18 -64 -85 -80 -85 -6 0 -34 -24 -61 -52 -27 -29 -53 -57
-58 -62 -116 -112 -142 -136 -152 -136 -6 0 -28 -19 -50 -42 -79 -87 -124
-128 -139 -128 -6 0 -38 -28 -70 -62 -122 -128 -165 -168 -180 -168 -6 0 -38
-28 -70 -62 -134 -141 -205 -208 -222 -208 -7 0 -24 -14 -38 -31 -25 -31 -90
-97 -175 -176 -24 -24 -50 -43 -58 -43 -7 0 -19 -10 -27 -22 -16 -23 -110
-117 -189 -188 -28 -25 -53 -53 -56 -62 -4 -10 -13 -18 -21 -18 -8 0 -39 -24
-69 -52 -128 -123 -161 -156 -175 -176 -8 -12 -20 -22 -27 -22 -8 0 -38 -24
-67 -52 -30 -29 -68 -64 -85 -78 -17 -14 -33 -33 -36 -42 -4 -10 -13 -18 -21
-18 -17 0 -104 -84 -104 -100 0 -16 -26 -40 -44 -40 -8 0 -29 -15 -46 -32
-106 -114 -191 -198 -200 -198 -11 0 -31 -15 -53 -38 -77 -83 -168 -172 -177
-172 -9 0 -33 -19 -71 -56 -5 -5 -31 -33 -58 -61 -27 -29 -55 -53 -61 -53 -5
0 -66 -56 -135 -125 -68 -69 -129 -125 -135 -125 -6 0 -53 -43 -105 -95 -52
-52 -99 -95 -105 -95 -6 0 -38 -27 -70 -60 -32 -33 -64 -60 -69 -60 -6 0 -11
-9 -11 -20 0 -11 -4 -20 -10 -20 -5 0 -25 -16 -44 -35 -20 -19 -40 -35 -46
-35 -6 0 -38 -28 -71 -62 -116 -123 -186 -188 -201 -188 -7 -1 -29 -19 -48
-41 -76 -87 -164 -169 -182 -170 -7 0 -33 -22 -58 -50 -94 -103 -131 -139
-146 -139 -9 0 -33 -18 -54 -40 -21 -22 -45 -40 -54 -40 -8 0 -18 -9 -21 -20
-3 -11 -15 -20 -26 -20 -10 0 -19 -4 -19 -10 0 -5 -9 -10 -20 -10 -11 0 -20
-4 -20 -10 0 -5 -9 -10 -20 -10 -11 0 -20 -4 -20 -10 0 -5 -9 -10 -20 -10 -11
0 -20 -4 -20 -10 0 -5 -9 -10 -20 -10 -11 0 -20 -4 -20 -10 0 -5 -16 -10 -35
-10 -19 0 -35 -4 -35 -10 0 -6 -27 -10 -60 -10 -33 0 -60 4 -60 10 0 6 -18 10
-40 10 -22 0 -40 5 -40 10 0 6 -7 10 -15 10 -8 0 -15 5 -15 10 0 6 -7 10 -16
10 -8 0 -23 7 -31 16 -14 13 -14 17 -2 24 7 5 10 13 5 17 -5 4 -11 2 -13 -4
-7 -20 -37 -15 -53 7 -8 11 -21 20 -28 20 -7 0 -31 18 -52 40 -21 22 -43 40
-49 40 -6 0 -11 5 -11 10 0 6 -9 10 -20 10 -10 0 -30 11 -44 25 -14 14 -30 25
-37 25 -6 0 -24 14 -39 30 -15 17 -35 30 -44 30 -9 0 -16 4 -16 8 0 15 -37 52
-51 52 -8 0 -21 9 -29 20 -8 11 -20 20 -28 20 -7 0 -20 6 -27 13 -34 30 -45
37 -57 37 -7 0 -24 14 -38 31 -14 17 -35 41 -47 54 -13 13 -23 35 -23 47 0 13
-9 30 -20 38 -13 9 -20 26 -20 47 0 18 -4 33 -10 33 -5 0 -10 9 -10 20 0 11
-4 20 -10 20 -5 0 -10 17 -10 38 0 26 -6 42 -20 52 -13 9 -20 26 -20 47 0 18
-4 33 -10 33 -5 0 -10 14 -10 30 0 17 -4 30 -10 30 -5 0 -10 -13 -10 -30 0
-16 5 -30 10 -30 6 0 10 -16 10 -35 0 -19 5 -35 10 -35 6 0 10 -9 10 -20 0
-11 5 -20 10 -20 6 0 10 -13 10 -30 0 -16 5 -30 10 -30 6 0 10 -13 10 -30 0
-16 5 -30 10 -30 6 0 10 -11 10 -25 0 -14 5 -25 10 -25 6 0 10 -9 10 -20 0
-11 5 -20 10 -20 6 0 10 -9 10 -20 0 -11 5 -20 10 -20 6 0 10 -7 10 -15 0 -9
10 -26 23 -39 12 -13 29 -33 37 -45 8 -11 22 -21 32 -21 9 0 28 -11 42 -25 14
-14 31 -25 38 -25 8 0 20 -9 28 -20 8 -11 21 -20 28 -20 8 0 27 -13 42 -30 15
-16 31 -30 35 -30 4 0 20 -13 35 -30 15 -16 33 -30 40 -30 6 0 18 -6 25 -12
35 -32 45 -38 60 -38 8 0 15 -4 15 -10 0 -5 9 -10 20 -10 11 0 20 -4 20 -9 0
-15 57 -71 72 -71 7 0 20 -9 28 -20 8 -11 22 -20 32 -20 10 0 18 -4 18 -10 0
-5 8 -10 18 -10 10 0 24 -9 32 -20 8 -11 24 -20 36 -20 12 0 24 -5 26 -12 6
-18 260 -18 265 0 3 6 13 12 24 12 10 0 19 5 19 10 0 6 14 10 30 10 17 0 30 5
30 10 0 6 9 10 20 10 11 0 20 5 20 10 0 6 9 10 20 10 11 0 20 5 20 10 0 6 5
10 11 10 6 0 24 14 39 30 15 17 33 30 40 30 7 0 25 14 40 30 15 17 33 30 39
30 18 0 27 8 140 128 33 34 65 62 71 62 14 0 75 56 169 158 28 28 55 52 61 52
6 0 67 56 135 125 69 69 129 125 135 125 6 0 62 52 125 115 63 63 119 115 126
115 6 0 28 19 50 42 21 24 43 47 48 52 77 74 102 96 111 96 6 0 38 28 71 63
33 34 63 66 68 71 87 85 123 116 133 116 7 1 29 19 48 41 72 82 123 129 140
129 10 0 73 63 180 178 17 17 37 32 46 32 14 0 81 65 194 189 25 27 57 51 73
55 15 3 27 12 27 21 0 14 82 105 95 105 3 0 30 24 60 53 128 122 145 137 160
137 8 0 15 4 15 10 0 12 233 240 245 240 5 0 67 59 197 187 24 23 54 55 68 72
14 17 31 31 38 31 15 0 151 128 222 209 19 22 41 40 48 41 16 0 78 59 211 198
39 39 75 72 81 72 6 0 27 15 46 34 47 44 43 40 123 124 39 39 75 72 81 72 6 0
49 38 95 85 47 47 89 85 95 85 6 0 66 56 135 125 68 69 129 125 135 125 16 0
80 67 80 85 0 8 5 15 10 15 15 0 27 11 153 137 126 126 137 138 137 153 0 5 5
10 10 10 6 0 10 9 10 20 0 11 5 20 10 20 6 0 10 9 10 20 0 11 5 20 10 20 6 0
10 68 10 185 0 117 -4 185 -10 185 -5 0 -10 20 -10 45 0 25 -4 45 -10 45 -6 0
-10 38 -10 95 0 57 -4 95 -10 95 -5 0 -10 22 -10 49 0 27 -4 51 -9 53 -4 2
-11 82 -15 179 -6 153 -5 178 8 192 9 9 16 21 16 27 0 14 66 80 80 80 6 0 80
70 165 155 85 85 159 155 165 155 6 0 70 60 143 133 l132 132 0 149 c0 111 -3
150 -12 154 -7 2 -13 12 -13 23 0 10 -4 19 -10 19 -5 0 -10 9 -10 20 0 11 -4
20 -10 20 -5 0 -10 7 -10 16 0 8 -18 33 -41 55 -33 32 -48 39 -80 39 -21 0
-39 5 -39 10 0 6 -25 10 -55 10 -30 0 -55 -4 -55 -10z m-6720 -5130 c0 -11 -4
-20 -10 -20 -5 0 -10 9 -10 20 0 11 5 20 10 20 6 0 10 -9 10 -20z"/>
<path d="M8110 8220 c-8 -11 -21 -20 -29 -20 -14 0 -51 -37 -51 -52 0 -17 23
-7 50 22 15 17 33 30 40 30 12 0 40 24 40 34 0 15 -37 4 -50 -14z"/>
<path d="M8430 7830 c0 -11 -4 -20 -9 -20 -14 0 -134 -120 -128 -126 3 -3 35
24 71 60 37 36 71 66 76 66 6 0 10 9 10 20 0 11 -4 20 -10 20 -5 0 -10 -9 -10
-20z"/>
<path d="M7673 7803 c-7 -2 -13 -13 -13 -24 0 -10 -4 -19 -10 -19 -5 0 -10
-13 -10 -30 0 -16 5 -30 10 -30 6 0 10 -33 10 -80 l0 -81 -45 -44 c-24 -25
-48 -45 -53 -45 -4 0 -14 -9 -22 -20 -8 -11 -22 -20 -32 -20 -10 0 -18 -4 -18
-10 0 -5 -8 -10 -18 -10 -10 0 -24 -9 -32 -20 -8 -11 -20 -20 -28 -20 -7 0
-20 -7 -28 -15 -9 -8 -24 -15 -35 -15 -10 0 -19 -4 -19 -10 0 -5 -6 -10 -13
-10 -7 0 -19 -9 -27 -20 -8 -11 -21 -20 -30 -20 -9 0 -22 -9 -30 -20 -8 -11
-22 -20 -32 -20 -10 0 -18 -4 -18 -10 0 -5 -8 -10 -18 -10 -10 0 -24 -9 -32
-20 -8 -11 -22 -20 -32 -20 -9 0 -20 -9 -23 -20 -3 -11 -13 -20 -22 -20 -9 0
-23 -8 -32 -18 -9 -11 -28 -22 -43 -26 -16 -3 -28 -11 -28 -16 0 -6 -8 -10
-18 -10 -10 0 -24 -9 -32 -20 -8 -11 -22 -20 -32 -20 -9 0 -20 -9 -23 -20 -3
-11 -13 -20 -22 -20 -8 0 -28 -13 -43 -30 -15 -16 -34 -30 -42 -30 -7 0 -20
-9 -28 -20 -8 -11 -20 -20 -28 -20 -7 0 -20 -6 -27 -12 -32 -29 -45 -38 -52
-38 -5 0 -15 -9 -23 -20 -8 -11 -21 -20 -28 -20 -8 0 -27 -13 -42 -30 -15 -16
-33 -30 -40 -30 -7 0 -25 -13 -40 -30 -15 -16 -35 -30 -44 -30 -9 0 -16 -4
-16 -8 0 -17 -36 -49 -62 -56 -16 -3 -28 -11 -28 -16 0 -6 -7 -10 -16 -10 -9
0 -29 -13 -44 -30 -15 -16 -33 -30 -40 -30 -14 0 -70 -57 -70 -71 0 -5 -7 -9
-16 -9 -9 0 -29 -13 -44 -30 -15 -16 -35 -30 -44 -30 -8 0 -26 -11 -40 -25
-27 -27 -52 -32 -59 -12 -2 6 -8 8 -13 4 -5 -4 -2 -12 5 -17 12 -7 12 -10 0
-23 -8 -8 -21 -24 -29 -36 -8 -11 -21 -21 -28 -21 -7 0 -31 -18 -52 -40 -21
-22 -43 -40 -50 -40 -6 0 -22 -10 -35 -22 -37 -35 -54 -48 -61 -48 -3 0 -19
-13 -34 -30 -15 -16 -33 -30 -40 -30 -6 0 -29 -18 -50 -40 -21 -22 -44 -40
-50 -40 -6 0 -31 -20 -54 -45 -24 -25 -49 -45 -55 -45 -7 0 -34 -22 -61 -50
-27 -27 -54 -50 -60 -50 -6 0 -29 -18 -50 -40 -21 -22 -41 -40 -45 -40 -3 0
-17 -10 -30 -22 -65 -60 -75 -68 -85 -68 -13 0 -110 -97 -110 -111 0 -5 -7 -9
-15 -9 -9 0 -31 -15 -50 -32 -49 -48 -63 -58 -75 -58 -12 0 -94 -82 -120 -119
-8 -11 -20 -21 -27 -21 -8 0 -34 -19 -58 -42 -80 -77 -94 -88 -110 -88 -8 0
-15 -4 -15 -9 0 -14 -117 -131 -130 -131 -15 0 -100 -79 -150 -139 -14 -17
-31 -31 -38 -31 -7 0 -42 -29 -77 -65 -36 -36 -69 -65 -75 -65 -5 0 -12 -9
-15 -20 -3 -11 -13 -20 -21 -20 -8 0 -57 -42 -110 -94 -53 -52 -100 -98 -105
-102 -5 -5 -22 -24 -38 -41 -16 -18 -34 -33 -40 -33 -6 0 -114 -103 -241 -230
-127 -126 -235 -230 -240 -230 -14 0 -60 -46 -60 -60 0 -14 -617 -630 -631
-630 -6 0 -24 -13 -39 -30 -15 -16 -35 -30 -44 -30 -9 0 -16 -4 -16 -10 0 -5
-8 -10 -18 -10 -10 0 -24 -9 -32 -20 -8 -11 -22 -20 -32 -20 -10 0 -18 -4 -18
-10 0 -5 -16 -10 -35 -10 -19 0 -35 -4 -35 -10 0 -5 16 -10 35 -10 19 0 35 5
35 10 0 6 9 10 20 10 11 0 20 5 20 10 0 6 9 10 20 10 11 0 20 5 20 10 0 6 9
10 20 10 11 0 20 5 20 10 0 6 7 10 16 10 9 0 29 14 44 30 15 17 35 30 43 30 9
0 19 9 22 20 3 11 10 20 16 20 5 0 56 48 113 106 57 59 113 115 124 126 11 11
67 67 125 125 58 58 109 109 113 114 5 5 33 31 62 58 28 27 52 55 52 61 0 16
67 80 84 80 8 0 17 8 20 18 3 10 16 24 28 32 11 8 67 62 124 119 129 131 112
114 199 199 41 39 81 72 88 72 7 0 19 10 27 21 8 12 30 36 48 53 18 17 70 68
117 114 47 45 87 82 90 82 6 0 37 28 130 118 30 28 60 52 68 52 7 0 19 10 27
22 14 20 102 109 134 136 8 6 20 12 26 12 12 0 94 82 120 119 8 11 20 21 28
21 7 0 28 15 47 33 19 17 51 47 70 65 19 17 41 32 50 32 8 0 15 4 15 9 0 14
117 131 130 131 6 0 22 10 35 23 62 56 75 67 80 67 3 0 33 27 65 60 32 33 64
60 70 60 6 0 26 15 45 33 45 42 63 57 70 57 4 0 24 18 45 40 21 22 44 40 50
40 6 0 33 23 60 50 27 28 55 50 64 50 8 0 18 9 21 20 3 11 10 20 15 20 5 0 20
11 34 25 14 14 30 25 36 25 7 0 29 18 50 40 21 22 45 40 52 40 7 0 20 9 28 21
28 40 47 59 59 59 11 0 22 7 56 38 7 6 19 12 25 12 6 0 29 18 50 40 21 22 46
40 54 40 9 0 16 4 16 9 0 14 56 71 70 71 7 0 25 14 40 30 15 17 35 30 44 30 8
0 26 11 40 25 14 14 28 25 31 25 4 0 24 18 45 40 21 22 44 40 50 40 7 0 25 14
40 30 15 17 34 30 42 30 7 0 20 9 28 20 8 11 22 20 31 20 9 0 25 11 35 25 10
14 25 25 32 25 8 0 27 14 42 30 15 17 33 30 40 30 7 0 25 14 40 30 15 17 35
30 43 30 9 0 19 9 22 20 3 11 13 20 21 20 8 0 26 11 40 25 14 14 33 25 42 25
10 0 24 9 32 20 8 11 21 20 28 20 8 0 27 14 42 30 15 17 32 30 37 30 5 0 15 9
23 20 8 11 21 20 30 20 9 0 22 9 30 20 8 11 21 20 29 20 7 0 21 8 30 18 9 11
28 22 44 26 15 3 27 11 27 16 0 6 6 10 13 10 7 0 19 9 27 20 8 11 21 20 30 20
9 0 22 9 30 20 8 11 22 20 32 20 10 0 18 5 18 10 0 6 8 10 18 10 10 0 24 9 32
20 8 11 21 20 30 20 9 0 22 9 30 20 8 11 20 20 27 20 7 0 13 5 13 10 0 6 9 10
20 10 11 0 20 4 20 10 0 5 12 13 28 16 15 4 34 15 43 26 9 10 24 18 33 18 9 0
16 5 16 10 0 6 9 10 19 10 11 0 23 9 26 20 3 11 13 20 21 20 8 0 35 20 59 45
l45 44 0 101 c0 60 -4 100 -10 100 -5 0 -10 9 -10 20 0 11 5 20 10 20 6 0 10
9 10 19 0 11 6 22 13 24 6 3 8 5 2 5 -5 0 -16 -2 -22 -5z"/>
<path d="M8260 7660 c0 -11 5 -20 10 -20 6 0 10 9 10 20 0 11 -4 20 -10 20 -5
0 -10 -9 -10 -20z"/>
<path d="M8183 7597 c-174 -170 -178 -175 -168 -185 4 -4 10 -1 13 6 4 12 107
117 146 150 8 6 22 12 31 12 8 0 15 9 15 20 0 11 5 20 10 20 6 0 10 5 10 10 0
18 -14 10 -57 -33z"/>
<path d="M7470 7540 c0 -5 -9 -10 -20 -10 -11 0 -20 -4 -20 -10 0 -5 -8 -10
-18 -10 -10 0 -24 -9 -32 -20 -8 -11 -22 -20 -32 -20 -9 0 -20 -9 -23 -20 -3
-11 -15 -20 -26 -20 -10 0 -19 -4 -19 -10 0 -5 -8 -10 -18 -10 -10 0 -24 -9
-32 -20 -8 -11 -21 -20 -30 -20 -9 0 -22 -9 -30 -19 -7 -11 -31 -23 -51 -26
-25 -4 -40 -13 -44 -26 -4 -10 -14 -19 -23 -19 -10 0 -24 -9 -32 -20 -8 -11
-21 -20 -30 -20 -9 0 -22 -9 -30 -20 -8 -11 -21 -20 -30 -20 -9 0 -22 -9 -30
-20 -8 -11 -22 -20 -32 -20 -9 0 -20 -9 -23 -20 -3 -11 -13 -20 -21 -20 -8 0
-26 -11 -40 -25 -14 -14 -33 -25 -42 -25 -10 0 -24 -9 -32 -20 -8 -11 -21 -20
-30 -20 -9 0 -22 -9 -30 -20 -8 -11 -22 -20 -32 -20 -10 0 -18 -4 -18 -8 0
-15 -37 -52 -51 -52 -8 0 -21 -9 -29 -20 -8 -11 -21 -20 -30 -20 -9 0 -22 -9
-30 -20 -8 -11 -22 -20 -32 -20 -9 0 -28 -11 -42 -25 -14 -14 -28 -25 -32 -25
-3 0 -19 -13 -34 -30 -15 -16 -33 -30 -40 -30 -7 0 -25 -13 -40 -30 -15 -16
-33 -30 -40 -30 -7 0 -25 -13 -40 -30 -15 -16 -31 -30 -35 -30 -3 0 -13 -6
-20 -12 -34 -31 -45 -38 -56 -38 -6 0 -24 -13 -39 -30 -15 -16 -33 -30 -40
-30 -7 0 -25 -13 -40 -30 -15 -16 -31 -30 -35 -30 -4 0 -24 -18 -45 -40 -21
-22 -45 -40 -54 -40 -8 0 -26 -11 -40 -25 -14 -14 -30 -25 -36 -25 -7 0 -29
-18 -50 -40 -21 -22 -41 -40 -45 -40 -4 0 -24 -18 -45 -40 -21 -22 -43 -40
-50 -40 -6 0 -22 -10 -35 -22 -42 -40 -54 -48 -70 -48 -8 0 -15 -4 -15 -9 0
-14 -56 -71 -70 -71 -6 0 -29 -18 -50 -40 -21 -22 -43 -40 -50 -40 -6 0 -22
-11 -36 -25 -14 -14 -29 -25 -34 -25 -5 0 -12 -9 -15 -20 -3 -11 -13 -20 -21
-20 -9 0 -37 -22 -64 -50 -27 -27 -54 -50 -60 -50 -13 0 -90 -77 -90 -91 0 -5
-12 -12 -27 -15 -15 -4 -44 -25 -65 -46 -20 -21 -42 -38 -48 -38 -13 0 -110
-97 -110 -111 0 -5 -7 -9 -15 -9 -17 0 -28 -8 -80 -57 -19 -18 -40 -33 -47
-33 -7 -1 -29 -19 -48 -41 -77 -88 -109 -119 -120 -119 -13 0 -26 -10 -85 -67
-25 -24 -51 -43 -60 -43 -8 0 -15 -4 -15 -10 0 -5 -29 -38 -64 -72 -81 -79
-92 -88 -108 -88 -7 0 -24 -14 -38 -31 -49 -59 -159 -169 -170 -169 -17 0 -25
-7 -180 -167 -43 -46 -86 -83 -94 -83 -9 0 -26 -11 -38 -25 -22 -25 -204 -207
-250 -252 -13 -12 -34 -35 -48 -52 -14 -17 -31 -31 -38 -31 -15 0 -142 -125
-142 -140 0 -5 -5 -10 -11 -10 -16 0 -39 -26 -39 -44 0 -9 -7 -16 -15 -16 -8
0 -53 -37 -100 -82 -46 -46 -91 -89 -99 -96 -9 -7 -16 -22 -16 -32 0 -12 -7
-20 -16 -20 -18 0 -44 -23 -44 -40 0 -14 -46 -60 -60 -60 -9 0 -46 -31 -92
-78 -111 -112 -158 -165 -153 -170 4 -4 10 -1 12 6 3 6 11 12 19 12 9 0 37 24
65 53 113 121 175 177 194 177 8 0 15 7 15 15 0 18 43 65 60 65 5 0 10 8 10
18 0 9 14 28 31 42 17 14 72 67 124 119 136 137 144 145 217 216 37 36 74 65
82 65 8 0 17 8 21 18 3 9 24 33 46 52 51 45 194 187 239 239 19 22 43 40 52
41 16 0 42 25 196 185 29 30 59 55 68 55 14 0 82 66 164 159 19 22 41 40 48
41 7 0 24 10 38 23 56 50 110 105 124 126 8 11 20 21 27 21 8 0 38 25 68 55
31 30 64 55 75 55 13 0 20 7 20 20 0 13 7 20 20 20 11 0 20 4 20 9 0 14 96
111 110 111 6 0 30 19 55 43 53 51 72 67 80 67 4 0 28 23 55 50 27 28 54 50
60 50 6 0 29 18 50 40 21 22 43 40 49 40 6 0 36 25 66 55 30 30 59 55 65 55 6
0 33 23 60 50 27 28 51 50 55 50 3 0 21 15 40 33 49 47 63 57 75 57 7 0 29 18
50 40 21 22 45 40 52 40 7 0 20 9 28 21 28 40 47 59 59 59 7 0 23 10 36 23 41
37 54 47 65 47 7 0 29 18 50 40 21 22 41 40 45 40 4 0 24 18 45 40 21 22 44
40 50 40 7 0 25 14 40 30 15 17 35 30 44 30 16 0 66 45 66 60 0 6 7 10 16 10
9 0 29 14 44 30 15 17 33 30 40 30 6 0 29 18 50 40 21 22 45 40 53 40 8 0 17
7 21 15 3 8 13 15 22 15 9 0 29 14 44 30 15 17 33 30 40 30 7 0 25 14 40 30
15 17 33 30 40 30 7 0 25 14 40 30 15 17 31 30 35 30 4 0 19 13 33 28 15 16
39 32 55 36 15 3 27 11 27 16 0 6 8 10 18 10 10 0 24 9 32 20 8 11 22 20 32
20 10 0 18 4 18 8 0 15 37 52 51 52 8 0 21 9 29 20 8 11 21 20 28 20 8 0 26
13 40 28 15 16 39 32 55 36 15 3 27 11 27 16 0 6 6 10 13 10 7 0 19 9 27 20 8
11 21 20 30 20 9 0 22 9 30 20 8 11 21 20 30 20 9 0 22 9 30 20 8 11 21 20 30
20 9 0 22 9 30 20 8 11 19 20 25 20 6 0 17 9 25 20 8 11 22 20 32 20 10 0 18
5 18 10 0 6 9 10 19 10 11 0 26 7 35 15 8 8 21 15 28 15 8 0 20 9 28 20 8 11
22 20 32 20 10 0 18 5 18 10 0 6 6 10 13 10 7 0 19 9 27 20 8 11 21 20 30 20
9 0 22 9 30 20 8 11 21 20 30 20 9 0 22 9 30 20 8 11 22 20 32 20 10 0 18 5
18 10 0 6 -9 10 -20 10 -11 0 -20 -4 -20 -10z"/>
<path d="M7680 7395 c0 -43 4 -75 10 -75 15 0 12 -57 -2 -64 -10 -5 -10 -7 0
-12 6 -3 12 -13 12 -21 0 -9 10 -25 23 -36 15 -13 18 -21 10 -24 -7 -3 -13
-11 -13 -20 0 -19 29 -48 38 -38 4 4 1 10 -5 12 -32 11 -15 36 104 156 80 80
101 97 118 97 8 0 15 5 15 10 0 20 -31 9 -65 -22 -80 -74 -121 -116 -135 -137
-19 -28 -70 -30 -70 -2 0 11 -6 22 -12 25 -10 5 -10 7 0 12 14 7 17 64 2 64
-6 0 -10 32 -10 75 0 43 -4 75 -10 75 -6 0 -10 -32 -10 -75z"/>
<path d="M5922 4207 c-7 -7 -18 -18 -25 -25 -93 -98 -128 -132 -137 -132 -9 0
-40 -27 -111 -96 -5 -5 -31 -33 -58 -61 -27 -29 -55 -53 -61 -53 -6 0 -62 -52
-125 -115 -63 -63 -119 -115 -125 -115 -6 0 -57 -47 -115 -105 -57 -58 -109
-105 -115 -105 -6 0 -38 -28 -71 -62 -110 -117 -165 -168 -179 -168 -6 0 -38
-28 -71 -62 -113 -120 -165 -168 -181 -169 -7 0 -33 -22 -58 -50 -96 -106
-153 -159 -170 -159 -6 0 -38 -28 -70 -62 -135 -143 -162 -168 -182 -169 -7 0
-33 -22 -58 -50 -106 -117 -160 -169 -174 -169 -15 0 -60 -43 -176 -169 -30
-33 -63 -60 -72 -60 -10 -1 -36 -20 -58 -43 -141 -149 -180 -188 -190 -188 -6
0 -18 -6 -26 -12 -16 -13 -24 -21 -162 -163 -45 -47 -90 -85 -100 -85 -10 0
-24 -10 -32 -21 -8 -12 -26 -33 -39 -46 -13 -13 -20 -27 -17 -30 3 -4 14 4 25
15 10 12 21 22 25 22 4 0 22 15 41 33 50 47 63 57 77 58 7 0 33 22 58 50 103
114 172 179 192 180 7 0 33 23 58 50 101 112 171 179 188 179 9 1 33 19 52 41
81 93 182 189 198 189 9 1 33 19 52 41 73 83 169 179 180 179 6 0 18 6 26 13
16 13 21 18 123 125 39 39 75 72 81 72 15 0 42 25 169 158 39 39 75 72 81 72
6 0 58 47 115 105 57 58 109 105 115 105 6 0 62 52 125 115 63 63 119 115 126
115 6 0 28 19 50 43 21 23 44 47 50 52 5 6 48 47 94 93 47 45 91 82 98 82 7 0
19 10 27 21 8 12 21 27 28 33 7 6 60 57 118 114 57 56 106 102 109 102 12 0
231 214 255 248 8 12 22 25 32 28 10 3 18 10 18 15 0 12 -12 11 -28 -4z"/>
<path d="M1170 3600 c0 -5 5 -10 10 -10 6 0 10 5 10 10 0 6 -4 10 -10 10 -5 0
-10 -4 -10 -10z"/>
<path d="M1230 3500 c0 -5 12 -13 28 -16 15 -4 34 -15 43 -26 9 -10 20 -18 24
-18 4 0 20 -13 35 -30 15 -16 33 -30 40 -30 7 0 25 -13 40 -30 15 -16 34 -30
42 -30 7 0 20 -9 28 -20 8 -11 22 -20 32 -20 10 0 18 -4 18 -10 0 -5 5 -10 11
-10 6 0 17 -7 25 -15 9 -8 29 -15 45 -15 16 0 29 -4 29 -10 0 -5 9 -10 20 -10
11 0 20 -4 20 -10 0 -5 13 -10 28 -10 17 0 33 -8 42 -21 30 -42 48 -59 61 -59
8 0 21 -9 29 -20 8 -12 26 -20 42 -20 15 0 28 -4 28 -10 0 -5 14 -10 30 -10
17 0 30 -4 30 -10 0 -6 38 -10 95 -10 57 0 95 4 95 10 0 6 -35 10 -85 10 -50
0 -85 4 -85 10 0 6 5 10 10 10 6 0 10 9 10 20 0 11 -4 20 -10 20 -5 0 -10 -9
-10 -20 0 -16 -7 -20 -30 -20 -16 0 -30 2 -30 5 0 3 16 22 36 42 28 28 38 33
45 22 5 -8 9 -9 9 -4 0 6 -4 17 -10 25 -7 12 -12 11 -28 -8 -24 -27 -32 -28
-32 -2 0 24 -6 25 -26 6 -19 -20 -18 -26 6 -26 11 0 20 -4 20 -10 0 -5 -9 -10
-20 -10 -11 0 -20 -4 -20 -10 0 -5 -9 -10 -20 -10 -22 0 -27 16 -7 23 6 2 8 8
4 13 -4 5 -13 2 -18 -6 -8 -11 -12 -12 -16 -2 -2 6 -13 12 -24 12 -21 0 -26
16 -6 23 6 2 8 8 4 13 -4 5 -13 2 -18 -6 -8 -11 -12 -12 -16 -2 -2 6 -10 12
-17 12 -6 0 -18 9 -26 20 -8 12 -26 20 -42 20 -15 0 -28 4 -28 9 0 5 -18 12
-40 16 -22 4 -40 11 -40 16 0 5 -8 9 -18 9 -10 0 -24 9 -32 20 -8 11 -19 20
-25 20 -6 0 -17 9 -25 20 -8 11 -21 20 -30 20 -9 0 -22 9 -30 20 -8 11 -21 20
-30 20 -9 0 -22 9 -30 20 -8 11 -20 20 -28 20 -13 0 -42 23 -42 34 0 3 9 6 20
6 11 0 20 -4 20 -10 0 -5 8 -10 18 -10 10 0 24 -9 32 -20 8 -11 21 -20 30 -20
9 0 22 -9 30 -20 8 -11 21 -20 30 -20 9 0 22 -9 30 -20 8 -11 19 -20 25 -20 6
0 17 -9 25 -20 8 -11 22 -20 32 -20 10 0 18 -4 18 -10 0 -5 9 -10 19 -10 11 0
21 -4 23 -9 2 -5 19 -11 38 -14 19 -2 27 -2 18 0 -10 2 -18 9 -18 14 0 5 -8 9
-18 9 -10 0 -24 9 -32 20 -8 11 -21 20 -30 20 -9 0 -22 9 -30 20 -8 11 -22 20
-32 20 -9 0 -20 9 -23 20 -3 11 -14 20 -23 20 -10 0 -24 9 -32 20 -8 11 -22
20 -32 20 -10 0 -18 5 -18 10 0 6 -7 10 -16 10 -9 0 -24 9 -33 19 -9 11 -35
22 -56 25 -22 3 -34 3 -27 0 6 -3 12 -10 12 -15 0 -14 -20 -11 -36 6 -9 8 -24
15 -35 15 -10 0 -19 5 -19 10 0 6 -4 10 -10 10 -5 0 -10 -4 -10 -10z"/>
<path d="M1500 3090 c0 -11 5 -20 10 -20 6 0 10 9 10 20 0 11 -4 20 -10 20 -5
0 -10 -9 -10 -20z"/>
<path d="M2210 2975 c0 -19 5 -35 10 -35 6 0 10 -22 10 -50 0 -27 5 -50 10
-50 6 0 10 -9 10 -20 0 -11 5 -20 10 -20 6 0 10 -15 10 -34 0 -19 7 -41 15
-50 8 -8 15 -31 15 -50 0 -20 5 -36 10 -36 6 0 10 -18 10 -40 0 -22 5 -40 10
-40 6 0 10 -11 10 -25 0 -14 5 -25 10 -25 6 0 10 -13 10 -30 0 -16 5 -30 10
-30 6 0 10 -13 10 -30 0 -16 5 -30 10 -30 6 0 10 -13 10 -30 0 -16 5 -30 10
-30 6 0 10 -11 10 -25 0 -14 5 -25 10 -25 6 0 10 -18 10 -40 0 -22 5 -40 10
-40 6 0 10 -13 10 -30 0 -16 5 -30 10 -30 6 0 10 -9 10 -20 0 -11 5 -20 10
-20 6 0 10 -16 10 -35 0 -19 4 -35 9 -35 5 0 12 -27 16 -60 4 -33 11 -60 16
-60 5 0 9 -18 9 -40 0 -22 5 -40 10 -40 6 0 10 -11 10 -25 0 -14 5 -25 10 -25
6 0 10 -13 10 -30 0 -16 5 -30 10 -30 6 0 10 -9 10 -20 0 -11 5 -20 10 -20 6
0 10 -13 10 -30 0 -16 5 -30 10 -30 6 0 10 14 10 30 0 17 -4 30 -10 30 -5 0
-10 9 -10 20 0 11 -4 20 -10 20 -5 0 -10 18 -10 40 0 22 -4 40 -10 40 -5 0
-10 7 -10 15 0 8 -4 15 -10 15 -5 0 -10 23 -10 50 0 28 -4 50 -10 50 -5 0 -10
9 -10 20 0 11 -4 20 -9 20 -5 0 -13 29 -16 65 -4 36 -11 65 -16 65 -5 0 -9 9
-9 20 0 11 -4 20 -10 20 -5 0 -10 14 -10 30 0 17 -4 30 -10 30 -5 0 -10 20
-10 45 0 25 -4 45 -10 45 -5 0 -10 9 -10 20 0 11 -4 20 -10 20 -5 0 -10 18
-10 40 0 22 -4 40 -10 40 -5 0 -10 9 -10 20 0 11 -4 20 -10 20 -5 0 -10 14
-10 30 0 17 -4 30 -10 30 -5 0 -10 11 -10 25 0 14 -4 25 -10 25 -5 0 -10 18
-10 40 0 22 -4 40 -10 40 -5 0 -10 18 -10 40 0 22 -4 40 -10 40 -5 0 -10 9
-10 20 0 11 -4 20 -9 20 -5 0 -12 20 -15 45 -4 25 -11 45 -17 45 -5 0 -9 23
-9 50 0 28 -4 50 -10 50 -5 0 -10 16 -10 35 0 19 -4 35 -10 35 -5 0 -10 -16
-10 -35z"/>
<path d="M1820 2874 c0 -4 9 -15 21 -25 21 -18 21 -18 -29 -68 -28 -28 -56
-51 -62 -51 -16 0 -63 -50 -55 -58 4 -4 10 -1 12 6 3 6 11 12 20 12 8 0 28 14
43 30 15 17 32 30 38 30 14 0 72 56 72 69 0 7 -11 23 -25 36 -24 25 -35 31
-35 19z"/>
<path d="M1873 2767 c-26 -26 -43 -37 -58 -37 -8 0 -15 -4 -15 -8 0 -14 -36
-52 -49 -52 -13 0 -41 -24 -41 -34 0 -3 9 -6 20 -6 13 0 20 -7 20 -19 0 -11 6
-22 13 -24 9 -4 8 -8 -3 -16 -8 -5 -11 -13 -8 -17 4 -3 15 2 25 12 13 12 14
19 5 22 -6 2 -12 12 -12 22 0 10 -5 20 -12 22 -8 3 -3 14 15 32 15 15 27 31
27 36 0 6 7 10 15 10 9 0 27 11 41 25 14 14 29 25 34 25 6 0 10 5 10 10 0 13
-12 12 -27 -3z"/>
<path d="M1902 2741 c-28 -23 -28 -58 -1 -82 l22 -19 -32 -29 c-27 -25 -42
-61 -26 -61 7 0 95 88 95 95 0 3 -9 5 -20 5 -27 0 -25 7 11 41 18 16 28 33 24
37 -4 4 -10 1 -12 -5 -3 -7 -13 -13 -24 -13 -12 0 -19 -7 -19 -20 0 -11 -4
-20 -10 -20 -19 0 -10 53 12 71 11 11 17 19 11 19 -5 0 -20 -8 -31 -19z"/>
<path d="M1990 2570 c-8 -11 -22 -20 -32 -20 -10 0 -18 -4 -18 -10 0 -18 31
-10 55 15 14 13 25 27 25 30 0 12 -16 4 -30 -15z"/>
<path d="M1794 2525 c-3 -14 -10 -25 -15 -25 -5 0 -9 -9 -9 -20 0 -11 6 -20
13 -20 9 0 14 12 14 32 0 18 5 34 11 36 14 4 16 22 2 22 -5 0 -12 -11 -16 -25z"/>
<path d="M1852 2484 c-29 -30 -31 -36 -18 -49 8 -8 31 -15 50 -15 l36 0 0 50
c0 62 -19 66 -68 14z m48 -14 c0 -27 -3 -30 -30 -30 -36 0 -37 4 -7 35 29 32
37 31 37 -5z"/>
<path d="M1650 2410 c0 -5 5 -10 10 -10 6 0 10 5 10 10 0 6 -4 10 -10 10 -5 0
-10 -4 -10 -10z"/>
<path d="M2050 2410 c0 -5 -16 -25 -35 -44 -19 -20 -35 -38 -35 -41 0 -14 37
-2 50 16 8 12 25 32 38 45 27 28 28 34 2 34 -11 0 -20 -4 -20 -10z"/>
<path d="M2650 1565 c0 -14 5 -25 10 -25 6 0 10 -20 10 -45 0 -39 5 -51 35
-80 40 -41 45 -42 45 -15 0 13 -7 20 -20 20 -13 0 -20 7 -20 20 0 11 -4 20
-10 20 -5 0 -10 18 -10 40 0 22 -4 40 -10 40 -5 0 -10 11 -10 25 0 14 -4 25
-10 25 -5 0 -10 -11 -10 -25z"/>
</g>
</svg>
