<?xml version="1.0" standalone="no"?>
<!DOCTYPE svg PUBLIC "-//W3C//DTD SVG 20010904//EN"
 "http://www.w3.org/TR/2001/REC-SVG-20010904/DTD/svg10.dtd">
<svg version="1.0" xmlns="http://www.w3.org/2000/svg"
 width="512.000000pt" height="512.000000pt" viewBox="0 0 512.000000 512.000000"
 preserveAspectRatio="xMidYMid meet">

<g transform="translate(0.000000,512.000000) scale(0.100000,-0.100000)"
fill="#000000" stroke="none">
<path d="M33 5096 l-28 -24 -3 -2507 -2 -2506 29 -30 30 -29 2506 2 2507 3 24
28 24 28 0 2500 0 2501 -29 29 -29 29 -2501 0 -2500 0 -28 -24z m4907 -2536
l0 -2380 -2380 0 -2380 0 0 2380 0 2380 2380 0 2380 0 0 -2380z"/>
<path d="M403 4755 c-21 -9 -35 -24 -40 -42 -4 -15 -8 -990 -8 -2165 l0 -2138
28 -27 27 -28 2150 0 2150 0 27 28 28 27 3 2128 c2 1533 0 2138 -8 2165 -21
72 155 67 -2202 67 -1796 -1 -2128 -3 -2155 -15z m4187 -2195 l0 -2030 -2030
0 -2030 0 0 2030 0 2030 2030 0 2030 0 0 -2030z"/>
<path d="M1092 4392 c-23 -23 -382 -918 -382 -952 0 -59 62 -98 117 -75 39 16
36 12 109 190 l61 150 152 0 153 0 60 -150 c33 -82 69 -160 81 -172 27 -30 89
-31 117 -3 44 44 43 47 -149 529 -101 251 -192 466 -204 479 -26 28 -89 30
-115 4z m101 -414 c19 -48 32 -89 29 -92 -3 -3 -39 -6 -80 -6 -66 0 -73 2 -68
18 40 107 72 180 78 174 3 -4 22 -46 41 -94z"/>
<path d="M4040 4403 c-73 -5 -278 -33 -370 -49 -542 -99 -1065 -329 -1509
-662 -469 -353 -819 -774 -1077 -1297 -231 -469 -354 -949 -371 -1455 l-6
-175 28 -27 28 -28 208 0 c204 0 208 0 235 24 37 31 38 84 4 121 -23 25 -26
25 -172 25 l-148 0 0 73 c0 39 7 133 15 207 80 719 366 1370 840 1911 l88 100
108 -106 c99 -97 111 -105 147 -105 50 0 86 35 86 86 0 31 -12 46 -107 142
l-108 108 96 84 c579 506 1320 811 2053 847 l132 6 0 -146 c0 -138 1 -147 23
-172 30 -35 88 -37 123 -4 24 22 24 23 24 236 0 214 0 214 -25 238 -23 24 -28
25 -162 23 -76 -1 -158 -3 -183 -5z"/>
<path d="M2363 2823 c-13 -2 -32 -16 -43 -30 -19 -24 -20 -40 -20 -238 0 -208
0 -212 23 -233 29 -28 86 -29 118 -3 21 17 25 30 29 110 l5 91 519 -519 519
-519 -26 -59 c-111 -249 11 -521 274 -608 38 -13 74 -16 143 -13 80 3 101 8
166 39 159 76 252 222 251 396 -1 224 -159 404 -381 434 -84 12 -156 1 -242
-38 l-60 -26 -519 519 -519 519 89 5 c67 4 94 10 109 23 39 35 33 108 -11 137
-17 12 -63 15 -212 17 -104 0 -200 -1 -212 -4z m1612 -1340 c31 -10 67 -34 97
-64 147 -147 70 -394 -137 -440 -125 -28 -260 52 -303 180 -45 131 40 290 177
332 44 13 115 10 166 -8z"/>
</g>
</svg>
