<?xml version="1.0" standalone="no"?>
<!DOCTYPE svg PUBLIC "-//W3C//DTD SVG 20010904//EN"
 "http://www.w3.org/TR/2001/REC-SVG-20010904/DTD/svg10.dtd">
<svg version="1.0" xmlns="http://www.w3.org/2000/svg"
 width="980.000000pt" height="980.000000pt" viewBox="0 0 980.000000 980.000000"
 preserveAspectRatio="xMidYMid meet">

<g transform="translate(0.000000,980.000000) scale(0.100000,-0.100000)"
fill="#000000" stroke="none">
<path d="M4560 9789 c-1035 -75 -1998 -463 -2800 -1128 -150 -123 -501 -475
-622 -621 -881 -1068 -1270 -2403 -1098 -3765 119 -934 501 -1801 1124 -2545
98 -117 370 -393 496 -504 1328 -1166 3158 -1531 4825 -962 895 305 1700 879
2281 1627 540 695 884 1519 993 2384 179 1408 -248 2798 -1185 3865 -112 128
-386 398 -509 501 -761 641 -1667 1026 -2665 1134 -174 19 -664 27 -840 14z
m752 -204 c390 -34 703 -99 1078 -225 1509 -503 2662 -1738 3064 -3280 110
-422 152 -794 143 -1270 -5 -284 -17 -442 -53 -660 -310 -1935 -1811 -3489
-3733 -3864 -355 -70 -604 -90 -1001 -83 -401 7 -676 41 -1026 127 -1787 439
-3157 1878 -3503 3680 -58 304 -81 551 -81 890 0 659 124 1269 377 1854 697
1609 2191 2684 3943 2835 164 14 612 12 792 -4z"/>
<path d="M4786 6327 l-2278 -1732 967 -3 c911 -2 967 -3 960 -19 -5 -14 -1662
-2747 -1724 -2843 -20 -32 -301 -243 2323 1750 l2245 1705 -970 3 c-533 1
-969 4 -969 6 0 4 1623 2679 1701 2804 22 34 36 62 32 61 -5 0 -1033 -779
-2287 -1732z"/>
</g>
</svg>
