<?xml version="1.0" standalone="no"?>
<!DOCTYPE svg PUBLIC "-//W3C//DTD SVG 20010904//EN"
 "http://www.w3.org/TR/2001/REC-SVG-20010904/DTD/svg10.dtd">
<svg version="1.0" xmlns="http://www.w3.org/2000/svg"
 width="512.000000pt" height="512.000000pt" viewBox="0 0 512.000000 512.000000"
 preserveAspectRatio="xMidYMid meet">

<g transform="translate(0.000000,512.000000) scale(0.100000,-0.100000)"
fill="#000000" stroke="none">
<path d="M665 4935 l-25 -24 0 -2031 0 -2031 25 -24 24 -25 256 0 255 0 0
-216 c0 -141 4 -231 12 -258 16 -55 99 -138 154 -154 32 -9 396 -12 1556 -12
1711 0 1573 -7 1651 80 24 26 49 66 55 88 9 29 12 227 12 736 l0 696 55 0 c46
0 60 4 80 25 l25 24 0 1151 0 1151 -25 24 c-20 21 -34 25 -80 25 l-55 0 0 375
0 376 -25 24 c-32 33 -78 33 -110 0 l-25 -24 0 -376 0 -375 -55 0 c-46 0 -60
-4 -80 -25 l-25 -24 0 -1151 0 -1151 25 -24 c20 -21 34 -25 80 -25 l55 0 0
-695 0 -696 -25 -24 -24 -25 -1511 0 -1511 0 -24 25 c-25 24 -25 24 -25 240
l0 215 720 0 720 0 0 -56 c0 -31 5 -75 12 -98 16 -55 99 -138 154 -154 29 -8
155 -12 436 -12 456 0 460 1 531 80 24 26 49 66 55 88 9 28 12 190 12 576 l0
536 55 0 c46 0 60 4 80 25 l25 24 0 1151 0 1151 -25 24 c-20 21 -34 25 -80 25
l-55 0 0 375 0 376 -25 24 c-32 33 -78 33 -110 0 l-25 -24 0 -376 0 -375 -55
0 c-46 0 -60 -4 -80 -25 l-25 -24 0 -1151 0 -1151 25 -24 c20 -21 34 -25 80
-25 l55 0 0 -535 0 -536 -25 -24 -24 -25 -391 0 -391 0 -24 25 c-21 20 -25 34
-25 80 l0 55 255 0 256 0 24 25 25 24 0 2031 0 2031 -25 24 -24 25 -1391 0
-1391 0 -24 -25z m2695 -2055 l0 -1920 -200 0 -200 0 0 84 0 85 53 24 c69 31
123 86 156 156 21 46 26 70 26 136 -1 96 -26 156 -93 223 -65 65 -120 87 -222
87 -102 0 -157 -22 -222 -87 -70 -69 -93 -127 -93 -228 1 -72 5 -93 28 -137
36 -69 88 -120 154 -150 l53 -24 0 -85 0 -84 -720 0 -720 0 0 84 0 85 53 24
c69 31 123 86 156 156 21 46 26 70 26 136 -1 96 -26 156 -93 223 -65 65 -120
87 -222 87 -102 0 -157 -22 -222 -87 -70 -69 -93 -127 -93 -228 1 -72 5 -93
28 -137 36 -69 88 -120 154 -150 l53 -24 0 -85 0 -84 -200 0 -200 0 0 1920 0
1920 1280 0 1280 0 0 -1920z m640 80 l0 -1040 -80 0 -80 0 0 1040 0 1040 80 0
80 0 0 -1040z m640 0 l0 -1040 -80 0 -80 0 0 1040 0 1040 80 0 80 0 0 -1040z
m-3272 -1387 c50 -38 67 -70 67 -132 0 -48 -5 -64 -28 -94 -15 -20 -32 -37
-38 -37 -5 0 -9 36 -9 80 0 73 -3 83 -25 105 -15 16 -36 25 -55 25 -19 0 -40
-9 -55 -25 -22 -22 -25 -32 -25 -105 0 -44 -4 -80 -9 -80 -16 0 -60 65 -67 98
-14 71 25 149 91 178 40 19 120 12 153 -13z m1600 0 c50 -38 67 -70 67 -132 0
-48 -5 -64 -28 -94 -15 -20 -32 -37 -38 -37 -5 0 -9 36 -9 80 0 73 -3 83 -25
105 -15 16 -36 25 -55 25 -19 0 -40 -9 -55 -25 -22 -22 -25 -32 -25 -105 0
-44 -4 -80 -9 -80 -16 0 -60 65 -67 98 -14 71 25 149 91 178 40 19 120 12 153
-13z"/>
<path d="M985 4615 l-25 -24 0 -351 0 -351 25 -24 24 -25 1071 0 1071 0 24 25
25 24 0 351 0 351 -25 24 -24 25 -1071 0 -1071 0 -24 -25z m2055 -375 l0 -240
-960 0 -960 0 0 240 0 240 960 0 960 0 0 -240z"/>
<path d="M1947 3664 c-208 -37 -383 -129 -532 -279 -130 -129 -215 -277 -263
-454 -33 -127 -37 -342 -8 -466 89 -385 376 -672 761 -761 110 -26 320 -26
430 0 240 55 473 211 604 405 63 92 127 234 153 337 30 120 32 331 4 449 -122
525 -627 863 -1149 769z m303 -155 c93 -15 204 -54 290 -102 102 -57 250 -205
307 -307 166 -297 144 -657 -55 -920 -260 -344 -714 -438 -1092 -227 -102 57
-250 205 -307 307 -149 267 -149 573 0 840 57 102 205 250 307 307 171 96 367
132 550 102z"/>
<path d="M1970 3425 c-252 -56 -454 -222 -548 -448 -188 -452 76 -945 558
-1043 98 -19 237 -15 335 11 259 70 469 281 542 545 24 88 24 289 -1 380 -70
261 -282 475 -541 545 -85 23 -264 28 -345 10z m334 -176 c37 -13 68 -28 68
-32 -1 -13 -805 -746 -813 -741 -4 2 -15 39 -25 81 -30 136 -10 273 61 413 37
73 162 196 242 238 144 76 322 91 467 41z m253 -161 c18 -18 33 -38 35 -43 3
-11 -856 -805 -871 -805 -5 0 -25 18 -45 40 l-36 41 57 53 c620 569 815 746
822 746 4 0 21 -15 38 -32z m147 -278 c31 -136 11 -286 -56 -413 -48 -92 -167
-208 -258 -251 -102 -49 -203 -70 -305 -63 -81 6 -222 45 -218 60 3 15 807
746 814 741 4 -2 15 -35 23 -74z"/>
</g>
</svg>
