<svg width="48" height="48" viewBox="0 0 48 48" fill="none" xmlns="http://www.w3.org/2000/svg">
<path d="M20.3153 13.1531C18.7444 10.9281 17.1204 8.62683 16.1191 6.27843C15.9595 5.90719 15.35 5.90719 15.1904 6.27843C14.1891 8.62683 12.5651 10.9281 10.9943 13.1531C9.49719 15.2742 7.94934 17.4666 7.00853 19.6227C6.3398 20.9734 6 22.4124 6 23.8998C6 29.223 10.3316 33.5534 15.6548 33.5534C20.978 33.5534 25.3083 29.223 25.3083 23.8998C25.3083 22.4173 24.9722 20.9819 24.3046 19.6336C23.3542 17.4593 21.8099 15.2693 20.3153 13.1531" stroke="#000000" stroke-width="2.25" fill="none"/>
<path d="M41.5034 31.2424C40.7754 29.5784 39.5964 27.9084 38.4573 26.2941C37.2649 24.6047 36.0327 22.8585 35.2757 21.0833C35.1971 20.8995 35.0169 20.7798 34.8174 20.7798C34.6179 20.7798 34.4365 20.8995 34.3579 21.0833C33.6009 22.8585 32.3674 24.6047 31.1763 26.2941C30.0347 27.9121 28.8521 29.5857 28.1338 31.2315C27.6174 32.2751 27.355 33.3864 27.355 34.5388C27.355 38.6528 30.7023 42 34.8174 42C38.9313 42 42.2785 38.6528 42.2785 34.5388C42.2785 33.3912 42.0186 32.2823 41.5034 31.2424" fill="none" stroke="#000000" stroke-width="2.25"/>
<path d="M23.0141 6L22.1391 9.27273M29.1391 8.45455L25.6391 10.9091M29.1391 15L26.5141 14.5909" stroke="#000000" stroke-width="2.25" stroke-linecap="round" fill="none"/>
</svg>
