<svg width="252" height="252" viewBox="0 0 252 252" fill="none" xmlns="http://www.w3.org/2000/svg">
<path fill-rule="evenodd" clip-rule="evenodd" d="M178.7 136C190.9 128.7 195.6 113.2 188.8 100C181.9 86.4001 165.6 80.8001 152.4 87.4001L152.1 87.5001C149.8 88.6001 147.1 87.6001 145.9 85.4001C144.8 83.0001 145.6 80.3001 147.8 79.2001L200.2 53.0001C213.4 46.4001 218.5 30.0001 211.5 16.4001C204.8 3.20013 188.6 -2.59987 175.4 4.00013L55.7003 64.0001C42.5003 70.5001 37.4003 86.9001 44.4003 100.5C51.3003 114.1 67.6003 119.7 80.8003 113.2L79.5003 113.8C81.8003 112.7 84.5003 113.7 85.7003 115.9C86.8003 118.3 86.0003 121 83.8003 122.1L33.0003 147.6C19.8003 154.2 14.7003 170.6 21.7003 184.1C28.6003 197.7 44.9003 203.3 58.1003 196.7L68.8003 191.3C71.1003 190.2 73.8003 191.2 75.0003 193.4C76.1003 195.8 76.0003 198.1 73.2003 199.5C61.4003 205.5 56.0003 222 62.9003 235.5C69.8003 249.1 86.1003 254.7 99.3003 248.1L219 188.1C232.2 181.5 237.3 165.1 230.3 151.5C223.4 137.9 207.1 132.3 193.9 138.9L182.2 144.8C179.9 145.9 177.2 144.9 176 142.7C174.9 140.3 175.8 137.6 177.9 136.4C178.1 136.4 178.5 136.1 178.7 136Z" fill="#F0EBE6"/>
<path d="M225.4 222.5C222.1 222.5 219.4 219.9 219.4 216.5C219.4 216.4 219.3 216.2 219.1 216.2C219 216.2 218.8 216.3 218.8 216.5C218.8 219.8 216.2 222.5 212.8 222.5C212.7 222.5 212.5 222.6 212.5 222.8C212.5 222.9 212.6 223.1 212.8 223.1C216.1 223.1 218.8 225.7 218.8 229.1C218.8 229.2 218.9 229.4 219.1 229.4C219.2 229.4 219.4 229.3 219.4 229.1C219.4 225.8 222 223.1 225.4 223.1C225.5 223.1 225.7 223 225.7 222.8C225.7 222.7 225.6 222.5 225.4 222.5Z" fill="#F2A85A"/>
<path d="M205 212.5C203.3 212.5 201.7 211 201.7 209.2C201.7 209.1 201.7 209.1 201.6 209.1C201.5 209.1 201.5 209.1 201.5 209.2C201.5 210.9 200 212.5 198.2 212.5C198.1 212.5 198.1 212.5 198.1 212.6C198.1 212.7 198.1 212.7 198.2 212.7C199.9 212.7 201.5 214.2 201.5 216C201.5 216.1 201.5 216.1 201.6 216.1C201.7 216.1 201.7 216.1 201.7 216C201.7 214.3 203.2 212.7 205 212.7C205.1 212.8 205.1 212.8 205 212.5C205.1 212.5 205.1 212.7 205 212.5Z" fill="#F2A85A"/>
<path d="M39.6002 107.5C36.3002 107.5 33.6002 104.9 33.6002 101.5C33.6002 101.4 33.5002 101.2 33.3002 101.2C33.2002 101.3 33.0002 101.3 33.0002 101.5C33.0002 104.8 30.4002 107.5 27.0002 107.5C26.9002 107.5 26.7002 107.6 26.7002 107.8C26.7002 108 26.8002 108.1 27.0002 108.1C30.3002 108.1 33.0002 110.7 33.0002 114.1C33.0002 114.2 33.1002 114.4 33.3002 114.4C33.4002 114.4 33.6002 114.3 33.6002 114.1C33.6002 110.8 36.2002 108.1 39.6002 108.1C39.7002 108.1 39.9002 108 39.9002 107.8C39.9002 107.6 39.7002 107.5 39.6002 107.5Z" fill="#F2A85A"/>
<path d="M67.3002 105.2C61.4002 107.3 45.3002 115.2 46.0002 134C46.7002 152.8 46.8002 165.1 53.6002 180.8C56.9002 188.3 60.8002 205.3 86.3002 199.1C109.1 193.5 176.9 168 189.2 162C201.3 156.1 217.2 148.4 210.3 135.4C203.4 122.4 191.4 98.5001 181.4 89.1001C171.3 79.7001 162.1 72.9001 142.7 79.4001C123.1 86.0001 86.0002 98.5001 67.3002 105.2Z" fill="white"/>
<path d="M46.3003 142.6C46.9003 156.9 47.8003 167.6 53.6003 180.8C56.9003 188.3 60.8003 205.3 86.3003 199.1C109.1 193.5 176.9 168 189.2 162C201.3 156.1 217.2 148.4 210.3 135.4C208.2 131.4 205.5 126.3 202.6 120.9C202.6 120.9 205.7 133.2 193.1 139.1C180.4 145 98.6003 174.6 90.8003 177C83.0003 179.4 61.2003 185.1 56.1003 172.3C56.1003 172.3 50.2003 158.5 48.8003 153.7C47.9003 151 46.3003 142.6 46.3003 142.6Z" fill="#F6E4D9"/>
<path d="M165.2 96.9002L168.7 95.4002L166 90.7002L161.8 91.7002L158.7 86.9002L144.3 91.8002L140.6 85.7002L125.3 90.8002C125.3 90.8002 127.3 84.7002 117.1 88.2002C107.9 91.3002 114.2 94.7002 114.2 94.7002L110.7 95.7002L125.7 126.3L158.8 114.5L154.4 107.8L168.5 102.1L165.2 96.9002ZM126.8 111.6L123.1 104L140.5 98.0002L144.7 105.3L126.8 111.6Z" fill="#F6E4D9"/>
<path d="M126.8 111.6L123.1 104L140.5 98L144.7 105.3L126.8 111.6Z" fill="#AFA5A3"/>
<path d="M159.2 115.1L154.4 107.8L171.4 101.5L176.8 109.2L159.2 115.1Z" fill="#AFA5A3"/>
<path d="M140.6 85.4002L157.3 79.7002L161.4 85.9002L144.3 91.7002L140.6 85.4002Z" fill="#AFA5A3"/>
<path d="M106.7 96.9001C106.7 96.9001 85.9003 104.4 82.2003 105.7C69.1003 110.2 64.3003 112.5 66.1003 118.8C68.6003 127.6 69.9003 130.9 71.9003 135.9C73.9003 140.9 77.4003 143.9 93.5003 137.8C109.6 131.7 121.6 127.6 121.6 127.6L106.7 96.9001ZM101.4 120.3C96.4003 122.1 91.7003 121.7 90.9003 119.5C90.1003 117.3 93.6003 114.1 98.6003 112.4C103.6 110.6 108.3 111 109.1 113.2C109.8 115.4 106.4 118.6 101.4 120.3Z" fill="#F6E4D9"/>
<path d="M101.391 120.356C106.394 118.601 109.827 115.404 109.06 113.215C108.292 111.027 103.614 110.675 98.6108 112.43C93.6079 114.185 90.1747 117.382 90.9424 119.571C91.7102 121.759 96.3883 122.111 101.391 120.356Z" fill="#AFA5A3"/>
<path d="M97.1002 121.4L96.0002 118.2C95.5002 116.7 97.4002 114.7 100.3 113.7C103.2 112.7 106 113.1 106.5 114.5L107.3 116.6C107.3 116.6 104.3 119.3 103.1 119.9C101.7 120.5 97.1002 121.4 97.1002 121.4Z" fill="#F0EBE6"/>
<path d="M119.313 92.3391C121.333 91.7695 122.788 90.6614 122.563 89.864C122.339 89.0667 120.519 88.882 118.499 89.4516C116.479 90.0212 115.024 91.1293 115.248 91.9267C115.473 92.724 117.293 92.9087 119.313 92.3391Z" fill="#F2A85A"/>
<path d="M189.1 162C201.2 156.1 217.1 148.4 210.2 135.4C203.3 122.4 191.3 98.5001 181.3 89.1001C171.2 79.7001 162 72.9001 142.6 79.4001" stroke="black" stroke-width="1.4" stroke-miterlimit="10" stroke-linecap="round" stroke-linejoin="round"/>
<path d="M67.3002 105.2C61.4002 107.3 45.3002 115.2 46.0002 134C46.7002 152.8 46.8002 165.1 53.6002 180.8" stroke="black" stroke-width="1.4" stroke-miterlimit="10" stroke-linecap="round" stroke-linejoin="round"/>
<path d="M111.6 191.3C140.7 181.5 180 166.4 189.1 162C201.2 156.1 217.1 148.4 210.2 135.4C208.1 131.4 205.4 126.3 202.5 120.9C202.5 120.9 205.6 133.2 193 139.1C180.3 145 98.5002 174.6 90.7002 177C82.9002 179.4 61.1002 185.1 56.0002 172.3C56.0002 172.3 50.1002 158.5 48.7002 153.7C47.9002 150.9 46.2002 142.5 46.2002 142.5C46.8002 156.8 47.7002 167.5 53.5002 180.7" stroke="black" stroke-width="1.4" stroke-miterlimit="10" stroke-linecap="round" stroke-linejoin="round"/>
<path d="M82.2003 105.8C69.1003 110.3 64.3003 112.6 66.1003 118.9C68.6003 127.7 69.9003 131 71.9003 136C73.9003 141 77.4003 144 93.5003 137.9C109.6 131.8 121.6 127.7 121.6 127.7L106.7 96.9001C106.7 96.9001 85.9003 104.5 82.2003 105.8Z" stroke="black" stroke-width="1.4" stroke-miterlimit="10" stroke-linecap="round" stroke-linejoin="round"/>
<path d="M101.391 120.356C106.394 118.601 109.827 115.404 109.06 113.215C108.292 111.026 103.614 110.675 98.6108 112.43C93.6079 114.185 90.1747 117.382 90.9424 119.57C91.7102 121.759 96.3883 122.111 101.391 120.356Z" stroke="black" stroke-width="1.4" stroke-miterlimit="10" stroke-linecap="round" stroke-linejoin="round"/>
<path d="M107.3 116.5L106.5 114.4C106 112.9 103.2 112.6 100.3 113.6C97.4002 114.6 95.5002 116.6 96.0002 118.1L97.1002 121.3" stroke="black" stroke-width="1.4" stroke-miterlimit="10" stroke-linecap="round" stroke-linejoin="round"/>
<path d="M125.3 90.7L157.3 79.7L161.4 85.9L144.3 91.7" stroke="black" stroke-width="1.4" stroke-miterlimit="10" stroke-linecap="round" stroke-linejoin="round"/>
<path d="M158.8 114.5L154.4 107.8L171.4 101.5L176.8 109.2L125.7 126.2L110.7 95.6001L114.2 94.6001" stroke="black" stroke-width="1.4" stroke-miterlimit="10" stroke-linecap="round" stroke-linejoin="round"/>
<path d="M161.8 91.6001L158.7 86.8001L144.3 91.7001L140.6 85.6001" stroke="black" stroke-width="1.4" stroke-miterlimit="10" stroke-linecap="round" stroke-linejoin="round"/>
<path d="M168.5 102.1L165.2 96.9001" stroke="black" stroke-width="1.4" stroke-miterlimit="10" stroke-linecap="round" stroke-linejoin="round"/>
<path d="M123.1 104L126.8 111.6L144.7 105.3L140.5 98L123.1 104Z" stroke="black" stroke-width="1.4" stroke-miterlimit="10" stroke-linecap="round" stroke-linejoin="round"/>
<path d="M117.7 98.3001L115.9 95.1001C115.7 94.8001 115.5 94.6001 115.1 94.6001C113.3 94.5001 112 93.9001 111.7 92.9001C111.2 91.2001 114 89.0001 117.9 87.8001C121.8 86.6001 125.4 87.0001 125.9 88.7001C126.2 89.6001 125.6 90.6001 124.5 91.5001C124.3 91.6001 124.3 91.9001 124.4 92.1001L126.1 95.3001" stroke="black" stroke-width="1.4" stroke-miterlimit="10" stroke-linecap="round" stroke-linejoin="round"/>
<path d="M166 90.7L158.8 92.9C157.2 92.4 155.1 92.3 153 92.9C149.1 94 146.5 96.8 147.2 99.1C147.9 101.4 151.6 102.4 155.5 101.3C157.8 100.6 159.7 99.4 160.7 98L168.8 95.3" stroke="black" stroke-width="1.4" stroke-miterlimit="10" stroke-linecap="round" stroke-linejoin="round"/>
<path d="M154.451 99.4318C156.704 98.8811 158.286 97.4344 157.985 96.2005C157.683 94.9666 155.612 94.4127 153.359 94.9634C151.105 95.514 149.523 96.9607 149.825 98.1947C150.126 99.4286 152.197 99.9825 154.451 99.4318Z" stroke="black" stroke-width="1.4" stroke-miterlimit="10" stroke-linecap="round" stroke-linejoin="round"/>
<path d="M119.313 92.3391C121.333 91.7695 122.788 90.6614 122.563 89.864C122.339 89.0667 120.519 88.882 118.499 89.4516C116.479 90.0212 115.024 91.1293 115.248 91.9267C115.473 92.724 117.293 92.9087 119.313 92.3391Z" stroke="black" stroke-width="1.4" stroke-miterlimit="10" stroke-linecap="round" stroke-linejoin="round"/>
<path d="M140.5 98L141.9 106.3" stroke="black" stroke-width="1.4" stroke-miterlimit="10" stroke-linecap="round" stroke-linejoin="round"/>
<path d="M157.3 79.7L157.9 86.8" stroke="black" stroke-width="1.4" stroke-miterlimit="10" stroke-linecap="round" stroke-linejoin="round"/>
<path d="M171.4 101.5L172.7 110.6" stroke="black" stroke-width="1.4" stroke-miterlimit="10" stroke-linecap="round" stroke-linejoin="round"/>
<path d="M118.4 41.8V80.2" stroke="#005943" stroke-width="1.4" stroke-miterlimit="10" stroke-linecap="round"/>
<path d="M111.7 70.7C112 70.5 112.5 70.6 112.7 70.9L118.5 79.9L124.3 70.9C124.5 70.6 124.9 70.5 125.3 70.7C125.6 70.9 125.7 71.3 125.5 71.7L119.2 81.7C119.1 81.9 118.8 82 118.6 82C118.4 82 118.1 81.9 118 81.7L111.7 71.7C111.6 71.6 111.6 71.5 111.6 71.3C111.3 71 111.4 70.8 111.7 70.7Z" fill="#005943"/>
<path d="M98.1001 117.2C100.2 115.2 101.5 115 104.4 115" stroke="black" stroke-width="1.4" stroke-miterlimit="10" stroke-linecap="round" stroke-linejoin="round"/>
<path d="M101.1 113.4C100.6 114.2 100.6 116.2 100.9 117.4" stroke="black" stroke-width="1.4" stroke-miterlimit="10" stroke-linecap="round" stroke-linejoin="round"/>
</svg>
