<svg width="48" height="48" viewBox="0 0 48 48" fill="none" xmlns="http://www.w3.org/2000/svg">
<path d="M35.8417 21.2088L34.7467 21.467L34.9511 22.3338H35.8417V21.2088ZM25.9805 12.0186L25.7775 13.1251L25.788 13.127L25.7986 13.1288L25.9805 12.0186ZM25.7066 12.0945L26.4346 12.9521L26.4355 12.9514L25.7066 12.0945ZM22.3687 12.0814L23.1074 11.2329L23.1001 11.2265L23.0927 11.2203L22.3687 12.0814ZM22.0956 12.0046L22.2712 13.1159L22.2821 13.114L22.0956 12.0046ZM12.1664 21.2088V22.3338H13.0572L13.2615 21.4668L12.1664 21.2088ZM12.1158 26.5454L13.2162 26.311L13.0264 25.4204H12.1158V26.5454ZM22.0956 35.9965L21.9198 37.1077L21.9516 37.1127L21.9837 37.1159L22.0956 35.9965ZM22.3687 35.9197L23.0877 36.785L23.1005 36.7743L23.113 36.7633L22.3687 35.9197ZM25.7066 35.9066L24.9728 36.7594L24.9786 36.7643L25.7066 35.9066ZM25.9805 35.9826L25.7983 34.8724L25.794 34.8731L25.9805 35.9826ZM35.8914 26.5454V25.4204H34.9808L34.7911 26.3111L35.8914 26.5454ZM18.8536 25.3297C18.1195 25.3297 17.5245 24.7344 17.5245 24.0005H15.2745C15.2745 25.9765 16.8763 27.5797 18.8536 27.5797V25.3297ZM17.5245 24.0005C17.5245 23.2661 18.1192 22.6714 18.8536 22.6714V20.4214C16.8766 20.4214 15.2745 22.0235 15.2745 24.0005H17.5245ZM18.8536 22.6714C19.5881 22.6714 20.1828 23.2661 20.1828 24.0005H22.4328C22.4328 22.0235 20.8307 20.4214 18.8536 20.4214V22.6714ZM20.1828 24.0005C20.1828 24.7344 19.5878 25.3297 18.8536 25.3297V27.5797C20.831 27.5797 22.4328 25.9765 22.4328 24.0005H20.1828ZM30.4827 24.0005C30.4827 24.7344 29.8877 25.3297 29.1536 25.3297V27.5797C31.1309 27.5797 32.7327 25.9765 32.7327 24.0005H30.4827ZM29.1536 25.3297C28.42 25.3297 27.8244 24.7341 27.8244 24.0005H25.5744C25.5744 25.9767 27.1774 27.5797 29.1536 27.5797V25.3297ZM27.8244 24.0005C27.8244 23.2664 28.4197 22.6714 29.1536 22.6714V20.4214C27.1776 20.4214 25.5744 22.0232 25.5744 24.0005H27.8244ZM29.1536 22.6714C29.888 22.6714 30.4827 23.2661 30.4827 24.0005H32.7327C32.7327 22.0235 31.1306 20.4214 29.1536 20.4214V22.6714ZM36.8345 20.0838H35.8417V22.3338H36.8345V20.0838ZM36.9366 20.9506C35.7182 15.7839 31.4284 11.7714 26.1625 10.9084L25.7986 13.1288C30.1678 13.8448 33.7369 17.1852 34.7467 21.467L36.9366 20.9506ZM26.1836 10.912C25.7411 10.8309 25.2992 10.9641 24.9777 11.2375L26.4355 12.9514C26.2658 13.0957 26.0298 13.1714 25.7775 13.1251L26.1836 10.912ZM24.9786 11.2368C24.6555 11.511 24.4621 11.9171 24.4621 12.3518H26.7121C26.7121 12.5876 26.6076 12.8053 26.4346 12.9521L24.9786 11.2368ZM24.4621 12.3518V14.2398H26.7121V12.3518H24.4621ZM24.4621 14.2398C24.4621 13.6761 24.917 13.1854 25.5173 13.1854V15.4354C26.1961 15.4354 26.7121 14.882 26.7121 14.2398H24.4621ZM25.5173 13.1854H22.5571V15.4354H25.5173V13.1854ZM22.5571 13.1854C23.1401 13.1854 23.6115 13.6569 23.6115 14.2398H21.3615C21.3615 14.8995 21.8974 15.4354 22.5571 15.4354V13.1854ZM23.6115 14.2398V12.3387H21.3615V14.2398H23.6115ZM23.6115 12.3387C23.6115 11.9096 23.423 11.5077 23.1074 11.2329L21.63 12.9299C21.4626 12.7842 21.3615 12.5707 21.3615 12.3387H23.6115ZM23.0927 11.2203C22.7777 10.9554 22.3507 10.8209 21.9091 10.8952L22.2821 13.114C22.0377 13.1551 21.8061 13.0782 21.6446 12.9424L23.0927 11.2203ZM21.92 10.8934C16.6162 11.7316 12.2964 15.7513 11.0714 20.9508L13.2615 21.4668C14.2769 17.1567 17.8701 13.8114 22.2712 13.1158L21.92 10.8934ZM12.1664 20.0838H11.3385V22.3338H12.1664V20.0838ZM11.3385 20.0838C10.5296 20.0838 9.875 20.7384 9.875 21.5473H12.125C12.125 21.981 11.7722 22.3338 11.3385 22.3338V20.0838ZM9.875 21.5473V26.2078H12.125V21.5473H9.875ZM9.875 26.2078C9.875 27.0177 10.5315 27.6704 11.3385 27.6704V25.4204C11.7704 25.4204 12.125 25.7713 12.125 26.2078H9.875ZM11.3385 27.6704H12.1158V25.4204H11.3385V27.6704ZM11.0155 26.7798C12.1534 32.1213 16.4987 36.2498 21.9198 37.1077L22.2715 34.8853C17.7694 34.1729 14.1599 30.7409 13.2162 26.311L11.0155 26.7798ZM21.9837 37.1159C21.9915 37.1167 22.065 37.125 22.1479 37.125V34.875C22.1759 34.875 22.1968 34.8764 22.2059 34.8771C22.2106 34.8774 22.2136 34.8777 22.2137 34.8777C22.2138 34.8777 22.2134 34.8777 22.2124 34.8776C22.2112 34.8775 22.2099 34.8773 22.2075 34.8771L21.9837 37.1159ZM22.1479 37.125C22.4953 37.125 22.8272 37.0015 23.0877 36.785L21.6497 35.0545C21.7863 34.941 21.9611 34.875 22.1479 34.875V37.125ZM23.113 36.7633C23.4212 36.4914 23.6115 36.0943 23.6115 35.6615H21.3615C21.3615 35.4276 21.4645 35.2172 21.6243 35.0762L23.113 36.7633ZM23.6115 35.6615V33.7613H21.3615V35.6615H23.6115ZM23.6115 33.7613C23.6115 34.3623 23.1219 34.8165 22.5571 34.8165V32.5665C21.9156 32.5665 21.3615 33.0836 21.3615 33.7613H23.6115ZM22.5571 34.8165H25.5173V32.5665H22.5571V34.8165ZM25.5173 34.8165C24.9344 34.8165 24.4621 34.3443 24.4621 33.7613H26.7121C26.7121 33.1016 26.177 32.5665 25.5173 32.5665V34.8165ZM24.4621 33.7613V35.6484H26.7121V33.7613H24.4621ZM24.4621 35.6484C24.4621 36.0844 24.6562 36.487 24.9728 36.7594L26.4404 35.0539C26.6069 35.1972 26.7121 35.4113 26.7121 35.6484H24.4621ZM24.9786 36.7643C25.3012 37.0382 25.7347 37.1647 26.1671 37.092L25.794 34.8731C26.0292 34.8336 26.262 34.9025 26.4346 35.049L24.9786 36.7643ZM26.1628 37.0927C31.5459 36.209 35.8612 32.087 36.9917 26.7798L34.7911 26.3111C33.8539 30.7106 30.2685 34.1386 25.7983 34.8724L26.1628 37.0927ZM35.8914 27.6704H36.8345V25.4204H35.8914V27.6704ZM36.8345 27.6704C37.6387 27.6704 38.298 27.0196 38.298 26.2078H36.048C36.048 25.7694 36.4037 25.4204 36.8345 25.4204V27.6704ZM38.298 26.2078V21.5473H36.048V26.2078H38.298ZM38.298 21.5473C38.298 20.7365 37.6406 20.0838 36.8345 20.0838V22.3338C36.4018 22.3338 36.048 21.9829 36.048 21.5473H38.298Z" fill="#000000"/>
<rect x="4" y="4" width="40" height="40" rx="5" stroke="#000000" stroke-width="2.25" fill="none"/>
</svg>
