<?xml version="1.0" standalone="no"?>
<!DOCTYPE svg PUBLIC "-//W3C//DTD SVG 20010904//EN"
 "http://www.w3.org/TR/2001/REC-SVG-20010904/DTD/svg10.dtd">
<svg version="1.0" xmlns="http://www.w3.org/2000/svg"
 width="1024.000000pt" height="982.000000pt" viewBox="0 0 1024.000000 982.000000"
 preserveAspectRatio="xMidYMid meet">

<g transform="translate(0.000000,982.000000) scale(0.100000,-0.100000)"
fill="#000000" stroke="none">
<path d="M1523 9125 c-252 -46 -483 -194 -651 -420 -61 -82 -137 -242 -165
-345 l-22 -85 0 -3335 0 -3335 23 -85 c39 -151 121 -300 235 -433 118 -137
336 -272 517 -320 l85 -22 3335 0 3335 0 85 22 c181 48 399 183 517 320 114
133 196 282 235 433 l23 85 0 3335 0 3335 -22 85 c-48 181 -183 399 -320 517
-130 112 -278 193 -428 235 l-80 23 -3315 2 c-2688 1 -3329 -1 -3387 -12z
m6702 -400 c226 -48 393 -215 440 -440 22 -106 22 -6584 0 -6690 -47 -225
-214 -392 -440 -440 -106 -22 -6584 -22 -6690 0 -172 37 -313 143 -386 290
-75 153 -69 -147 -67 3527 3 3192 4 3305 22 3358 76 226 249 374 471 403 17 2
1504 5 3305 5 2854 1 3284 0 3345 -13z"/>
<path d="M4705 7083 c-896 -78 -1677 -741 -1906 -1617 -42 -162 -59 -281 -66
-456 -28 -754 369 -1483 1037 -1900 321 -201 734 -320 1110 -320 733 0 1443
406 1836 1051 416 682 416 1516 0 2198 -176 289 -434 549 -722 729 -378 236
-856 353 -1289 315z m25 -423 l0 -120 150 0 150 0 0 121 0 122 72 -7 c350 -32
743 -206 1016 -448 815 -723 813 -2057 -3 -2779 -272 -240 -665 -413 -1013
-445 l-72 -7 0 122 0 121 -150 0 -150 0 0 -121 0 -122 -72 7 c-348 32 -741
205 -1013 445 -611 540 -790 1460 -429 2211 224 467 633 811 1136 956 106 31
272 62 336 63 l42 1 0 -120z"/>
<path d="M4015 5121 c-52 -23 -111 -89 -126 -140 -18 -59 1 -114 60 -172 28
-29 62 -52 89 -59 60 -19 114 0 173 59 84 84 88 168 11 253 -40 44 -101 78
-142 78 -14 0 -43 -9 -65 -19z m126 -120 c22 -22 39 -48 39 -61 0 -13 -17 -39
-39 -61 -22 -22 -48 -39 -61 -39 -13 0 -39 17 -61 39 -22 22 -39 48 -39 61 0
13 17 39 39 61 22 22 48 39 61 39 13 0 39 -17 61 -39z"/>
<path d="M5615 5121 c-52 -23 -111 -89 -126 -140 -10 -33 -10 -50 1 -83 16
-57 91 -132 148 -148 60 -19 114 0 173 59 84 84 88 168 11 253 -40 44 -101 78
-142 78 -14 0 -43 -9 -65 -19z m126 -120 c22 -22 39 -48 39 -61 0 -29 -71
-100 -100 -100 -29 0 -100 71 -100 100 0 29 71 100 100 100 13 0 39 -17 61
-39z"/>
</g>
</svg>
