<svg width="252" height="252" viewBox="0 0 252 252" fill="none" xmlns="http://www.w3.org/2000/svg">
<path fill-rule="evenodd" clip-rule="evenodd" d="M175.4 4.09995L55.6998 63.9999C42.4998 70.4999 37.3998 86.8999 44.3998 100.5C51.2998 114.1 67.5998 119.7 80.7998 113.2L79.4998 113.8C81.7998 112.7 84.4998 113.7 85.6998 115.9C86.7998 118.3 85.9998 121 83.7998 122.1L32.9998 147.6C19.7998 154.2 14.6998 170.6 21.6998 184.1C28.5998 197.7 44.8998 203.3 58.0998 196.7L68.7998 191.3C71.0998 190.2 73.7998 191.2 74.9998 193.4C76.0998 195.8 75.9998 198.1 73.1998 199.5C61.3998 205.5 55.9998 222 62.8998 235.5C69.7998 249.1 86.0998 254.7 99.2998 248.1L219 188.1C232.2 181.5 237.3 165.1 230.3 151.5C223.4 137.9 207.1 132.3 193.9 138.9L182.2 144.8C179.9 145.9 177.2 144.9 176 142.7C174.9 140.3 175.7 137.6 177.9 136.5L177.5 136.6C190.7 130 195.8 113.6 188.8 99.9999C181.9 86.3999 165.6 80.7999 152.4 87.3999L152.1 87.4999C149.8 88.5999 147.1 87.5999 145.9 85.3999C144.8 82.9999 145.6 80.2999 147.8 79.1999L200.2 52.9999C213.4 46.3999 218.5 29.9999 211.5 16.3999C204.8 3.19995 188.6 -2.60005 175.4 4.09995Z" fill="#F0EBE6"/>
<path d="M175.6 223.6C172.3 223.6 169.6 221 169.6 217.6C169.6 217.5 169.5 217.3 169.3 217.3C169.2 217.3 169 217.4 169 217.6C169 220.9 166.4 223.6 163 223.6C162.9 223.6 162.7 223.7 162.7 223.9C162.7 224 162.8 224.2 163 224.2C166.3 224.2 169 226.8 169 230.2C169 230.3 169.1 230.5 169.3 230.5C169.4 230.5 169.6 230.4 169.6 230.2C169.6 226.9 172.2 224.2 175.6 224.2C175.7 224.2 175.9 224.1 175.9 223.9C175.9 223.8 175.7 223.6 175.6 223.6Z" fill="#F2A85A"/>
<path d="M155.1 213.6C153.4 213.6 151.8 212.1 151.8 210.3C151.8 210.2 151.8 210.2 151.7 210.2C151.6 210.2 151.6 210.2 151.6 210.3C151.6 212 150.1 213.6 148.3 213.6C148.2 213.6 148.2 213.6 148.2 213.7C148.2 213.8 148.2 213.8 148.3 213.8C150 213.8 151.6 215.3 151.6 217.1C151.6 217.2 151.6 217.2 151.7 217.2C151.8 217.2 151.8 217.2 151.8 217.1C151.8 215.4 153.3 213.8 155.1 213.8C155.2 213.9 155.2 213.9 155.1 213.6C155.2 213.7 155.2 213.6 155.1 213.6Z" fill="#F2A85A"/>
<path d="M56.5997 40.3C53.2997 40.3 50.5997 37.7 50.5997 34.3C50.5997 34.2 50.4997 34 50.2997 34C50.1997 34.1 49.9997 34.1 49.9997 34.3C49.9997 37.6 47.3997 40.3 43.9997 40.3C43.8997 40.3 43.6997 40.4 43.6997 40.6C43.6997 40.7 43.7997 40.9 43.9997 40.9C47.2997 40.9 49.9997 43.5 49.9997 46.9C49.9997 47 50.0997 47.2 50.2997 47.2C50.3997 47.2 50.5997 47.1 50.5997 46.9C50.5997 43.6 53.1997 40.9 56.5997 40.9C56.6997 40.9 56.8997 40.8 56.8997 40.6C56.8997 40.4 56.6997 40.3 56.5997 40.3Z" fill="#F2A85A"/>
<path d="M169.6 198.8H87.9999C79.8999 198.8 73.3999 192.2 73.3999 184.2V54.0001C73.3999 46.0001 79.9999 39.4001 87.9999 39.4001H169.6C177.7 39.4001 184.2 46.0001 184.2 54.0001V184.1C184.2 192.2 177.7 198.8 169.6 198.8Z" fill="white"/>
<path d="M113.4 191.1H89.0996C84.6996 191.1 81.0996 187.5 81.0996 183.1V155.9C81.0996 151.5 84.6996 147.9 89.0996 147.9H113.4C117.8 147.9 121.4 151.5 121.4 155.9V183.1C121.4 187.5 117.8 191.1 113.4 191.1Z" fill="white"/>
<path d="M113.4 140.7H89.0996C84.6996 140.7 81.0996 137.1 81.0996 132.7V105.5C81.0996 101.1 84.6996 97.5 89.0996 97.5H113.4C117.8 97.5 121.4 101.1 121.4 105.5V132.7C121.4 137.1 117.8 140.7 113.4 140.7Z" fill="#9FDCB2"/>
<path d="M113.4 90.3001H89.0996C84.6996 90.3001 81.0996 86.7001 81.0996 82.3001V55.1001C81.0996 50.7001 84.6996 47.1001 89.0996 47.1001H113.4C117.8 47.1001 121.4 50.7001 121.4 55.1001V82.3001C121.4 86.7001 117.8 90.3001 113.4 90.3001Z" fill="#9FDCB2"/>
<path d="M168.9 191.1H144.6C140.2 191.1 136.6 187.5 136.6 183.1V155.9C136.6 151.5 140.2 147.9 144.6 147.9H168.9C173.3 147.9 176.9 151.5 176.9 155.9V183.1C176.9 187.5 173.3 191.1 168.9 191.1Z" fill="white"/>
<path d="M168.9 140.7H144.6C140.2 140.7 136.6 137.1 136.6 132.7V105.5C136.6 101.1 140.2 97.5 144.6 97.5H168.9C173.3 97.5 176.9 101.1 176.9 105.5V132.7C176.9 137.1 173.3 140.7 168.9 140.7Z" fill="#9FDCB2"/>
<path d="M168.9 90.3001H144.6C140.2 90.3001 136.6 86.7001 136.6 82.3001V55.1001C136.6 50.7001 140.2 47.1001 144.6 47.1001H168.9C173.3 47.1001 176.9 50.7001 176.9 55.1001V82.3001C176.9 86.7001 173.3 90.3001 168.9 90.3001Z" fill="#9FDCB2"/>
<path d="M184.2 181.1V189.2C184.2 197.5 177.4 204.4 169 204.4H84.9998C76.6998 204.4 69.7998 197.6 69.7998 189.2V54.5C69.7998 46.2 76.5998 39.3 84.9998 39.3H89.9998H87.9998C79.9998 39.4 73.3998 46 73.3998 54V184.1C73.3998 192.2 79.9998 198.7 87.9998 198.7H169.6C177.7 198.7 184.2 192.1 184.2 184.1V181.1Z" fill="#F6E4D9"/>
<path d="M169.6 198.8H87.9999C79.8999 198.8 73.3999 192.2 73.3999 184.2V54.0001C73.3999 46.0001 79.9999 39.4001 87.9999 39.4001H169.6C177.7 39.4001 184.2 46.0001 184.2 54.0001V184.1" stroke="black" stroke-width="1.4" stroke-miterlimit="10" stroke-linecap="round" stroke-linejoin="round"/>
<path d="M184.2 181.1V189.2C184.2 197.5 177.4 204.4 169 204.4H84.9998C76.6998 204.4 69.7998 197.6 69.7998 189.2V54.5002" stroke="black" stroke-width="1.4" stroke-miterlimit="10" stroke-linecap="round" stroke-linejoin="round"/>
<path d="M129.3 39.4001V198.6" stroke="black" stroke-width="1.4" stroke-miterlimit="10" stroke-linecap="round" stroke-linejoin="round"/>
<path d="M113.4 191.1H89.0996C84.6996 191.1 81.0996 187.5 81.0996 183.1V155.9C81.0996 151.5 84.6996 147.9 89.0996 147.9H113.4C117.8 147.9 121.4 151.5 121.4 155.9V183.1C121.4 187.5 117.8 191.1 113.4 191.1Z" stroke="black" stroke-width="1.4" stroke-miterlimit="10" stroke-linecap="round" stroke-linejoin="round"/>
<path d="M113.4 140.7H89.0996C84.6996 140.7 81.0996 137.1 81.0996 132.7V105.5C81.0996 101.1 84.6996 97.5002 89.0996 97.5002H113.4C117.8 97.5002 121.4 101.1 121.4 105.5V132.7C121.4 137.1 117.8 140.7 113.4 140.7Z" stroke="black" stroke-width="1.4" stroke-miterlimit="10" stroke-linecap="round" stroke-linejoin="round"/>
<path d="M113.4 90.3001H89.0996C84.6996 90.3001 81.0996 86.7001 81.0996 82.3001V55.1001C81.0996 50.7001 84.6996 47.1001 89.0996 47.1001H113.4C117.8 47.1001 121.4 50.7001 121.4 55.1001V82.3001C121.4 86.7001 117.8 90.3001 113.4 90.3001Z" stroke="black" stroke-width="1.4" stroke-miterlimit="10" stroke-linecap="round" stroke-linejoin="round"/>
<path d="M168.9 191.1H144.6C140.2 191.1 136.6 187.5 136.6 183.1V155.9C136.6 151.5 140.2 147.9 144.6 147.9H168.9C173.3 147.9 176.9 151.5 176.9 155.9V183.1C176.9 187.5 173.3 191.1 168.9 191.1Z" stroke="black" stroke-width="1.4" stroke-miterlimit="10" stroke-linecap="round" stroke-linejoin="round"/>
<path d="M168.9 140.7H144.6C140.2 140.7 136.6 137.1 136.6 132.7V105.5C136.6 101.1 140.2 97.5002 144.6 97.5002H168.9C173.3 97.5002 176.9 101.1 176.9 105.5V132.7C176.9 137.1 173.3 140.7 168.9 140.7Z" stroke="black" stroke-width="1.4" stroke-miterlimit="10" stroke-linecap="round" stroke-linejoin="round"/>
<path d="M168.9 90.3001H144.6C140.2 90.3001 136.6 86.7001 136.6 82.3001V55.1001C136.6 50.7001 140.2 47.1001 144.6 47.1001H168.9C173.3 47.1001 176.9 50.7001 176.9 55.1001V82.3001C176.9 86.7001 173.3 90.3001 168.9 90.3001Z" stroke="black" stroke-width="1.4" stroke-miterlimit="10" stroke-linecap="round" stroke-linejoin="round"/>
<path d="M81.0996 144.3H176.9" stroke="black" stroke-width="1.4" stroke-miterlimit="10" stroke-linecap="round" stroke-linejoin="round"/>
<path d="M81.0996 93.9001H176.9" stroke="black" stroke-width="1.4" stroke-miterlimit="10" stroke-linecap="round" stroke-linejoin="round"/>
<path d="M101.2 83.0002V87.1002" stroke="black" stroke-width="1.4" stroke-miterlimit="10" stroke-linecap="round" stroke-linejoin="round"/>
<path d="M155.4 83.0002V87.1002" stroke="black" stroke-width="1.4" stroke-miterlimit="10" stroke-linecap="round" stroke-linejoin="round"/>
<path d="M158 83.0002V87.1002" stroke="black" stroke-width="1.4" stroke-miterlimit="10" stroke-linecap="round" stroke-linejoin="round"/>
<path d="M98.5996 133.8V138" stroke="black" stroke-width="1.4" stroke-miterlimit="10" stroke-linecap="round" stroke-linejoin="round"/>
<path d="M101.2 133.8V138" stroke="black" stroke-width="1.4" stroke-miterlimit="10" stroke-linecap="round" stroke-linejoin="round"/>
<path d="M103.8 133.8V138" stroke="black" stroke-width="1.4" stroke-miterlimit="10" stroke-linecap="round" stroke-linejoin="round"/>
<path d="M158 133.8V138" stroke="black" stroke-width="1.4" stroke-miterlimit="10" stroke-linecap="round" stroke-linejoin="round"/>
<path d="M160.7 133.8V138" stroke="black" stroke-width="1.4" stroke-miterlimit="10" stroke-linecap="round" stroke-linejoin="round"/>
<path d="M152.7 133.8V138" stroke="black" stroke-width="1.4" stroke-miterlimit="10" stroke-linecap="round" stroke-linejoin="round"/>
<path d="M155.4 133.8V138" stroke="black" stroke-width="1.4" stroke-miterlimit="10" stroke-linecap="round" stroke-linejoin="round"/>
<path d="M100.1 184.7L97.0996 188.1H103L100.1 184.7Z" stroke="black" stroke-width="1.4" stroke-miterlimit="10" stroke-linecap="round" stroke-linejoin="round"/>
<path d="M156.7 188.1L159.6 184.7H153.8L156.7 188.1Z" stroke="black" stroke-width="1.4" stroke-miterlimit="10" stroke-linecap="round" stroke-linejoin="round"/>
<path d="M116.999 77.8002L116.899 68.7002" stroke="#D73704" stroke-width="1.4" stroke-miterlimit="10" stroke-linecap="round"/>
<path d="M108.8 85.8003H96.0996" stroke="#D73704" stroke-width="1.4" stroke-miterlimit="10" stroke-linecap="round"/>
<path d="M110.599 79.5003L106.399 75.3003" stroke="#D73704" stroke-width="1.4" stroke-miterlimit="10" stroke-linecap="round"/>
<path d="M218.9 138.3C189.2 122.6 155.1 110.5 129 106.9C125.1 106.4 121.4 104.4 119.2 101.2C117.2 98.3001 116.6 90.2001 119.9 86.7001C121.6 84.9001 124 83.8001 126.4 83.4001C131.8 82.5001 144.6 81.0001 166.3 84.0001C186.8 86.8001 216 92.0001 216 92.0001" fill="white"/>
<path d="M216.9 136.4C216.9 136.4 217.7 133.4 217.7 132C218 128.5 217.8 124.9 216.6 121.8C208.4 98.5 172.7 107.7 173.2 118.6L216.9 136.4Z" fill="#FE745D"/>
<path d="M218.8 138.4C189.1 122.7 155 110.6 128.9 107C125 106.5 121.3 104.5 119.1 101.3C117.1 98.4002 116.5 90.3002 119.8 86.8002C121.5 85.0002 123.9 83.9002 126.3 83.5002C131.7 82.6002 144.5 81.1002 166.2 84.1002C186.8 86.9002 216 92.2002 216 92.2002" stroke="#230802" stroke-width="1.4" stroke-miterlimit="10" stroke-linecap="round" stroke-linejoin="round"/>
<path d="M128.1 97.5C121.2 96.6 118 99 118 99" stroke="#230802" stroke-width="1.4" stroke-miterlimit="10" stroke-linecap="round" stroke-linejoin="round"/>
<path d="M128.3 88.6C122.4 88.1 117.7 91.2 117.7 91.2" stroke="#230802" stroke-width="1.4" stroke-miterlimit="10" stroke-linecap="round" stroke-linejoin="round"/>
</svg>
