<svg width="252" height="252" viewBox="0 0 252 252" fill="none" xmlns="http://www.w3.org/2000/svg">
<path d="M208.492 135.048L115.107 162.509L55.1576 198.508L216.386 154.663L219.924 139.35L208.492 135.048Z" fill="#CFC9C8" stroke="#230802" stroke-width="1.4" stroke-linejoin="round"/>
<path d="M186.535 82.4145L196.26 106.206L209.369 101.104L195.078 79.7243L186.535 82.4145Z" fill="#EFCAB4" stroke="#230802" stroke-width="1.4" stroke-linejoin="round"/>
<path d="M197.417 173.52C211.474 169.139 219.606 159.07 221.915 154.583L217.085 147.973C215.362 151.169 211.003 158.042 207.35 159.971C203.698 161.9 104.94 189.377 56.0172 202.875L65.6112 205.522C103.689 196.68 183.36 177.901 197.417 173.52Z" fill="#EFCAB4" stroke="#230802" stroke-width="1.4" stroke-linejoin="round"/>
<path d="M208.012 127.219C203.939 127.012 167.731 137.67 132 150.755L122.672 162.531C148.364 154.784 200.72 139.098 204.602 138.333C208.484 137.569 212.425 138.809 213.91 139.525C213.917 137.003 211.271 127.383 208.012 127.219Z" fill="#F6E4D9" stroke="#230802" stroke-width="1.4" stroke-linejoin="round"/>
<path d="M130.562 171.355L193.856 139.709C196.678 138.071 196.37 131.741 192.962 125.743C189.553 119.744 184.293 115.833 181.359 117.713L118.177 149.117C115.354 150.755 115.663 157.085 119.071 163.083C122.367 169.325 127.497 172.881 130.562 171.355Z" fill="#FAFAFA"/>
<path fill-rule="evenodd" clip-rule="evenodd" d="M137.687 168.421L195.312 138.8C195.312 138.8 195.591 131.57 193.968 127.385C191.669 121.454 183.081 115.268 183.081 115.268L125.839 145.301C123.017 146.939 123.68 153.139 127.218 159.492C130.627 165.491 134.865 170.059 137.687 168.421Z" fill="#F2A85A"/>
<path d="M182.253 131.679C178.845 125.68 178.294 119.239 181.359 117.713C184.181 116.075 189.554 119.744 192.962 125.742C196.371 131.741 196.921 138.183 193.857 139.709C191.035 141.347 185.662 137.678 182.253 131.679Z" stroke="#230802" stroke-width="1.4" stroke-miterlimit="10" stroke-linecap="round" stroke-linejoin="round"/>
<path d="M130.562 171.355L193.856 139.709C196.678 138.071 196.37 131.741 192.962 125.743C189.553 119.744 184.293 115.833 181.359 117.713L118.177 149.117C115.354 150.755 115.663 157.085 119.071 163.083C122.367 169.325 127.497 172.881 130.562 171.355Z" stroke="#230802" stroke-width="1.4" stroke-miterlimit="10" stroke-linecap="round" stroke-linejoin="round"/>
<path fill-rule="evenodd" clip-rule="evenodd" d="M185.898 129.537C184.762 127.537 184.709 125.745 185.531 125.242C186.353 124.74 188.182 125.882 189.075 127.769C190.211 129.769 190.265 131.561 189.442 132.064C188.62 132.566 187.034 131.537 185.898 129.537Z" fill="#230802"/>
<path d="M178.5 155.754C170.442 158.349 106.575 174.453 74.8369 182.215C66.257 186.425 51.4039 201.969 51.9449 202.668C52.486 203.368 55.5963 203.294 57.0839 203.169C94.0961 194.033 170.8 175.031 181.516 172.115C194.911 168.469 214.335 159.604 214.534 158.052C214.693 156.811 208.888 145.402 207.246 143.037L206.831 143.257C200.692 146.5 190.474 151.899 178.5 155.754Z" fill="#F6E4D9" stroke="#230802" stroke-width="1.4" stroke-linejoin="round"/>
<path d="M212.556 137.776L205.529 120.006L210.771 118.47L217.313 136.335L212.556 137.776Z" fill="#EFCAB4" stroke="#230802" stroke-width="1.4" stroke-linejoin="round"/>
<path d="M217.255 156.509C210.697 143.687 211.995 131.503 213.463 127.013L210.551 127.586L208.339 121.469C208.339 121.469 207.04 121.405 206.207 120.881C205.062 120.161 204.763 119.361 205.148 118.065C205.545 116.73 206.385 116.069 207.677 115.551C209.682 114.748 209.515 117.205 212.427 116.632C212.806 116.558 213.197 117.381 213.199 117.992C213.202 118.903 212.077 119.977 212.077 119.977L213.184 123.036C213.184 123.036 217.204 121.489 219.587 122.279C220.883 122.709 222.09 123.58 222.587 124.713C223.375 126.511 224.362 129.17 225.184 131.485C225.838 133.328 226.387 134.953 226.647 135.755C227.039 136.964 227.659 138.643 228 139.755C229.343 144.125 229.989 146.945 229.989 146.945L221.526 155.164L217.255 156.509Z" fill="#F6E4D9"/>
<path d="M208.339 121.469L210.551 127.586L213.463 127.013C211.995 131.503 210.697 143.687 217.255 156.509L221.526 155.164L229.989 146.945C229.989 146.945 229.343 144.125 228 139.755M208.339 121.469C208.339 121.469 209.524 121.34 210.28 121.087C211.144 120.798 212.077 119.977 212.077 119.977M208.339 121.469C208.339 121.469 207.04 121.405 206.207 120.881C205.062 120.161 204.763 119.361 205.148 118.065C205.545 116.73 206.385 116.069 207.677 115.551C209.682 114.748 209.515 117.205 212.427 116.632C212.806 116.558 213.197 117.381 213.199 117.992C213.202 118.903 212.077 119.977 212.077 119.977M212.077 119.977L213.184 123.036C213.184 123.036 217.204 121.489 219.587 122.279C220.883 122.709 222.09 123.58 222.587 124.713C223.375 126.511 224.362 129.17 225.184 131.485M228 139.755C226.999 142.955 224.5 144.755 222.587 145.755M228 139.755C227.659 138.643 227.039 136.964 226.647 135.755M226.647 135.755C225.729 138.555 223 140.755 221.526 141.255M226.647 135.755C226.387 134.953 225.838 133.328 225.184 131.485M225.184 131.485C224.637 133.301 222 135.755 220.5 136.255" stroke="#230802" stroke-width="1.4" stroke-linecap="round" stroke-linejoin="round"/>
<path d="M49.3197 204.697L29.8095 177.289L187.741 68.064L199.088 85.5757C199.089 85.5779 199.091 85.58 199.092 85.5822C199.106 85.6039 199.12 85.6256 199.134 85.6473L209.464 101.59C208.052 99.5222 204.186 93.4444 199.134 85.6473C199.12 85.6256 199.106 85.6039 199.092 85.5822C199.091 85.58 199.089 85.5779 199.088 85.5757C192.796 75.8722 190.3 88.7325 194.827 98.9275C196.503 102.703 198.973 107.184 202.06 112.624C192.341 119.579 175.432 130.469 166.88 136.185C157.081 142.735 61.2669 198.817 49.3197 204.697Z" fill="#F6E4D9"/>
<path d="M29.8095 177.289L49.3197 204.697C61.2669 198.817 157.081 142.735 166.88 136.185C175.432 130.469 192.341 119.579 202.06 112.624C198.973 107.184 196.503 102.703 194.827 98.9275C190.299 88.7302 192.797 75.8664 199.092 85.5822C204.164 93.4105 208.048 99.5165 209.464 101.59L187.741 68.064L29.8095 177.289Z" stroke="#230802" stroke-width="1.4" stroke-linejoin="round"/>
<path d="M87.5235 139.819C77.5148 146.463 43.7727 169.381 38.2565 172.51C8.22048 189.552 63.9161 151.676 101.627 125.803C136.369 101.967 172.144 77.0308 180.458 71.964C197.797 61.3974 179.439 75.4067 174.733 79.2216C167.241 85.2947 108.314 126.019 87.5235 139.819Z" fill="#FAFAFA" stroke="#230802" stroke-width="1.4" stroke-linejoin="round"/>
<path d="M225.369 106.364C225.298 106.744 225.548 107.11 225.928 107.181C226.308 107.252 226.674 107.002 226.745 106.622L225.369 106.364ZM181.461 45.4709C181.164 45.7185 181.124 46.16 181.372 46.4568L185.408 51.2938C185.656 51.5907 186.097 51.6305 186.394 51.3828C186.691 51.1351 186.731 50.6937 186.483 50.3968L182.895 46.0973L187.195 42.5093C187.492 42.2616 187.531 41.8202 187.284 41.5233C187.036 41.2265 186.595 41.1867 186.298 41.4344L181.461 45.4709ZM184.23 46.9562C184.614 47.0024 184.963 46.7287 185.009 46.3449C185.055 45.9611 184.781 45.6125 184.398 45.5662L184.23 46.9562ZM189.22 46.3027C188.84 46.2318 188.474 46.4824 188.404 46.8625C188.333 47.2425 188.583 47.6081 188.963 47.6789L189.22 46.3027ZM193.629 48.7203C194.003 48.8183 194.386 48.5945 194.484 48.2205C194.582 47.8465 194.358 47.4639 193.984 47.366L193.629 48.7203ZM198.658 48.7895C198.293 48.6618 197.894 48.8541 197.766 49.219C197.639 49.5839 197.831 49.9832 198.196 50.1109L198.658 48.7895ZM202.62 51.8823C202.972 52.0424 203.387 51.8868 203.547 51.5349C203.707 51.183 203.552 50.7679 203.2 50.6079L202.62 51.8823ZM207.554 52.8541C207.22 52.6595 206.792 52.7725 206.597 53.1066C206.403 53.4406 206.516 53.8692 206.85 54.0638L207.554 52.8541ZM210.818 56.6763C211.128 56.9068 211.567 56.842 211.797 56.5316C212.028 56.2212 211.963 55.7827 211.653 55.5523L210.818 56.6763ZM215.416 58.7102C215.135 58.4441 214.692 58.4558 214.426 58.7363C214.16 59.0168 214.172 59.4599 214.452 59.7259L215.416 58.7102ZM217.68 63.197C217.924 63.4962 218.365 63.5404 218.665 63.2957C218.964 63.0509 219.008 62.6099 218.763 62.3106L217.68 63.197ZM221.626 66.3082C221.422 65.9802 220.99 65.8802 220.662 66.0848C220.334 66.2894 220.234 66.7212 220.439 67.0492L221.626 66.3082ZM222.691 71.2218C222.854 71.5727 223.27 71.7255 223.621 71.5632C223.971 71.4009 224.124 70.9848 223.962 70.634L222.691 71.2218ZM225.758 75.2078C225.638 74.8404 225.243 74.6402 224.875 74.7606C224.508 74.881 224.308 75.2764 224.428 75.6438L225.758 75.2078ZM225.661 80.2296C225.742 80.6076 226.114 80.8485 226.492 80.7677C226.87 80.6868 227.111 80.3148 227.03 79.9367L225.661 80.2296ZM227.822 84.7634C227.777 84.3794 227.429 84.1045 227.045 84.1493C226.661 84.1941 226.386 84.5418 226.431 84.9257L227.822 84.7634ZM226.783 89.694C226.795 90.0803 227.119 90.3833 227.505 90.3706C227.892 90.358 228.195 90.0345 228.182 89.6481L226.783 89.694ZM228.161 94.518C228.176 94.1317 227.875 93.806 227.489 93.7906C227.103 93.7752 226.777 94.0758 226.762 94.4621L228.161 94.518ZM226.413 99.2512C226.373 99.6357 226.653 99.9799 227.037 100.02C227.422 100.06 227.766 99.7808 227.806 99.3963L226.413 99.2512ZM227.166 104.207C227.227 103.826 226.967 103.466 226.586 103.405C226.204 103.344 225.845 103.603 225.783 103.985L227.166 104.207ZM181.846 46.7055C182.647 46.7777 183.442 46.8612 184.23 46.9562L184.398 45.5662C183.595 45.4696 182.786 45.3846 181.972 45.3111L181.846 46.7055ZM188.963 47.6789C190.552 47.9751 192.108 48.3219 193.629 48.7203L193.984 47.366C192.429 46.9587 190.84 46.6047 189.22 46.3027L188.963 47.6789ZM198.196 50.1109C199.716 50.6428 201.192 51.2329 202.62 51.8823L203.2 50.6079C201.732 49.9403 200.216 49.3346 198.658 48.7895L198.196 50.1109ZM206.85 54.0638C208.231 54.8685 209.556 55.7389 210.818 56.6763L211.653 55.5523C210.347 54.5828 208.979 53.6839 207.554 52.8541L206.85 54.0638ZM214.452 59.7259C215.598 60.8123 216.675 61.9688 217.68 63.197L218.763 62.3106C217.721 61.036 216.603 59.8363 215.416 58.7102L214.452 59.7259ZM220.439 67.0492C221.263 68.3709 222.016 69.7613 222.691 71.2218L223.962 70.634C223.262 69.1211 222.482 67.6796 221.626 66.3082L220.439 67.0492ZM224.428 75.6438C224.909 77.111 225.321 78.6392 225.661 80.2296L227.03 79.9367C226.68 78.2993 226.255 76.7233 225.758 75.2078L224.428 75.6438ZM226.431 84.9257C226.611 86.4635 226.729 88.0526 226.783 89.694L228.182 89.6481C228.127 87.9692 228.006 86.3412 227.822 84.7634L226.431 84.9257ZM226.762 94.4621C226.7 96.016 226.584 97.6122 226.413 99.2512L227.806 99.3963C227.98 97.7288 228.097 96.1029 228.161 94.518L226.762 94.4621ZM225.783 103.985C225.657 104.769 225.519 105.562 225.369 106.364L226.745 106.622C226.897 105.808 227.038 105.003 227.166 104.207L225.783 103.985Z" fill="#FE745D"/>
</svg>
