<?xml version="1.0" standalone="no"?>
<!DOCTYPE svg PUBLIC "-//W3C//DTD SVG 20010904//EN"
 "http://www.w3.org/TR/2001/REC-SVG-20010904/DTD/svg10.dtd">
<svg version="1.0" xmlns="http://www.w3.org/2000/svg"
 width="1024.000000pt" height="982.000000pt" viewBox="0 0 1024.000000 982.000000"
 preserveAspectRatio="xMidYMid meet">

<g transform="translate(0.000000,982.000000) scale(0.100000,-0.100000)"
fill="#000000" stroke="none">
<path d="M1725 6353 c-202 -24 -314 -53 -452 -118 -303 -143 -535 -412 -656
-762 -42 -121 -81 -292 -98 -428 -15 -125 -15 -441 0 -560 60 -469 238 -816
531 -1035 139 -103 325 -181 520 -217 131 -23 409 -23 539 1 468 86 792 369
934 814 19 59 38 124 41 145 l7 37 -234 0 -234 0 -36 -87 c-102 -245 -283
-412 -514 -475 -112 -30 -325 -30 -438 1 -157 42 -279 114 -386 228 -162 171
-234 357 -254 651 l-7 102 1082 0 1083 0 -6 218 c-11 425 -66 670 -202 897
-196 330 -531 539 -938 584 -91 10 -216 12 -282 4z m331 -453 c249 -64 450
-259 538 -522 27 -79 56 -241 56 -310 l0 -38 -826 0 -826 0 6 28 c2 15 8 50
11 77 12 95 56 240 100 330 127 258 333 412 610 455 83 12 240 3 331 -20z"/>
<path d="M7527 6350 c-199 -21 -415 -87 -562 -171 -96 -54 -218 -167 -274
-252 -23 -35 -54 -100 -70 -144 -29 -79 -61 -252 -61 -332 l0 -41 233 0 232 0
17 79 c44 214 172 350 383 405 224 59 558 36 728 -50 76 -39 150 -114 183
-187 26 -56 29 -75 32 -192 5 -175 -6 -224 -67 -285 -82 -82 -157 -102 -590
-160 -507 -68 -651 -100 -826 -186 -220 -107 -366 -279 -427 -503 -18 -64 -22
-104 -22 -251 0 -162 2 -181 28 -265 44 -145 98 -237 196 -336 151 -153 330
-232 591 -260 383 -42 726 75 1069 363 l68 58 7 -43 c20 -123 65 -217 135
-280 116 -105 328 -133 568 -77 l92 22 0 175 0 175 -57 -6 c-117 -13 -223 28
-268 104 -20 34 -20 50 -25 1010 -6 963 -6 976 -28 1053 -88 314 -332 497
-752 563 -118 18 -415 26 -533 14z m841 -1945 l-3 -271 -32 -65 c-40 -81 -121
-171 -224 -249 -161 -121 -346 -186 -559 -197 -326 -16 -544 98 -611 320 -17
55 -20 87 -17 175 3 94 7 115 34 172 38 81 78 127 150 175 127 84 284 129 643
181 297 43 441 72 541 111 l75 29 3 -56 c2 -30 2 -177 0 -325z"/>
<path d="M3490 6158 c22 -62 253 -720 514 -1463 l474 -1350 257 0 257 0 554
1445 c305 795 557 1453 560 1463 5 16 -10 17 -258 15 l-263 -3 -410 -1177
c-225 -648 -412 -1178 -415 -1178 -3 0 -103 298 -223 663 -120 364 -295 895
-389 1180 l-171 517 -263 0 -264 0 40 -112z"/>
</g>
</svg>
