<?xml version="1.0" standalone="no"?>
<!DOCTYPE svg PUBLIC "-//W3C//DTD SVG 20010904//EN"
 "http://www.w3.org/TR/2001/REC-SVG-20010904/DTD/svg10.dtd">
<svg version="1.0" xmlns="http://www.w3.org/2000/svg"
 width="960.000000pt" height="960.000000pt" viewBox="0 0 960.000000 960.000000"
 preserveAspectRatio="xMidYMid meet">

<g transform="translate(0.000000,960.000000) scale(0.100000,-0.100000)"
fill="#000000" stroke="none">
<path d="M3545 9429 c-1237 -21 -2369 -38 -2515 -37 -222 2 -273 0 -317 -14
-53 -17 -162 -81 -175 -102 -4 -7 -43 -37 -87 -66 -91 -62 -78 -42 -282 -429
-29 -54 -42 -93 -49 -150 -5 -42 -14 -98 -19 -126 -17 -86 -13 -205 8 -260 10
-27 21 -75 25 -105 4 -30 328 -1497 720 -3260 393 -1763 716 -3216 719 -3230
20 -93 144 -359 213 -456 85 -120 221 -215 375 -262 82 -25 327 -47 423 -37
77 7 5980 1128 6036 1145 19 6 44 15 55 19 37 15 91 31 104 31 7 0 27 6 44 14
43 18 153 61 197 76 90 31 195 117 236 194 92 175 93 177 104 297 18 209 16
233 -40 354 -34 74 -2110 5993 -2110 6017 0 36 -90 198 -110 198 -5 0 -32 16
-61 36 -30 20 -72 45 -94 56 -22 10 -47 23 -55 28 -21 14 -104 49 -180 77 -64
23 -73 24 -490 28 -269 2 -1251 -11 -2675 -36z m3120 -65 c68 -22 144 -55 175
-74 8 -5 30 -16 49 -25 58 -26 168 -104 187 -133 23 -34 54 -100 54 -116 0
-28 2131 -6072 2144 -6081 23 -18 28 -73 16 -204 -11 -131 -10 -130 -104 -307
-54 -102 -220 -200 -351 -209 -27 -2 -1395 -258 -3039 -569 l-2988 -566 -145
10 c-80 6 -164 15 -187 21 -59 16 -293 137 -314 163 -9 11 -28 28 -42 37 -22
14 -119 177 -197 329 -12 25 -40 104 -62 175 -52 175 -1460 6451 -1466 6540
-3 39 -12 102 -20 142 -8 40 -16 112 -16 160 -2 146 -13 238 -26 236 -7 -2 2
23 19 55 75 139 94 164 148 192 19 10 64 44 100 75 60 52 90 71 145 90 11 4
142 7 290 6 149 0 1283 17 2520 38 1238 21 2428 39 2645 39 387 0 397 -1 465
-24z m-6336 -697 c1 -48 8 -120 16 -160 8 -40 17 -106 19 -147 3 -51 232
-1090 704 -3190 786 -3494 712 -3172 764 -3345 41 -139 54 -168 168 -373 94
-168 144 -214 334 -308 139 -68 200 -83 336 -84 36 0 85 -5 109 -11 24 -5 47
-6 50 -2 8 11 5860 1117 5868 1110 3 -3 -8 -9 -23 -13 -16 -4 -34 -11 -41 -16
-7 -6 -1366 -268 -3020 -583 -1654 -316 -3018 -577 -3030 -580 -41 -13 -302
15 -382 40 -83 27 -219 100 -264 143 -58 55 -117 141 -171 253 -58 118 -126
286 -126 310 0 8 -322 1456 -716 3219 -393 1763 -719 3234 -723 3270 -5 36
-16 85 -26 109 -16 39 -17 52 -6 125 7 44 16 113 21 152 6 46 20 90 39 125 16
30 42 79 58 109 l28 55 6 -60 c4 -33 7 -100 8 -148z m8414 -6504 c-7 -2 -19
-2 -25 0 -7 3 -2 5 12 5 14 0 19 -2 13 -5z"/>
<path d="M4225 9050 c-27 -4 -90 -9 -140 -9 -49 -1 -119 -8 -155 -16 -36 -8
-85 -15 -110 -15 -25 0 -70 -7 -100 -16 -30 -8 -98 -19 -150 -24 -62 -6 -139
-23 -220 -48 -69 -22 -145 -45 -170 -52 -58 -15 -192 -75 -236 -105 -128 -87
-302 -291 -360 -421 -12 -28 -37 -74 -54 -102 l-31 -51 -4 -279 -5 -280 590
-2254 c325 -1239 598 -2271 608 -2293 26 -60 94 -146 141 -180 24 -16 69 -53
101 -80 112 -95 181 -121 465 -175 145 -28 189 -32 475 -41 451 -15 698 -4
930 42 153 30 552 129 575 144 11 6 58 24 105 38 47 14 114 35 150 46 69 21
312 114 395 151 28 12 68 31 90 41 23 9 52 20 67 24 14 4 72 31 129 60 122 64
436 219 462 228 10 4 35 42 55 84 36 77 37 80 37 198 0 169 -25 310 -92 520
-32 99 -355 1073 -719 2165 -481 1445 -671 2005 -699 2055 -146 265 -360 472
-540 523 -22 6 -71 21 -110 32 -38 12 -92 20 -120 19 -27 -1 -93 6 -145 14
-52 9 -126 19 -165 22 -38 3 -115 12 -170 20 -118 16 -803 28 -880 15z m830
-85 c55 -8 134 -17 175 -20 41 -4 122 -16 180 -27 58 -11 143 -24 190 -28 100
-9 232 -51 315 -101 101 -60 282 -265 347 -392 11 -23 31 -57 43 -77 18 -28
1385 -4120 1441 -4315 24 -84 49 -256 48 -340 0 -69 -5 -88 -32 -141 -34 -67
-49 -78 -212 -155 -95 -44 -152 -73 -290 -145 -52 -27 -115 -56 -140 -64 -25
-7 -49 -17 -54 -22 -6 -4 -24 -8 -40 -8 -40 0 -272 -54 -319 -74 -53 -22 -218
-65 -316 -82 -47 -8 -125 -26 -174 -40 -49 -14 -139 -29 -200 -35 -62 -5 -121
-14 -132 -18 -11 -5 -54 -14 -95 -20 -41 -6 -133 -19 -205 -31 -147 -22 -225
-24 -416 -10 -239 18 -363 32 -404 47 -22 8 -73 25 -113 39 -40 13 -94 35
-120 48 -26 13 -77 33 -114 45 -149 49 -251 147 -327 316 -17 36 -38 78 -49
93 -10 15 -29 54 -42 87 -13 33 -28 65 -32 71 -4 6 -266 996 -583 2200 -316
1204 -580 2200 -585 2214 -17 45 -39 233 -41 356 l-2 120 51 65 c102 130 243
229 387 272 28 8 97 29 155 47 156 48 209 60 275 60 33 0 89 9 123 20 35 11
85 20 110 20 26 1 76 7 112 15 36 8 106 15 155 16 50 0 113 5 140 9 75 13 673
1 790 -15z m-2307 -891 c6 -39 20 -100 31 -135 12 -35 280 -1049 596 -2253
316 -1204 582 -2200 590 -2212 8 -13 15 -30 15 -38 0 -7 7 -16 14 -19 8 -3 34
-46 57 -94 97 -200 200 -302 357 -354 37 -12 88 -32 114 -45 26 -13 80 -35
120 -48 40 -14 91 -31 113 -39 41 -15 165 -29 404 -47 196 -15 290 -12 441 11
74 12 171 27 215 33 44 7 87 15 95 19 8 4 63 11 122 17 59 5 147 21 196 34 49
14 129 33 178 41 98 17 269 62 354 93 30 11 75 23 100 26 34 5 16 -4 -73 -38
-64 -25 -129 -52 -145 -59 -15 -8 -52 -20 -82 -27 -67 -15 -192 -55 -220 -70
-43 -23 -371 -106 -590 -149 -107 -21 -276 -40 -430 -48 -152 -8 -719 14 -795
31 -38 8 -130 27 -204 41 -154 30 -257 74 -320 136 -22 21 -59 50 -82 65 -63
40 -121 104 -152 170 -22 48 -435 1606 -1073 4054 -19 74 -43 167 -54 205 -72
265 -78 312 -73 560 l5 210 33 55 c18 30 40 72 49 94 9 21 28 57 43 81 l28 42
6 -136 c4 -75 12 -168 17 -207z"/>
<path d="M5270 8726 c-219 -78 -356 -200 -417 -374 -20 -58 -23 -86 -23 -207
0 -148 12 -213 50 -288 12 -23 38 -73 57 -112 29 -57 60 -94 169 -201 122
-119 144 -136 237 -182 155 -78 214 -95 345 -100 139 -5 293 12 347 40 22 11
53 32 69 46 59 56 146 173 188 253 l43 84 0 150 c0 149 0 151 -39 260 -21 61
-47 127 -57 147 -11 21 -19 42 -19 49 0 26 -211 252 -300 321 -118 93 -271
138 -463 138 -102 0 -133 -4 -187 -24z m387 -49 c138 -36 209 -81 350 -224
127 -127 156 -170 216 -323 54 -135 70 -215 64 -324 -4 -94 -7 -107 -46 -184
-23 -46 -54 -98 -69 -115 -77 -90 -125 -135 -164 -154 -55 -27 -212 -47 -321
-41 -86 6 -242 50 -295 85 -15 10 -49 29 -76 43 -30 15 -98 74 -175 151 -119
118 -129 131 -183 240 -69 139 -77 172 -78 320 0 125 14 187 64 271 30 52 110
132 163 164 157 95 211 112 354 113 81 1 128 -5 196 -22z"/>
<path d="M3570 8576 c-219 -78 -356 -200 -417 -374 -20 -58 -23 -86 -23 -207
0 -148 12 -213 50 -288 12 -23 38 -73 57 -112 29 -57 60 -94 169 -201 122
-119 144 -136 237 -182 155 -78 214 -95 345 -100 139 -5 293 12 347 40 22 11
53 32 69 46 59 56 146 173 188 253 l43 84 0 150 c0 149 0 151 -39 260 -21 61
-47 127 -57 147 -11 21 -19 42 -19 49 0 26 -211 252 -300 321 -118 93 -271
138 -463 138 -102 0 -133 -4 -187 -24z m387 -49 c138 -36 209 -81 350 -224
127 -127 156 -170 216 -323 54 -135 70 -215 64 -324 -4 -94 -7 -107 -46 -184
-23 -46 -54 -98 -69 -115 -77 -90 -125 -135 -164 -154 -55 -27 -212 -47 -321
-41 -86 6 -242 50 -295 85 -15 10 -49 29 -76 43 -30 15 -98 74 -175 151 -119
118 -129 131 -183 240 -69 139 -77 172 -78 320 0 125 14 187 64 271 30 52 110
132 163 164 157 95 211 112 354 113 81 1 128 -5 196 -22z"/>
<path d="M5830 6966 c-219 -78 -356 -200 -417 -374 -20 -58 -23 -86 -23 -207
0 -148 12 -213 50 -288 12 -23 38 -73 57 -112 29 -57 60 -94 169 -201 122
-119 144 -136 237 -182 155 -78 214 -95 345 -100 139 -5 293 12 347 40 22 11
53 32 69 46 59 56 146 173 188 253 l43 84 0 150 c0 149 0 151 -39 260 -21 61
-47 127 -57 147 -11 21 -19 42 -19 49 0 26 -211 252 -300 321 -118 93 -271
138 -463 138 -102 0 -133 -4 -187 -24z m387 -49 c138 -36 209 -81 350 -224
127 -127 156 -170 216 -323 54 -135 70 -215 64 -324 -4 -94 -7 -107 -46 -184
-23 -46 -54 -98 -69 -115 -77 -90 -125 -135 -164 -154 -55 -27 -212 -47 -321
-41 -86 6 -242 50 -295 85 -15 10 -49 29 -76 43 -30 15 -98 74 -175 151 -119
118 -129 131 -183 240 -69 139 -77 172 -78 320 0 125 14 187 64 271 30 52 110
132 163 164 157 95 211 112 354 113 81 1 128 -5 196 -22z"/>
<path d="M4100 6816 c-219 -78 -356 -200 -417 -374 -20 -58 -23 -86 -23 -207
0 -148 12 -213 50 -288 12 -23 38 -73 57 -112 29 -57 60 -94 169 -201 122
-119 144 -136 237 -182 155 -78 214 -95 345 -100 139 -5 293 12 347 40 22 11
53 32 69 46 59 56 146 173 188 253 l43 84 0 150 c0 149 0 151 -39 260 -21 61
-47 127 -57 147 -11 21 -19 42 -19 49 0 26 -211 252 -300 321 -118 93 -271
138 -463 138 -102 0 -133 -4 -187 -24z m387 -49 c138 -36 209 -81 350 -224
127 -127 156 -170 216 -323 54 -135 70 -215 64 -324 -4 -94 -7 -107 -46 -184
-23 -46 -54 -98 -69 -115 -77 -90 -125 -135 -164 -154 -55 -27 -212 -47 -321
-41 -86 6 -242 50 -295 85 -15 10 -49 29 -76 43 -30 15 -98 74 -175 151 -119
118 -129 131 -183 240 -69 139 -77 172 -78 320 0 125 14 187 64 271 30 52 110
132 163 164 157 95 211 112 354 113 81 1 128 -5 196 -22z"/>
<path d="M6390 5036 c-219 -78 -356 -200 -417 -374 -20 -58 -23 -86 -23 -207
0 -148 12 -213 50 -288 12 -23 38 -73 57 -112 29 -57 60 -94 169 -201 122
-119 144 -136 237 -182 155 -78 214 -95 345 -100 139 -5 293 12 347 40 22 11
53 32 69 46 59 56 146 173 188 253 l43 84 0 150 c0 149 0 151 -39 260 -21 61
-47 127 -57 147 -11 21 -19 42 -19 49 0 26 -211 252 -300 321 -118 93 -271
138 -463 138 -102 0 -133 -4 -187 -24z m387 -49 c138 -36 209 -81 350 -224
127 -127 156 -170 216 -323 54 -135 70 -215 64 -324 -4 -94 -7 -107 -46 -184
-23 -46 -54 -98 -69 -115 -77 -90 -125 -135 -164 -154 -55 -27 -212 -47 -321
-41 -86 6 -242 50 -295 85 -15 10 -49 29 -76 43 -30 15 -98 74 -175 151 -119
118 -129 131 -183 240 -69 139 -77 172 -78 320 0 125 14 187 64 271 30 52 110
132 163 164 157 95 211 112 354 113 81 1 128 -5 196 -22z"/>
<path d="M4650 4796 c-219 -78 -356 -200 -417 -374 -20 -58 -23 -86 -23 -207
0 -148 12 -213 50 -288 12 -23 38 -73 57 -112 29 -57 60 -94 169 -201 122
-119 144 -136 237 -182 155 -78 214 -95 345 -100 139 -5 293 12 347 40 22 11
53 32 69 46 59 56 146 173 188 253 l43 84 0 150 c0 149 0 151 -39 260 -21 61
-47 127 -57 147 -11 21 -19 42 -19 49 0 26 -211 252 -300 321 -118 93 -271
138 -463 138 -102 0 -133 -4 -187 -24z m387 -49 c138 -36 209 -81 350 -224
127 -127 156 -170 216 -323 54 -135 70 -215 64 -324 -4 -94 -7 -107 -46 -184
-23 -46 -54 -98 -69 -115 -77 -90 -125 -135 -164 -154 -55 -27 -212 -47 -321
-41 -86 6 -242 50 -295 85 -15 10 -49 29 -76 43 -30 15 -98 74 -175 151 -119
118 -129 131 -183 240 -69 139 -77 172 -78 320 0 125 14 187 64 271 30 52 110
132 163 164 157 95 211 112 354 113 81 1 128 -5 196 -22z"/>
</g>
</svg>
